<svg width="18" height="18" viewBox="0 0 18 18" fill="none" xmlns="http://www.w3.org/2000/svg">
<path d="M8.59273 12.9476L2.61898 6.67796C2.51926 6.57335 2.46362 6.43436 2.46362 6.28983C2.46362 6.1453 2.51926 6.00632 2.61898 5.90171L2.62573 5.89496C2.67408 5.84407 2.73227 5.80355 2.79677 5.77586C2.86127 5.74817 2.93073 5.73389 3.00092 5.73389C3.07111 5.73389 3.14057 5.74817 3.20507 5.77586C3.26957 5.80355 3.32776 5.84407 3.37611 5.89496L9.00111 11.799L14.6239 5.89496C14.6722 5.84407 14.7304 5.80355 14.7949 5.77586C14.8594 5.74817 14.9289 5.73389 14.999 5.73389C15.0692 5.73389 15.1387 5.74817 15.2032 5.77586C15.2677 5.80355 15.3259 5.84407 15.3742 5.89496L15.381 5.90171C15.4807 6.00632 15.5363 6.1453 15.5363 6.28983C15.5363 6.43436 15.4807 6.57335 15.381 6.67796L9.40723 12.9476C9.3547 13.0027 9.29151 13.0466 9.22151 13.0766C9.1515 13.1066 9.07614 13.1221 8.99998 13.1221C8.92382 13.1221 8.84846 13.1066 8.77845 13.0766C8.70845 13.0466 8.64526 13.0027 8.59273 12.9476Z" fill="white"/>
</svg>
