<svg width="14" height="9" viewBox="0 0 14 9" fill="none" xmlns="http://www.w3.org/2000/svg">
<path d="M13.716 8.50681L13.5462 5.31663L12.6298 5.36551L12.7309 7.27031L7.75245 1.68683C7.70391 1.63158 7.64498 1.5904 7.57634 1.56395C7.5077 1.53717 7.43672 1.52779 7.36339 1.53583C7.29007 1.54319 7.22277 1.56663 7.16083 1.60681C7.09888 1.64665 7.04966 1.69855 7.01283 1.76217L5.11239 5.04174L0.690067 0L0 0.606027L4.8442 6.12824C4.86797 6.15569 4.89509 6.1798 4.92489 6.20089C4.95469 6.22165 4.9865 6.23906 5.02031 6.25246C5.05413 6.26585 5.08929 6.27489 5.12511 6.27991C5.16127 6.28493 5.19743 6.28594 5.23359 6.28225C5.27009 6.27857 5.30525 6.27087 5.33973 6.25882C5.37422 6.2471 5.4067 6.23103 5.4375 6.21161C5.46797 6.19185 5.49576 6.16875 5.5212 6.1423C5.54632 6.11618 5.56808 6.08705 5.58616 6.05558L7.48929 2.77098L12.1631 8.01328L10.0929 7.90312L10.044 8.8202L13.2331 8.98996C13.2653 8.99196 13.2974 8.99096 13.3292 8.98627C13.3614 8.98158 13.3922 8.97355 13.4223 8.96217C13.4528 8.95078 13.4812 8.93638 13.5084 8.91897C13.5355 8.90123 13.5603 8.88114 13.583 8.85837C13.6055 8.83527 13.6256 8.81016 13.643 8.78304C13.66 8.75592 13.6741 8.72712 13.6852 8.69665C13.6962 8.66652 13.7039 8.63538 13.7083 8.60324C13.7126 8.57143 13.7136 8.53929 13.7109 8.50714L13.716 8.50681Z" fill="#FB6868"/>
</svg>
