<svg width="19" height="12" viewBox="0 0 19 12" fill="none" xmlns="http://www.w3.org/2000/svg">
<path d="M18.2879 0.645016L18.0616 4.89859L16.8397 4.83341L16.9746 2.29368L10.3366 9.73832C10.2719 9.81198 10.1933 9.86689 10.1018 9.90216C10.0103 9.93787 9.91562 9.95037 9.81786 9.93966C9.72009 9.92984 9.63036 9.89859 9.54777 9.84502C9.46518 9.79189 9.39955 9.72269 9.35045 9.63787L6.81652 5.26511L0.920089 11.9874L0 11.1794L6.45893 3.81644C6.49062 3.77984 6.52679 3.74769 6.56652 3.71957C6.60625 3.69189 6.64866 3.66868 6.69375 3.65082C6.73884 3.63296 6.78571 3.62091 6.83348 3.61421C6.8817 3.60752 6.92991 3.60618 6.97813 3.61109C7.02679 3.616 7.07366 3.62627 7.11964 3.64234C7.16563 3.65796 7.20893 3.67939 7.25 3.70528C7.29063 3.73162 7.32768 3.76243 7.36161 3.79769C7.39509 3.83252 7.42411 3.87136 7.44821 3.91332L9.98571 8.29278L16.2174 1.30305L13.4571 1.44993L13.392 0.227159L17.6442 0.000819685C17.6871 -0.00185894 17.7299 -0.000519658 17.7723 0.0057304C17.8152 0.0119803 17.8563 0.0226946 17.8964 0.0378733C17.9371 0.0530518 17.975 0.0722483 18.0112 0.0954625C18.0473 0.119123 18.0804 0.145909 18.1107 0.176266C18.1406 0.20707 18.1674 0.240552 18.1906 0.276713C18.2134 0.312873 18.2321 0.351266 18.2469 0.391891C18.2616 0.43207 18.2719 0.473588 18.2777 0.516445C18.2835 0.558855 18.2848 0.601713 18.2812 0.64457L18.2879 0.645016Z" fill="#06BA2D"/>
</svg>
