<svg width="269" height="150" viewBox="0 0 269 150" fill="none" xmlns="http://www.w3.org/2000/svg">
<mask id="mask0_13_5691" style="mask-type:luminance" maskUnits="userSpaceOnUse" x="109" y="0" width="51" height="61">
<path d="M109.764 0H159.236V61H109.764V0Z" fill="white"/>
</mask>
<g mask="url(#mask0_13_5691)">
<path d="M138.665 39.8496C138.658 39.8729 138.651 39.8963 138.645 39.9196C138.721 39.9296 138.801 39.943 138.878 39.9563C138.881 39.9396 138.885 39.9196 138.888 39.903C138.815 39.8863 138.741 39.8696 138.665 39.8496ZM135.946 46.4428C135.943 46.4462 135.976 46.4462 135.986 46.4295C136.096 46.2761 136.213 46.1294 136.306 45.9659C136.85 44.9888 137.334 43.9883 137.597 42.8944C137.641 42.7143 137.691 42.5243 137.681 42.3442C137.647 41.7939 137.587 41.247 137.534 40.7C137.527 40.6367 137.504 40.5766 137.474 40.4566C137.257 41.5271 137.153 42.5476 136.84 43.5314C136.526 44.5019 136.24 45.4824 135.946 46.4428ZM131.663 46.9598C131.68 46.9798 131.693 47.0031 131.71 47.0231C131.76 46.9965 131.82 46.9798 131.866 46.9464C132.667 46.3561 133.421 45.7092 134.075 44.9621C134.558 44.4052 134.992 43.8015 135.436 43.2113C135.592 43.0045 135.726 42.7744 135.846 42.5443C136.049 42.1541 136.23 41.7539 136.423 41.3603C136.586 41.0235 136.757 40.6934 136.923 40.3565C136.68 40.5833 136.473 40.8334 136.29 41.0969C135.883 41.6838 135.516 42.3008 135.079 42.8644C134.342 43.8149 133.568 44.7353 132.8 45.6591C132.434 46.1027 132.043 46.5262 131.663 46.9598ZM138.428 40.1531C138.451 40.2398 138.451 40.2798 138.471 40.3032C138.865 40.7601 139.255 41.2203 139.659 41.6672C139.789 41.8172 139.969 41.9206 140.102 42.0707C140.853 42.9144 141.607 43.7582 142.337 44.622C142.978 45.379 143.638 46.1194 144.185 46.9498C144.309 47.1399 144.482 47.2933 144.635 47.4633C144.669 47.3866 144.662 47.34 144.642 47.2966C144.339 46.673 144.045 46.0493 143.731 45.4324C143.198 44.3885 142.601 43.398 141.637 42.6677C140.816 42.0474 140.036 41.377 139.232 40.7334C138.988 40.5399 138.725 40.3699 138.428 40.1531ZM127.297 46.0193C127.427 45.986 127.497 45.9726 127.56 45.9493C128.724 45.5357 129.845 45.0322 130.912 44.4152C131.356 44.1551 131.773 43.8482 132.223 43.6014C133.081 43.1245 133.791 42.4809 134.428 41.7405C134.615 41.5238 134.819 41.317 135.035 41.1269C135.439 40.7734 135.859 40.4332 136.286 40.0764C135.916 40.1998 128.261 45.2589 127.297 46.0193ZM137.767 39.8429C137.737 39.8596 137.707 39.8796 137.674 39.8996C137.827 40.2131 137.967 40.5333 138.131 40.8401C138.548 41.6238 138.791 42.4742 139.048 43.3113C139.605 45.1355 140.112 46.9764 140.639 48.8107C140.693 48.9974 140.756 49.1775 140.813 49.361C140.843 49.3576 140.873 49.3543 140.903 49.3509C140.909 49.0041 140.943 48.6539 140.913 48.3104C140.853 47.6001 140.809 46.8797 140.669 46.1827C140.486 45.2489 140.269 44.3151 139.969 43.4114C139.792 42.8744 139.452 42.3808 139.148 41.8906C138.775 41.2936 138.364 40.72 137.971 40.1364C137.904 40.0397 137.837 39.9396 137.767 39.8429ZM139.672 40.2365C139.665 40.2631 139.662 40.2898 139.655 40.3165C139.855 40.4165 140.049 40.5299 140.256 40.62C141.076 40.9668 141.877 41.347 142.607 41.8706C143.154 42.2641 143.728 42.621 144.299 42.9811C144.605 43.1746 144.929 43.3447 145.243 43.5247C146.21 44.0884 147.171 44.652 148.141 45.2089C148.258 45.2756 148.375 45.389 148.585 45.3356C148.275 44.9755 147.991 44.6386 147.698 44.3151C146.987 43.5281 146.103 42.9411 145.283 42.2875C145.193 42.2174 145.092 42.1574 144.989 42.1207C144.329 41.8773 143.668 41.6405 143.008 41.4037C142.347 41.1669 141.687 40.9235 141.023 40.69C140.576 40.5333 140.122 40.3865 139.672 40.2365ZM139.805 39.5995C139.805 39.6328 139.802 39.6662 139.802 39.6995C139.939 39.7229 140.072 39.7462 140.206 39.7696C141.22 39.943 142.237 40.1097 143.251 40.2898C143.905 40.4065 144.552 40.5433 145.206 40.6733C145.733 40.7801 146.263 40.8768 146.79 40.9968C147.267 41.1069 147.734 41.2503 148.211 41.357C148.802 41.4871 149.392 41.6005 149.986 41.7105C150.306 41.7705 150.633 41.8106 150.897 41.8473C150.653 41.7205 150.359 41.5504 150.056 41.407C148.702 40.7667 147.301 40.2598 145.836 39.933C145.479 39.8529 145.136 39.7362 144.779 39.6562C144.502 39.5961 144.215 39.5294 143.928 39.5328C142.964 39.5328 141.997 39.5628 141.03 39.5795C140.623 39.5895 140.212 39.5928 139.805 39.5995ZM134.215 40.4432C134.205 40.4266 134.195 40.4099 134.185 40.3932C133.608 40.5666 133.037 40.7467 132.457 40.9035C131.766 41.0935 131.069 41.2503 130.382 41.4437C129.612 41.6638 128.851 41.924 128.077 42.1374C126.846 42.4742 125.609 42.7877 124.371 43.1079C123.837 43.2446 123.3 43.3547 122.767 43.4914C122.463 43.5714 122.166 43.6715 121.863 43.7649C121.866 43.7915 121.873 43.8216 121.876 43.8482C122.373 43.8316 122.873 43.8282 123.367 43.7915C124.231 43.7282 125.088 43.6281 125.949 43.5714C126.873 43.5114 127.757 43.2913 128.637 43.0312C128.901 42.9545 129.195 42.9211 129.415 42.7777C130.315 42.1941 131.306 41.7906 132.27 41.3337C132.914 41.0269 133.568 40.74 134.215 40.4432ZM137.981 44.6353C137.954 44.642 137.927 44.6453 137.901 44.6486C137.897 44.7587 137.901 44.8687 137.884 44.9755C137.741 45.8926 137.597 46.8097 137.44 47.7268C137.194 49.1875 136.94 50.6449 136.687 52.1056C136.62 52.4892 136.533 52.8693 136.483 53.2529C136.316 54.5535 135.956 55.8108 135.666 57.0814C135.439 58.0586 135.145 59.019 134.892 59.9895C134.788 60.3864 134.905 60.5231 135.356 60.5465C135.379 60.4964 135.409 60.4431 135.429 60.3864C135.656 59.696 135.883 59.0024 136.113 58.312C136.713 56.5045 137.073 54.6435 137.34 52.766C137.48 51.7855 137.56 50.795 137.677 49.8112C137.781 48.9307 137.994 48.0636 137.997 47.1665C138.001 46.6463 138.138 46.1227 138.214 45.6024C138.224 45.5424 138.231 45.4757 138.214 45.419C138.141 45.1555 138.057 44.8988 137.981 44.6353ZM156.424 29.0309C156.41 29.0043 156.397 28.9743 156.384 28.9476C156.347 28.9442 156.31 28.9276 156.277 28.9342C155.243 29.181 154.206 29.4178 153.175 29.6879C152.521 29.858 151.867 30.0548 151.233 30.2916C150.546 30.5484 149.842 30.7585 149.225 31.202C148.542 31.6889 147.778 32.0624 147.081 32.526C145.866 33.3364 144.649 34.1435 143.478 35.0106C142.234 35.931 140.963 36.8048 139.615 37.5685C139.325 37.7352 138.961 38.0354 138.815 38.2355C138.921 38.1888 139.005 38.1588 139.078 38.1154C140.009 37.5718 140.94 37.0249 141.874 36.4813C142.597 36.0577 143.321 35.6309 144.055 35.2207C144.856 34.7771 145.663 34.3436 146.47 33.9133C147.357 33.4431 148.238 32.9662 149.135 32.516C149.986 32.0891 150.85 31.6889 151.71 31.2787C152.741 30.7851 153.772 30.2949 154.803 29.8047C155.343 29.5479 155.883 29.2877 156.424 29.0309ZM155.63 36.2512C155.627 36.2278 155.627 36.2078 155.623 36.1845C155.49 36.1745 155.356 36.1545 155.223 36.1545C154.105 36.1545 152.985 36.1278 151.867 36.1645C150.626 36.2078 149.385 36.3079 148.145 36.3846C148.071 36.3879 147.994 36.3979 147.921 36.4146C147.568 36.4913 147.214 36.578 146.86 36.6547C145.559 36.9415 144.245 37.1516 143.021 37.7186C142.714 37.862 142.394 37.972 142.07 38.0787C141.013 38.4356 139.952 38.7857 138.895 39.1359C138.825 39.1626 138.758 39.2026 138.688 39.236C138.978 39.276 139.255 39.3093 139.522 39.2727C140.106 39.1859 140.683 39.0625 141.26 38.9558C143.088 38.6157 144.909 38.2622 146.737 37.9387C147.798 37.7486 148.875 37.6218 149.933 37.4251C151.66 37.1049 153.382 36.7481 155.106 36.4012C155.283 36.3679 155.456 36.3045 155.63 36.2512ZM111.709 30.2982C111.699 30.3182 111.686 30.3349 111.676 30.3549C111.709 30.3916 111.736 30.4316 111.772 30.4583C112.279 30.8518 112.78 31.2487 113.29 31.6322C114.467 32.5193 115.725 33.2797 117.049 33.9267C118.394 34.5803 119.768 35.164 121.172 35.6709C121.446 35.7709 121.709 35.8877 121.983 35.981C122.917 36.3079 123.851 36.628 124.785 36.9448C125.128 37.0616 125.472 37.175 125.826 37.265C126.102 37.335 126.389 37.3717 126.676 37.4151C127.73 37.5751 128.788 37.7386 129.845 37.8886C130.802 38.022 131.76 38.1421 132.72 38.2688C133.271 38.3422 133.821 38.4222 134.372 38.4989C133.654 38.1654 132.934 37.8353 132.183 37.6052C131.153 37.2883 130.099 37.0649 129.061 36.7714C127.937 36.4579 126.82 36.1211 125.705 35.7709C124.882 35.5075 124.071 35.204 123.254 34.9238C122.553 34.6804 121.836 34.4836 121.152 34.2002C119.881 33.6666 118.637 33.0729 117.37 32.526C116.609 32.1992 115.832 31.909 115.058 31.6122C114.344 31.3421 113.62 31.0886 112.91 30.8118C112.503 30.6551 112.109 30.4683 111.709 30.2982ZM156.744 15.8511C156.724 15.8311 156.704 15.8144 156.684 15.7944C156.414 15.9779 156.147 16.1613 155.877 16.3447C155.059 16.8883 154.212 17.3852 153.435 17.9822C152.097 19.0094 150.923 20.2199 149.739 21.4172C149.529 21.6273 149.272 21.8007 149.095 22.0342C148.425 22.9113 147.788 23.8117 147.121 24.6955C146.417 25.6226 145.666 26.5197 144.989 27.4668C144.265 28.4773 143.588 29.5179 142.924 30.5684C142.447 31.3221 142.04 32.1191 141.563 32.8728C140.749 34.1535 139.902 35.4141 139.072 36.6847C138.998 36.7981 138.931 36.9148 138.865 37.0282C139.062 36.8815 139.205 36.6947 139.345 36.508C139.398 36.4413 139.445 36.3679 139.502 36.3012C139.655 36.1211 139.829 35.9544 139.969 35.7676C140.466 35.0906 140.96 34.4136 141.447 33.7299C141.823 33.1997 142.264 32.7128 142.561 32.1291C142.591 32.0758 142.631 32.0224 142.671 31.9757C142.801 31.829 142.948 31.6956 143.068 31.5388C143.391 31.112 143.688 30.6618 144.028 30.2449C145.049 28.9876 146.116 27.767 147.231 26.5931C147.844 25.9461 148.418 25.2624 149.005 24.5921C149.819 23.6583 150.623 22.7178 151.444 21.7907C152.057 21.097 152.694 20.42 153.312 19.7264C153.952 19.0027 154.572 18.2657 155.213 17.5386C155.717 16.9683 156.234 16.4147 156.744 15.8511ZM153.445 10.8954C153.428 10.8854 153.412 10.8787 153.392 10.872C153.188 11.0388 152.988 11.2088 152.781 11.3756C152.047 11.9626 151.3 12.5362 150.576 13.1431C149.612 13.9535 148.712 14.8273 148.001 15.8778C147.694 16.3314 147.337 16.7716 147.117 17.2685C146.597 18.4257 146.133 19.6096 145.673 20.7902C145.193 22.0208 144.612 23.2014 143.945 24.342C143.461 25.1657 142.998 25.9995 142.557 26.8465C142.18 27.5702 141.84 28.3139 141.493 29.0543C141.286 29.4945 141.08 29.9414 140.906 30.3983C140.526 31.4088 140.162 32.4293 139.795 33.4431C139.759 33.5432 139.729 33.6399 139.692 33.7366C139.962 33.3564 140.189 32.9595 140.399 32.5493C141.013 31.3521 141.6 30.1448 142.227 28.9576C142.767 27.9371 143.338 26.9333 143.922 25.9361C144.665 24.6621 145.426 23.3915 146.197 22.1309C146.627 21.4239 147.094 20.7435 147.541 20.0465C147.994 19.3428 148.448 18.6358 148.898 17.9255C149.669 16.7082 150.433 15.4876 151.213 14.277C151.794 13.3833 152.398 12.5062 152.988 11.619C153.148 11.3823 153.295 11.1355 153.445 10.8954ZM134.171 37.6485C134.111 37.5885 134.085 37.5518 134.048 37.5285C133.461 37.1916 132.884 36.8415 132.287 36.528C131.503 36.1144 130.756 35.6342 129.988 35.1906C129.054 34.6537 128.16 34.0534 127.28 33.4331C126.439 32.8462 125.645 32.1925 124.825 31.5789C124.221 31.1286 123.611 30.6918 123 30.2515C122.506 29.8914 122.006 29.5345 121.516 29.1677C120.949 28.7375 120.395 28.2839 119.825 27.8604C119.151 27.3601 118.464 26.8799 117.78 26.3963C117.423 26.1395 117.066 25.8894 116.706 25.6393C116.355 25.3992 115.992 25.1791 115.658 24.9189C115.061 24.462 114.484 23.9818 113.897 23.5149C113.737 23.3882 113.57 23.2681 113.407 23.1481C113.387 23.1681 113.367 23.1881 113.35 23.2114C113.533 23.4449 113.704 23.6883 113.9 23.9084C114.734 24.8489 115.575 25.7827 116.416 26.7165C116.479 26.7865 116.566 26.8365 116.642 26.8966C116.923 27.1233 117.243 27.3034 117.43 27.6303C117.5 27.7503 117.583 27.8637 117.676 27.9604C118.243 28.5474 118.801 29.1477 119.394 29.7079C120.071 30.3416 120.779 30.9452 121.489 31.5455C121.783 31.7923 122.093 32.0591 122.443 32.1992C123.087 32.4593 123.674 32.8195 124.288 33.133C125.148 33.5732 126.019 33.9967 126.893 34.4103C128.114 34.9905 129.338 35.5675 130.572 36.1244C131.716 36.6414 132.87 37.1349 134.018 37.6385C134.048 37.6519 134.088 37.6418 134.171 37.6485ZM144.052 4.19873C144.035 4.1954 144.018 4.19206 144.002 4.18539C143.485 5.10251 142.941 6.00629 142.461 6.94341C141.8 8.22738 141.31 9.58805 140.823 10.9454C140.439 12.0259 140.236 13.1498 139.965 14.257C139.879 14.6072 139.819 14.9707 139.792 15.3309C139.725 16.208 139.685 17.0851 139.639 17.9622C139.562 19.3028 139.498 20.6468 139.412 21.9875C139.348 22.9513 139.262 23.9118 139.175 24.8756C139.132 25.3625 139.062 25.8494 139.015 26.3363C138.961 26.8966 138.908 27.4602 138.871 28.0205C138.828 28.6474 138.825 29.2777 138.761 29.9014C138.638 31.1253 138.481 32.3459 138.344 33.5698C138.251 34.3936 138.164 35.2173 138.074 36.0411C138.047 36.2745 138.024 36.5046 137.997 36.7381C138.071 36.6981 138.091 36.6514 138.097 36.6047C138.208 35.8476 138.321 35.0906 138.421 34.3336C138.551 33.3497 138.751 32.3759 138.805 31.3821C138.825 30.9819 138.885 30.5817 138.958 30.1882C139.298 28.3573 139.549 26.5164 139.705 24.6621C139.799 23.5749 139.929 22.4911 140.169 21.4239C140.279 20.947 140.346 20.4601 140.432 19.9765C140.539 19.3995 140.619 18.8093 140.763 18.239C140.97 17.4119 141.24 16.6015 141.457 15.7744C141.713 14.7939 141.957 13.8068 142.177 12.8196C142.437 11.6557 142.667 10.4852 142.911 9.31792C143.028 8.75431 143.131 8.18736 143.258 7.62375C143.411 6.95676 143.591 6.29643 143.748 5.62944C143.858 5.15253 143.952 4.67563 144.052 4.19873ZM119.798 10.6786C119.775 10.6886 119.751 10.6953 119.731 10.7053C119.878 11.2088 120.045 11.7058 120.168 12.2127C120.465 13.4366 120.805 14.6439 121.212 15.8311C121.456 16.5415 121.723 17.2485 122.016 17.9422C122.433 18.9226 122.877 19.8898 123.317 20.8603C123.36 20.9636 123.434 21.0537 123.504 21.1404C124.361 22.1609 125.242 23.1581 126.069 24.1986C126.77 25.0857 127.4 26.0261 128.074 26.9333C128.561 27.5869 129.058 28.2306 129.565 28.8675C130.082 29.5145 130.642 30.1248 131.139 30.7885C132.083 32.0391 132.994 33.3197 133.921 34.587C134.502 35.3807 135.092 36.1711 135.679 36.9649C135.469 36.5613 135.222 36.1845 134.962 35.8143C134.265 34.8338 133.548 33.8633 132.924 32.8328C132.86 32.7228 132.81 32.606 132.744 32.5027C131.826 31.092 130.906 29.6779 129.985 28.2706C129.725 27.8704 129.441 27.4835 129.191 27.0767C128.671 26.2196 128.16 25.3525 127.653 24.482C127.257 23.8017 126.873 23.108 126.483 22.4244C126.242 22.0008 125.999 21.5806 125.759 21.1537C125.605 20.8803 125.462 20.6001 125.312 20.3267C125.045 19.8464 124.778 19.3595 124.505 18.8826C124.124 18.2156 123.727 17.562 123.354 16.8916C122.937 16.1479 122.543 15.3876 122.126 14.6405C121.779 14.0169 121.416 13.3999 121.052 12.783C120.639 12.0793 120.215 11.3789 119.798 10.6786ZM139.885 29.3678C139.902 29.3711 139.922 29.3745 139.942 29.3778C140.166 28.8509 140.389 28.3239 140.613 27.7937C140.893 27.1267 141.176 26.4597 141.443 25.7894C142.04 24.2953 142.657 22.8112 143.204 21.3038C143.675 20.0065 144.058 18.6792 144.642 17.4252C144.952 16.7582 145.329 16.1213 145.653 15.4576C146.033 14.6806 146.407 13.8968 146.75 13.1031C147.077 12.3461 147.367 11.5724 147.668 10.802C147.848 10.3351 148.028 9.86819 148.198 9.39796C148.345 8.98442 148.475 8.56755 148.612 8.15068C148.662 7.99727 148.712 7.84386 148.762 7.68711C148.535 7.89055 148.355 8.11399 148.178 8.33743C147.437 9.25789 146.667 10.155 145.97 11.1021C145.343 11.9525 144.806 12.863 144.215 13.7334C143.842 14.2804 143.548 14.854 143.375 15.491C143.091 16.5215 142.787 17.5453 142.507 18.5725C142.154 19.8831 141.807 21.1938 141.47 22.5111C141.353 22.9713 141.25 23.4415 141.18 23.9118C141.006 25.0323 140.759 26.1329 140.446 27.2201C140.242 27.9304 140.069 28.6508 139.885 29.3678ZM130.809 3.35498C130.789 3.35498 130.769 3.35832 130.752 3.35832C130.679 3.84856 130.586 4.3388 130.539 4.83238C130.395 6.39982 130.302 7.96392 130.372 9.53803C130.402 10.1783 130.342 10.822 130.389 11.4623C130.459 12.4728 130.562 13.4866 130.692 14.4938C130.772 15.1341 130.836 15.7711 131.066 16.3947C131.633 17.9522 132.097 19.5429 132.527 21.1437C132.84 22.3076 133.207 23.4582 133.561 24.6088C133.784 25.3425 134.041 26.0662 134.251 26.8032C134.565 27.8904 134.845 28.9843 135.152 30.0748C135.332 30.7151 135.559 31.3421 135.722 31.9891C136.046 33.2797 136.336 34.577 136.65 35.871C136.697 36.0611 136.793 36.2445 136.867 36.4279C136.913 36.3746 136.917 36.3379 136.907 36.3045C136.887 36.2178 136.863 36.1311 136.833 36.0511C136.556 35.3307 136.446 34.5703 136.32 33.8166C136.086 32.4193 135.899 31.0153 135.456 29.6579C135.209 28.9142 135.009 28.1538 134.799 27.3968C134.718 27.12 134.655 26.8399 134.595 26.5597C134.542 26.3263 134.502 26.0895 134.455 25.8561C134.318 25.1657 134.175 24.4787 134.055 23.7884C133.861 22.7145 133.694 21.6373 133.504 20.5634C133.347 19.6997 133.151 18.8426 133.007 17.9788C132.867 17.1384 132.777 16.288 132.657 15.4443C132.55 14.6872 132.43 13.9335 132.32 13.1765C132.243 12.6562 132.167 12.136 132.097 11.6157C131.997 10.8353 131.916 10.0516 131.8 9.27123C131.69 8.52753 131.54 7.7905 131.419 7.05013C131.233 5.90957 131.059 4.77235 130.879 3.63179C130.866 3.53841 130.832 3.44503 130.809 3.35498ZM115.301 15.4643C115.288 15.4743 115.271 15.4876 115.258 15.4976C115.421 15.8044 115.582 16.1113 115.748 16.4147C116.025 16.9217 116.305 17.4252 116.582 17.9322C117.026 18.7359 117.44 19.5563 117.913 20.34C118.38 21.1137 118.884 21.8674 119.408 22.6045C119.901 23.3015 120.438 23.9685 120.959 24.6455C120.995 24.6955 121.039 24.7422 121.079 24.7889C121.466 25.2524 121.856 25.7126 122.236 26.1829C122.573 26.5964 122.913 26.9966 123.344 27.3301C124.078 27.9004 124.771 28.5207 125.465 29.1377C126.142 29.738 126.786 30.3783 127.463 30.9752C128.544 31.9324 129.642 32.8728 130.736 33.8133C131.346 34.3369 131.956 34.8571 132.584 35.3574C133.017 35.7009 133.474 36.011 133.928 36.3279C134.261 36.5647 134.605 36.7881 134.949 37.0149C134.895 36.8815 134.812 36.7948 134.722 36.7081C134.248 36.2612 133.758 35.8276 133.297 35.3674C132.817 34.8872 132.367 34.3802 131.903 33.8867C131.189 33.1263 130.465 32.3759 129.768 31.6022C129.028 30.7785 128.321 29.9314 127.59 29.0976C127.37 28.8442 127.126 28.6041 126.896 28.3539C126.443 27.857 125.989 27.3568 125.535 26.8565C124.788 26.0395 124.038 25.2324 123.297 24.4087C122.82 23.8751 122.373 23.3181 121.896 22.7812C120.772 21.5139 119.614 20.2733 118.514 18.986C117.566 17.8788 116.612 16.7816 115.582 15.7477C115.488 15.651 115.395 15.5577 115.301 15.4643ZM136.106 36.3545C136.129 36.3479 136.153 36.3379 136.173 36.3312C136.026 36.0544 135.879 35.7809 135.732 35.5075C135.486 35.0439 135.235 34.5803 135.105 34.0634C135.045 33.8233 135.015 33.5698 134.945 33.3297C134.628 32.2492 134.301 31.1687 133.975 30.0881C133.741 29.3311 133.501 28.5807 133.264 27.827C132.931 26.7498 132.367 25.766 132.117 24.6488C131.943 23.8617 131.546 23.128 131.246 22.371C131.006 21.764 130.759 21.1637 130.522 20.5534C130.262 19.8864 130.038 19.2061 129.758 18.5491C129.255 17.3719 128.728 16.208 128.204 15.0374C127.413 13.2765 126.733 11.469 126.022 9.67142C125.572 8.53086 125.092 7.40031 124.618 6.26642C124.575 6.15303 124.501 6.05631 124.441 5.94959C124.425 6.07299 124.451 6.17971 124.471 6.28643C124.671 7.2569 124.868 8.22738 125.062 9.19786C125.298 10.3651 125.519 11.539 125.772 12.7029C126.006 13.7668 126.269 14.824 126.529 15.8811C126.623 16.248 126.749 16.6015 126.853 16.965C127.046 17.6353 127.24 18.309 127.427 18.986C127.507 19.2761 127.577 19.563 127.74 19.8264C127.92 20.1099 128.087 20.41 128.237 20.7135C128.928 22.0942 129.612 23.4816 130.295 24.8656C130.672 25.6326 131.046 26.403 131.419 27.17C132.103 28.5807 132.777 30.0014 133.474 31.4054C133.938 32.3392 134.432 33.2597 134.922 34.1801C135.309 34.9105 135.712 35.6309 136.106 36.3545ZM137.197 34.9572C137.1 35.1239 137.11 35.2874 137.237 35.4508C137.22 35.2874 137.2 35.1206 137.184 34.9572C137.2 34.5303 137.234 34.1068 137.224 33.6832C137.21 33.0696 137.15 32.456 137.13 31.8423C137.107 31.1153 137.1 30.3883 137.093 29.6613C137.09 29.111 137.083 28.5574 137.11 28.0104C137.143 27.2701 137.2 26.5331 137.264 25.796C137.357 24.7588 137.46 23.725 137.57 22.6912C137.677 21.704 137.737 20.7169 137.667 19.723C137.62 19.1261 137.584 18.5258 137.574 17.9255C137.564 17.3152 137.594 16.7015 137.6 16.0879C137.614 15.0241 137.627 13.9569 137.634 12.893C137.641 12.116 137.641 11.3389 137.654 10.5619C137.657 10.3017 137.714 10.0383 137.714 9.77814C137.721 8.82768 137.711 7.87387 137.717 6.92341C137.721 6.40982 137.761 5.89957 137.761 5.38598C137.764 4.60893 137.747 3.82855 137.744 3.0515C137.741 2.80138 137.754 2.54792 137.757 2.2978C137.724 2.29446 137.691 2.29113 137.657 2.28779C137.617 2.54459 137.58 2.80138 137.537 3.05817C137.42 3.71183 137.324 4.36882 137.184 5.01914C136.953 6.08633 136.693 7.14685 136.563 8.23405C136.49 8.84435 136.43 9.45799 136.353 10.0683C136.23 11.0888 136.079 12.106 135.969 13.1298C135.846 14.227 135.753 15.3275 135.652 16.4247C135.622 16.7449 135.572 17.0751 135.602 17.3919C135.729 18.8659 135.849 20.34 135.913 21.8207C135.969 23.2714 136.123 24.7222 136.26 26.1695C136.38 27.4035 136.546 28.6341 136.68 29.8714C136.777 30.7951 136.853 31.7189 136.947 32.6427C137.023 33.4164 137.113 34.1868 137.197 34.9572ZM139.952 36.7848C139.629 36.8781 139.432 37.1249 139.252 37.3884C139.485 37.1883 139.719 36.9849 139.949 36.7814C139.979 36.7447 140.009 36.7014 140.046 36.668C140.419 36.3545 140.799 36.0411 141.173 35.7276C141.563 35.3941 141.95 35.0539 142.347 34.7271C142.908 34.2635 143.478 33.8133 144.045 33.3531C144.459 33.0229 144.856 32.6794 145.279 32.3626C145.67 32.0724 146.09 31.8157 146.493 31.5355C147.044 31.1487 147.591 30.7485 148.145 30.3583C148.645 30.0014 149.155 29.6546 149.656 29.2944C150.233 28.8775 150.803 28.4473 151.387 28.0338C152.061 27.5536 152.751 27.0933 153.422 26.6098C154.002 26.1929 154.566 25.756 155.136 25.3291C155.81 24.8222 156.484 24.3186 157.154 23.8117C157.218 23.765 157.268 23.7017 157.324 23.645C157.244 23.6183 157.198 23.6283 157.158 23.645C156.597 23.8717 156.05 24.1252 155.48 24.3153C154.562 24.6221 153.632 24.8822 152.791 25.3792C152.064 25.8027 151.283 26.1295 150.596 26.6264C150.036 27.0333 149.462 27.4202 148.885 27.8003C148.678 27.9371 148.471 28.0705 148.295 28.2506C147.594 28.9676 146.894 29.6879 146.17 30.3883C144.959 31.5555 143.762 32.7361 142.624 33.9767C142.05 34.607 141.427 35.194 140.826 35.7976C140.553 36.0744 140.272 36.3445 139.999 36.6213C139.965 36.658 139.969 36.7281 139.952 36.7848ZM133.991 39.7295C133.968 39.7029 133.945 39.6528 133.921 39.6528C133.357 39.6095 132.797 39.5495 132.237 39.5361C131.61 39.5194 130.982 39.5495 130.355 39.5428C129.541 39.5395 128.724 39.5228 127.91 39.4994C127.156 39.4761 126.403 39.4461 125.652 39.3994C125.025 39.3627 124.401 39.286 123.774 39.246C123.084 39.2026 122.393 39.2026 121.706 39.1526C120.725 39.0826 119.745 38.9825 118.764 38.8958C118.13 38.8391 117.493 38.8091 116.866 38.7124C116.209 38.609 115.565 38.4456 114.914 38.3088C114.841 38.2922 114.764 38.2855 114.691 38.2755C114.684 38.3022 114.678 38.3289 114.671 38.3555C114.824 38.4222 114.975 38.5056 115.135 38.559C115.945 38.8258 116.752 39.0859 117.566 39.346C118.357 39.5928 119.147 39.8396 119.941 40.0764C121.422 40.5199 122.943 40.6733 124.485 40.62C125.275 40.59 126.062 40.4966 126.853 40.4799C127.847 40.4566 128.834 40.3799 129.815 40.2365C130.225 40.1731 130.636 40.1131 131.046 40.0597C131.493 39.9997 131.94 39.9463 132.39 39.8963C132.924 39.8329 133.461 39.7762 133.995 39.7129C134.081 39.7029 134.168 39.6895 134.255 39.6762C134.245 39.6495 134.231 39.6228 134.221 39.5928C134.145 39.6395 134.068 39.6829 133.991 39.7295ZM139.712 29.8947C139.835 29.7913 139.835 29.7913 139.852 29.5946C139.802 29.7046 139.759 29.8013 139.715 29.898C139.375 31.2254 138.998 32.546 138.838 33.9133C138.895 33.8433 138.938 33.7699 138.955 33.6899C139.001 33.4831 139.035 33.273 139.078 33.0629C139.205 32.4893 139.335 31.9124 139.465 31.3388C139.565 30.9119 139.672 30.485 139.765 30.0581C139.775 30.0114 139.729 29.9481 139.712 29.8947ZM120.035 31.2154C119.684 30.8952 119.388 30.6317 119.101 30.3583C118.61 29.888 118.07 29.4845 117.536 29.0676C116.879 28.554 116.359 27.9071 115.828 27.2667C115.475 26.8432 115.125 26.4163 114.774 25.9895C114.498 25.6526 114.224 25.3091 113.94 24.9756C113.387 24.3286 112.85 23.665 112.269 23.0413C111.739 22.4711 111.162 21.9475 110.608 21.4005C110.505 21.3005 110.338 21.1971 110.408 21.0337C110.495 20.8469 110.681 20.967 110.815 20.9903C111.235 21.0537 111.659 21.1337 112.076 21.2204C112.269 21.2605 112.459 21.3372 112.65 21.3972C112.863 21.4639 113.08 21.5339 113.29 21.6106C113.517 21.6873 113.737 21.774 113.96 21.8608C114.791 22.1842 115.625 22.5011 116.452 22.8379C116.819 22.988 117.169 23.1847 117.53 23.3548C118.133 23.6383 118.737 23.9184 119.338 24.2052C119.471 24.2719 119.588 24.3653 119.715 24.4454C119.868 24.5421 120.021 24.6355 120.175 24.7322C120.192 24.7122 120.208 24.6888 120.225 24.6688C120.058 24.4687 119.881 24.2786 119.728 24.0718C119.221 23.3848 118.71 22.6978 118.223 21.9975C117.94 21.5873 117.683 21.1537 117.44 20.7169C117.043 19.9932 116.669 19.2528 116.275 18.5258C115.895 17.8188 115.498 17.1184 115.111 16.4147C114.858 15.9512 114.638 15.4709 114.347 15.0307C114.084 14.6272 113.757 14.2603 113.44 13.8935C113.323 13.7634 113.25 13.6367 113.257 13.45C113.48 13.3766 113.66 13.4299 113.844 13.5733C114.081 13.7568 114.327 13.9435 114.594 14.0703C115.525 14.5171 116.436 14.994 117.303 15.551C117.853 15.9012 118.377 16.2947 118.931 16.6382C119.664 17.0884 120.265 17.692 120.909 18.2523C121.132 18.4491 121.366 18.6392 121.649 18.8793C121.626 18.7492 121.616 18.6725 121.596 18.6025C121.092 17.0084 120.572 15.4243 120.088 13.8268C119.765 12.7596 119.488 11.6791 119.197 10.6019C119.091 10.215 119.011 9.82483 118.914 9.43464C118.844 9.14783 118.707 8.90104 118.5 8.68427C118.33 8.50085 118.18 8.29742 118.04 8.08731C117.997 8.02061 117.993 7.89055 118.03 7.81718C118.087 7.70379 118.207 7.74381 118.29 7.8005C118.604 8.01061 118.931 8.20404 119.211 8.44749C119.721 8.89438 120.232 9.34793 120.695 9.83817C121.202 10.3751 121.659 10.9621 122.14 11.5257C122.23 11.6291 122.326 11.7291 122.41 11.8392C122.873 12.4461 123.334 13.0598 123.804 13.6667C124.064 14.0036 124.324 14.3437 124.615 14.6572C125.088 15.1675 125.429 15.7678 125.789 16.358C125.919 16.5715 126.069 16.7716 126.249 16.965C126.192 16.7416 126.139 16.5181 126.079 16.2947C125.815 15.3275 125.549 14.3571 125.282 13.3899C125.118 12.783 124.935 12.1827 124.791 11.569C124.645 10.9487 124.531 10.3184 124.415 9.6881C124.298 9.07446 124.188 8.46083 124.084 7.84386C123.994 7.3136 123.887 6.78667 123.837 6.25308C123.774 5.54606 123.521 4.88574 123.35 4.2054C123.307 4.03198 123.187 3.87857 123.104 3.72183C123.23 3.5851 123.327 3.57176 123.457 3.65847C124.608 4.44218 125.622 5.37931 126.426 6.5032C127.056 7.37696 127.56 8.3441 128.11 9.27123C128.377 9.72478 128.641 10.185 128.878 10.6586C129.191 11.2822 129.481 11.9225 129.812 12.6229C129.895 12.096 129.815 11.6424 129.782 11.1888C129.748 10.7286 129.682 10.2751 129.722 9.80816C129.758 9.4113 129.692 9.0111 129.705 8.61424C129.735 7.67377 129.782 6.73665 129.832 5.79952C129.872 5.04915 129.922 4.29878 129.972 3.54841C129.982 3.39834 130.022 3.2516 130.035 3.10153C130.068 2.76803 130.095 2.43453 130.119 2.0977C130.135 1.87759 130.139 1.65415 130.149 1.4307C130.159 1.13389 130.222 0.837079 130.055 0.553606C130.012 0.480236 130.022 0.370182 130.008 0.276803C130.175 0.216773 130.259 0.290143 130.325 0.386857C130.459 0.583621 130.602 0.777049 130.712 0.987152C131.356 2.18441 131.916 3.41835 132.407 4.6823C132.744 5.54606 133.107 6.39982 133.421 7.27358C133.925 8.69094 134.482 10.0916 134.799 11.5724C134.932 12.1793 135.129 12.7763 135.349 13.3799C135.402 13.0164 135.462 12.6562 135.512 12.296C135.676 11.0888 135.836 9.88153 135.996 8.6776C136.063 8.15401 136.086 7.62375 136.183 7.11016C136.393 5.97294 136.636 4.84572 136.87 3.71516C136.967 3.24827 137.057 2.78137 137.164 2.32114C137.257 1.93095 137.367 1.54409 137.467 1.15724C137.537 0.867093 137.6 0.57695 137.674 0.286808C137.701 0.186759 137.757 0.0933793 137.837 0C138.258 1.29397 138.461 2.62796 138.768 3.9386C139.082 5.25592 139.322 6.58657 139.458 7.93724C139.602 9.2879 139.752 10.6419 139.949 12.0026C140.129 11.5157 140.312 11.0288 140.493 10.5419C140.679 10.0349 140.859 9.52469 141.05 9.0211C141.236 8.52753 141.423 8.03395 141.63 7.55038C141.843 7.05347 142.07 6.56323 142.304 6.07632C142.531 5.60276 142.771 5.13586 143.008 4.66563C143.248 4.18206 143.475 3.69182 143.741 3.22159C143.992 2.7847 144.095 2.25444 144.509 1.84091C144.649 2.19441 144.682 2.48789 144.682 2.80471C144.685 3.64179 144.739 4.47887 144.759 5.31928C144.769 5.88289 144.762 6.4465 144.756 7.01012C144.739 8.07397 144.729 9.14116 144.692 10.2084C144.675 10.7186 144.612 11.2322 144.559 11.7424C144.549 11.8392 144.492 11.9292 144.459 12.0259C144.489 12.0359 144.519 12.0459 144.549 12.0559C144.826 11.6924 145.106 11.3289 145.383 10.9654C145.663 10.5952 145.936 10.2217 146.22 9.85485C146.51 9.47799 146.807 9.10448 147.097 8.72763C147.391 8.35077 147.671 7.96725 147.968 7.5904C148.255 7.22689 148.535 6.85671 148.852 6.51987C149.172 6.17971 149.349 5.71281 149.819 5.43267C149.819 5.55273 149.829 5.62277 149.819 5.68947C149.749 6.13635 149.706 6.58657 149.596 7.02345C149.302 8.17736 149.392 9.36461 149.232 10.5318C149.112 11.3889 148.975 12.2394 148.685 13.0664C148.488 13.6334 148.338 14.2137 148.145 14.8773C148.361 14.6539 148.518 14.4971 148.672 14.3371C149.626 13.3532 150.64 12.4395 151.724 11.599C152.408 11.0654 153.051 10.4818 153.712 9.92155C153.855 9.80149 154.002 9.68143 154.156 9.57471C154.196 9.5447 154.276 9.5547 154.322 9.57804C154.352 9.59138 154.359 9.66475 154.362 9.71144C154.366 9.74479 154.342 9.78148 154.332 9.81816C154.055 10.822 153.795 11.8325 153.498 12.8296C153.345 13.3466 153.125 13.8435 152.941 14.3504C152.688 15.0474 152.458 15.7544 152.184 16.4414C151.847 17.2785 151.477 18.1022 151.12 18.9326C151.03 19.1327 150.943 19.3362 150.907 19.573C150.98 19.5129 151.053 19.4529 151.127 19.3895C151.971 18.6759 152.818 17.9688 153.655 17.2451C154.326 16.6649 155.106 16.258 155.837 15.7711C156.344 15.4309 156.857 15.0974 157.361 14.7539C157.441 14.7006 157.498 14.6072 157.588 14.5071C157.631 14.5772 157.701 14.6405 157.688 14.6839C157.648 14.8506 157.595 15.0174 157.525 15.1741C156.827 16.7049 156.013 18.1789 155.173 19.633C154.879 20.1432 154.516 20.6135 154.189 21.1037C153.859 21.604 153.538 22.1142 153.201 22.6111C152.941 22.9913 152.668 23.3648 152.388 23.7383C152.187 24.0085 151.964 24.2653 151.757 24.5354C151.374 25.049 150.98 25.5492 150.5 25.9828C150.443 26.0328 150.41 26.1162 150.383 26.1996C150.746 25.826 151.233 25.6793 151.674 25.4525C152.344 25.1124 153.011 24.7622 153.699 24.452C154.109 24.2686 154.549 24.1552 154.976 24.0051C155.53 23.8084 156.087 23.6183 156.637 23.4015C157.011 23.2581 157.364 23.058 157.741 22.9146C158.228 22.7312 158.689 22.5111 158.992 22.0642C159.079 21.9341 159.186 21.8708 159.386 21.9375C159.353 22.0375 159.343 22.1542 159.282 22.2309C158.529 23.2314 157.785 24.2386 156.998 25.2124C156.667 25.6193 156.237 25.9394 155.853 26.3029C155.373 26.7598 154.909 27.2367 154.409 27.6736C153.772 28.2206 153.105 28.7308 152.414 29.2877C152.541 29.2677 152.644 29.2577 152.745 29.2377C153.442 29.0943 154.142 28.9476 154.843 28.8075C155.727 28.6308 156.614 28.4473 157.501 28.2973C158.068 28.2039 158.575 27.9671 159.092 27.7403C159.149 27.7136 159.199 27.6703 159.259 27.6603C159.302 27.6503 159.376 27.6703 159.393 27.7003C159.416 27.747 159.423 27.8304 159.396 27.867C159.322 27.9671 159.242 28.0738 159.139 28.1405C158.228 28.7208 157.361 29.3544 156.544 30.0648C154.873 31.5188 153.098 32.8462 151.24 34.0501C150.616 34.4536 149.973 34.8238 149.342 35.2173C149.092 35.3707 148.855 35.5475 148.628 35.7576C148.708 35.7509 148.792 35.7509 148.872 35.7376C149.045 35.7076 149.219 35.6275 149.385 35.6375C150.556 35.7109 151.717 35.4741 152.885 35.5475C153.098 35.5608 153.305 35.6275 153.518 35.6342C154.319 35.6642 155.123 35.6909 155.923 35.7009C156.414 35.7042 156.901 35.6742 157.391 35.6742C157.465 35.6742 157.541 35.7376 157.608 35.7709C157.598 35.821 157.601 35.8576 157.588 35.8676C156.734 36.4546 155.767 36.8014 154.806 37.1549C153.932 37.4784 153.031 37.7052 152.134 37.9487C151.567 38.1021 151.03 38.3655 150.47 38.5423C149.859 38.7324 149.242 38.8925 148.618 39.0359C148.055 39.1693 147.484 39.256 146.917 39.366C146.81 39.386 146.71 39.4261 146.53 39.4794C146.89 39.6062 147.177 39.6929 147.454 39.8062C148.592 40.2731 149.732 40.7334 150.86 41.2236C151.447 41.4804 152.007 41.7906 152.578 42.0774C152.815 42.1974 153.045 42.3208 153.285 42.4309C153.412 42.4876 153.415 42.5609 153.368 42.661C153.332 42.671 153.302 42.691 153.285 42.6843C152.718 42.4909 152.174 42.6677 151.624 42.7777C151.083 42.8844 150.533 42.9545 149.989 43.0378C149.916 43.0478 149.839 43.0345 149.762 43.0278C148.928 42.9645 148.091 42.8978 147.177 42.8244C147.404 43.0879 147.601 43.2913 147.768 43.5147C148.245 44.1484 148.708 44.7887 149.179 45.4257C149.429 45.7692 149.676 46.116 149.923 46.4629C149.946 46.4895 149.983 46.5229 149.983 46.5562C149.983 46.6096 149.973 46.6763 149.943 46.7163C149.926 46.7397 149.836 46.7397 149.809 46.713C149.569 46.4762 149.245 46.4762 148.948 46.3928C148.515 46.2661 148.085 46.1227 147.658 45.9726C147.02 45.7458 146.383 45.5191 145.753 45.2723C145.379 45.1255 145.019 44.9454 144.652 44.7787C144.429 44.6786 144.202 44.5786 143.888 44.4385C143.965 44.6086 144.008 44.692 144.045 44.7787C144.249 45.2623 144.455 45.7458 144.652 46.2327C144.932 46.9164 145.196 47.6068 145.476 48.2938C145.543 48.4672 145.643 48.6273 145.723 48.7973C145.793 48.9474 145.833 49.1008 145.753 49.2809C145.379 49.2909 145.119 49.0408 144.849 48.864C144.218 48.4572 143.611 48.0103 143.011 47.5567C142.784 47.3833 142.601 47.1532 142.397 46.9464C142.05 46.5896 141.703 46.2327 141.293 45.8125C141.296 46.0193 141.29 46.1494 141.3 46.2794C141.376 47.4734 141.376 48.6639 141.186 49.8479C141.163 49.9846 141.163 50.1247 141.163 50.2614C141.163 50.3848 141.126 50.5048 141 50.5182C140.923 50.5249 140.816 50.4582 140.766 50.3915C140.489 50.048 140.206 49.7078 139.969 49.3376C139.629 48.7973 139.322 48.2337 139.005 47.6801C138.901 47.4967 138.808 47.3066 138.641 47.1265C138.618 47.2799 138.595 47.4367 138.568 47.5901C138.414 48.4338 138.364 49.2842 138.328 50.138C138.288 51.0118 138.171 51.8855 138.081 52.7593C137.954 53.9732 137.644 55.1505 137.307 56.3244C137.187 56.7312 137.12 57.1548 137.013 57.5683C136.9 58.0052 136.793 58.4454 136.636 58.869C136.423 59.4559 136.166 60.0262 135.936 60.6065C135.806 60.9333 135.552 61.0167 135.239 61C134.758 60.9733 134.435 60.7466 134.298 60.3297C134.268 60.2296 134.265 60.1062 134.291 60.0062C134.462 59.3359 134.658 58.6755 134.819 58.0052C135.095 56.858 135.352 55.7074 135.616 54.5568C135.736 54.0299 135.866 53.503 135.973 52.9761C136.116 52.249 136.246 51.5187 136.376 50.7883C136.616 49.4277 136.857 48.067 137.09 46.703C137.16 46.2961 137.21 45.8859 137.217 45.4524C137.05 45.6725 136.873 45.8859 136.72 46.116C136.293 46.753 135.856 47.3833 135.459 48.037C135.169 48.5172 134.835 48.9774 134.645 49.5144C134.628 49.5644 134.558 49.6411 134.532 49.6344C134.472 49.6177 134.395 49.5677 134.378 49.511C134.335 49.3843 134.298 49.2442 134.298 49.1108C134.288 48.4472 134.271 47.7802 134.298 47.1165C134.318 46.6796 134.405 46.2461 134.465 45.8092C134.488 45.6391 134.522 45.4724 134.562 45.2356C134.452 45.3123 134.395 45.3356 134.358 45.3757C133.895 45.9426 133.254 46.3161 132.76 46.8531C132.644 46.9764 132.47 47.0431 132.333 47.1465C132.137 47.2999 131.95 47.47 131.75 47.6201C131.593 47.7402 131.426 47.8469 131.269 47.9636C131.096 48.0903 130.929 48.2237 130.756 48.3471C130.285 48.6773 129.815 49.0041 129.338 49.3209C129.285 49.3576 129.141 49.3509 129.108 49.3109C129.058 49.2509 129.034 49.1175 129.068 49.0508C129.481 48.2771 129.905 47.51 130.329 46.743C130.372 46.6663 130.429 46.5963 130.469 46.5196C130.689 46.0793 130.949 45.6691 131.256 45.2823C131.406 45.0888 131.523 44.8654 131.61 44.6019C131.409 44.7253 131.209 44.8454 131.012 44.9788C130.415 45.379 129.735 45.6191 129.098 45.9393C128.401 46.2894 127.657 46.5296 126.916 46.7463C126.196 46.9564 125.495 47.2299 124.771 47.43C124.601 47.4767 124.451 47.4967 124.321 47.3033C125.352 46.1994 126.186 44.9054 127.427 43.9383C127.28 43.9616 127.126 43.9716 126.983 44.0083C126.056 44.2484 125.108 44.3485 124.161 44.4252C123.204 44.4986 122.233 44.4619 121.269 44.4785C120.819 44.4886 120.368 44.5086 119.918 44.5252C119.668 44.5352 119.421 44.5619 119.174 44.5619C119.111 44.5653 119.047 44.5086 118.987 44.4785C119.017 44.4118 119.034 44.3251 119.087 44.2918C119.187 44.2218 119.318 44.1917 119.421 44.125C120.041 43.7415 120.652 43.348 121.272 42.9611C121.999 42.5109 122.727 42.064 123.46 41.6238C123.567 41.5571 123.694 41.5371 123.811 41.4937C123.914 41.4537 124.018 41.4137 124.114 41.307C124.024 41.2903 123.934 41.267 123.844 41.2603C123.284 41.2169 122.72 41.1903 122.16 41.1369C121.626 41.0835 121.085 41.0369 120.558 40.9235C119.971 40.7967 119.401 40.5966 118.824 40.4232C118.497 40.3265 118.173 40.2298 117.857 40.1097C116.849 39.7262 115.842 39.3494 114.844 38.9425C114.417 38.7691 114.014 38.5356 113.6 38.3289C113.577 38.3189 113.547 38.3122 113.533 38.2922C113.3 37.9653 112.916 37.8419 112.61 37.6185C112.543 37.5718 112.509 37.4818 112.443 37.3851C112.536 37.3584 112.603 37.315 112.663 37.325C113.423 37.4317 114.191 37.4117 114.951 37.3884C116.089 37.3517 117.233 37.2883 118.364 37.1483C119.134 37.0516 119.905 37.0282 120.679 36.9915C121.239 36.9615 121.806 36.9915 122.37 36.9949C122.5 36.9982 122.63 36.9915 122.763 36.9515C122.086 36.7347 121.469 36.3879 120.755 36.2778C120.338 36.2178 119.921 36.0677 119.544 35.8777C118.404 35.3007 117.219 34.8171 116.075 34.2535C115.181 33.8133 114.351 33.2297 113.51 32.6861C113.09 32.4159 112.7 32.0958 112.313 31.7823C111.952 31.4888 111.622 31.1687 111.265 30.8752C110.812 30.4983 110.348 30.1382 109.891 29.7713C109.844 29.7313 109.811 29.6746 109.764 29.6146C109.881 29.4478 110.061 29.4545 110.204 29.4645C110.755 29.5078 111.309 29.5445 111.852 29.6446C112.923 29.838 113.987 30.0815 115.058 30.2782C116.042 30.4617 117.036 30.5984 118.023 30.7818C118.59 30.8885 119.147 31.0453 119.708 31.1787C119.788 31.1953 119.875 31.1987 120.035 31.2154Z" fill="white"/>
</g>
<mask id="mask1_13_5691" style="mask-type:luminance" maskUnits="userSpaceOnUse" x="0" y="64" width="269" height="57">
<path d="M269 64H0V120.29H269V64Z" fill="white"/>
</mask>
<g mask="url(#mask1_13_5691)">
<mask id="mask2_13_5691" style="mask-type:luminance" maskUnits="userSpaceOnUse" x="0" y="79" width="26" height="27">
<path d="M0.240967 79.1892H25.917V105.994H0.240967V79.1892Z" fill="white"/>
</mask>
<g mask="url(#mask2_13_5691)">
<path d="M0.734863 105.598V105.193L1.7263 104.844C2.25693 104.631 2.66537 104.37 2.95512 104.062C3.25185 103.755 3.49273 103.329 3.68124 102.778L11.878 79.2539H15.2573L23.3424 102.932C23.5553 103.518 23.7927 103.965 24.0545 104.272C24.3233 104.572 24.7388 104.827 25.2973 105.04L25.7721 105.193V105.598H15.6622V105.193L16.2627 104.998C16.8212 104.785 17.1564 104.488 17.2681 104.104C17.3868 103.724 17.3693 103.267 17.2122 102.736L15.3411 96.9982H6.50194L4.58889 102.61C4.40038 103.197 4.34103 103.664 4.40736 104.007C4.48067 104.352 4.79835 104.631 5.3569 104.844L6.22266 105.193V105.598H0.734863ZM6.78122 96.2024H15.1037L11.0821 83.8331L6.78122 96.2024Z" fill="white"/>
</g>
<path d="M32.809 106.198C31.5138 106.198 30.3443 106.045 29.304 105.738C28.2707 105.431 27.3142 105.054 26.4414 104.607L26.4833 99.8602H26.8743L28.2288 102.261C28.8153 103.322 29.4576 104.115 30.1558 104.635C30.861 105.148 31.7617 105.403 32.8509 105.403C34.1251 105.403 35.1549 105.12 35.9369 104.551C36.7189 103.975 37.1098 103.211 37.1098 102.261C37.1098 101.378 36.8306 100.663 36.272 100.111C35.7135 99.553 34.6801 99.047 33.172 98.5897L31.4964 98.0732C29.8766 97.5985 28.5989 96.8586 27.6703 95.8534C26.7486 94.8412 26.2878 93.6022 26.2878 92.1398C26.2878 90.3912 26.9756 88.9079 28.3545 87.6863C29.7299 86.4682 31.7093 85.8574 34.2891 85.8574C35.3225 85.8574 36.293 85.9691 37.2076 86.1925C38.1292 86.4159 39.0124 86.7579 39.8607 87.2116L39.6233 91.5116H39.2184L37.822 89.0405C37.3193 88.1679 36.8201 87.5537 36.3279 87.1977C35.8426 86.8347 35.106 86.6532 34.1216 86.6532C33.2174 86.6532 32.3656 86.9045 31.5662 87.4071C30.7737 87.9097 30.3793 88.6287 30.3793 89.5571C30.3793 90.461 30.7179 91.1765 31.3986 91.707C32.0759 92.2375 33.0778 92.7262 34.4009 93.1729L36.2022 93.7034C38.1083 94.2828 39.4732 95.0821 40.2936 96.1047C41.121 97.1308 41.5364 98.3594 41.5364 99.7904C41.5364 101.727 40.7719 103.281 39.2463 104.453C37.7173 105.616 35.5738 106.198 32.809 106.198Z" fill="white"/>
<path d="M51.9957 106.198C50.1874 106.198 48.5501 105.808 47.0804 105.026C45.6072 104.244 44.4413 103.106 43.5755 101.605C42.7097 100.098 42.2769 98.2617 42.2769 96.0907C42.2769 93.9408 42.7446 92.1049 43.6872 90.5762C44.6367 89.051 45.897 87.8817 47.4714 87.072C49.0528 86.2623 50.7878 85.8574 52.6799 85.8574C54.216 85.8574 55.5146 86.1087 56.5759 86.6113C57.6371 87.1139 58.447 87.7701 59.0056 88.5798C59.5641 89.3895 59.8434 90.2342 59.8434 91.1067C59.8434 91.8536 59.613 92.4295 59.1592 92.8379C58.7123 93.2497 58.1293 93.4521 57.4137 93.4521C56.6387 93.4521 56.0103 93.1799 55.5286 92.6284C55.0538 92.07 54.778 91.3406 54.7047 90.4366C54.6768 89.8502 54.6838 89.3546 54.7326 88.9428C54.7885 88.5344 54.792 88.1156 54.7466 87.6863C54.6349 87.2395 54.4673 86.9429 54.2439 86.7928C54.0205 86.6462 53.7063 86.5694 53.3083 86.5694C51.6885 86.5694 50.4318 87.2745 49.5381 88.6775C48.6514 90.0841 48.2115 92.3283 48.2115 95.4067C48.2115 98.0871 48.7072 100.139 49.7056 101.563C50.7006 102.98 52.2331 103.685 54.2997 103.685C55.546 103.685 56.5549 103.462 57.3299 103.015C58.1014 102.562 58.845 101.881 59.5641 100.977L59.9551 101.298C59.2918 102.862 58.269 104.073 56.8831 104.928C55.5041 105.773 53.8738 106.198 51.9957 106.198Z" fill="white"/>
<path d="M70.389 85.8574C72.11 85.8574 73.5797 86.2134 74.8015 86.9184C76.0199 87.6165 76.9555 88.5728 77.6083 89.7804C78.2576 90.9811 78.5858 92.3562 78.5858 93.8989C78.5858 94.1886 78.5718 94.4852 78.5439 94.7924C78.5159 95.0995 78.4636 95.3718 78.3903 95.6021H66.521C66.5489 98.4711 67.0586 100.537 68.057 101.801C69.0519 103.057 70.5321 103.685 72.4975 103.685C73.8171 103.685 74.8888 103.476 75.7092 103.057C76.5366 102.631 77.3081 102.007 78.0272 101.186L78.4321 101.535C77.6013 102.998 76.5051 104.143 75.1367 104.97C73.7682 105.787 72.1275 106.198 70.2214 106.198C68.3398 106.198 66.6676 105.794 65.2084 104.984C63.7457 104.174 62.6006 103.015 61.7733 101.508C60.9529 99.9928 60.5444 98.1849 60.5444 96.0907C60.5444 93.9128 61.0227 92.063 61.9827 90.5343C62.9392 89.0091 64.1681 87.8503 65.6692 87.0581C67.1668 86.2588 68.7412 85.8574 70.389 85.8574ZM70.2633 86.6532C69.4883 86.6532 68.8285 86.887 68.2804 87.3512C67.7393 87.8189 67.3169 88.6426 67.0097 89.8223C66.7095 90.995 66.5489 92.6564 66.521 94.8063H73.3353C73.5937 91.9234 73.482 89.8433 73.0002 88.5658C72.5254 87.2919 71.6108 86.6532 70.2633 86.6532Z" fill="white"/>
<path d="M79.4148 105.598V105.193L79.9733 105.04C80.9019 104.781 81.3697 104.129 81.3697 103.085V90.632C81.3697 90.0457 81.2755 89.6129 81.0905 89.3337C80.9019 89.0545 80.5459 88.866 80.0152 88.7613L79.4148 88.6077V88.2028L86.2292 85.8993L86.6202 86.2902L86.9413 88.6775C87.8699 87.8608 88.9172 87.1837 90.0832 86.6532C91.2562 86.1227 92.4082 85.8574 93.5462 85.8574C95.2952 85.8574 96.6392 86.3391 97.5818 87.2954C98.5313 88.2447 99.0061 89.7036 99.0061 91.6651V103.127C99.0061 104.16 99.5088 104.813 100.514 105.082L100.877 105.193V105.598H91.4796V105.193L91.9962 105.04C92.9248 104.753 93.3926 104.101 93.3926 103.085V90.3947C93.3926 88.6915 92.5408 87.8399 90.8372 87.8399C89.6713 87.8399 88.4005 88.4262 87.0251 89.5989V103.127C87.0251 104.16 87.4859 104.813 88.4075 105.082L88.7706 105.193V105.598H79.4148Z" fill="white"/>
<path d="M109.699 106.199C108.135 106.199 106.728 105.85 105.481 105.151C104.232 104.446 103.24 103.358 102.507 101.885C101.781 100.405 101.418 98.5131 101.418 96.2026C101.418 93.8676 101.826 91.9375 102.647 90.4088C103.474 88.8836 104.563 87.7423 105.914 86.9884C107.272 86.2345 108.749 85.8575 110.341 85.8575C111.269 85.8575 112.16 85.9518 113.008 86.1368C113.853 86.3252 114.614 86.6045 115.284 86.9744V81.7949C115.284 81.2365 115.193 80.8281 115.019 80.5664C114.851 80.2976 114.488 80.1126 113.93 80.0079L113.162 79.8404V79.4495L120.409 77.6904L120.856 78.0534L120.688 83.6238V103.085C120.688 103.616 120.779 104.049 120.967 104.384C121.152 104.719 121.498 104.953 122.001 105.082L122.364 105.193V105.598L115.563 106.031L115.2 104.607C114.481 105.082 113.664 105.466 112.743 105.752C111.828 106.048 110.816 106.199 109.699 106.199ZM112.017 104.719C113.134 104.719 114.153 104.391 115.075 103.727V87.9238C114.097 87.292 113.092 86.9744 112.058 86.9744C110.781 86.9744 109.692 87.7108 108.791 89.1802C107.887 90.6531 107.436 92.9636 107.436 96.1188C107.436 99.2844 107.859 101.508 108.707 102.792C109.552 104.076 110.655 104.719 112.017 104.719Z" fill="white"/>
<path d="M133.023 106.198C131.012 106.198 129.26 105.78 127.773 104.942C126.282 104.104 125.133 102.918 124.323 101.382C123.514 99.8392 123.109 98.0313 123.109 95.9651C123.109 93.8989 123.542 92.1119 124.407 90.6041C125.273 89.0894 126.453 87.9201 127.954 87.0999C129.452 86.2728 131.141 85.8574 133.023 85.8574C134.912 85.8574 136.598 86.2623 138.078 87.072C139.565 87.8817 140.738 89.0475 141.597 90.5622C142.463 92.07 142.895 93.871 142.895 95.9651C142.895 98.0592 142.49 99.8707 141.681 101.396C140.871 102.925 139.729 104.104 138.259 104.942C136.786 105.78 135.041 106.198 133.023 106.198ZM133.023 105.403C133.952 105.403 134.699 105.137 135.257 104.607C135.816 104.076 136.221 103.137 136.472 101.787C136.723 100.429 136.849 98.5164 136.849 96.0489C136.849 93.5568 136.723 91.6337 136.472 90.283C136.221 88.9253 135.816 87.9795 135.257 87.449C134.699 86.9184 133.952 86.6532 133.023 86.6532C132.101 86.6532 131.351 86.9184 130.775 87.449C130.206 87.9795 129.797 88.9253 129.546 90.283C129.295 91.6337 129.169 93.5568 129.169 96.0489C129.169 98.5164 129.295 100.429 129.546 101.787C129.797 103.137 130.206 104.076 130.775 104.607C131.351 105.137 132.101 105.403 133.023 105.403Z" fill="white"/>
<path d="M164.782 106.31C162.212 106.31 159.884 105.787 157.8 104.747C155.712 103.696 154.061 102.136 152.842 100.07C151.621 97.9965 151.013 95.4591 151.013 92.461C151.013 90.1819 151.383 88.182 152.13 86.4578C152.874 84.7267 153.89 83.2817 155.174 82.116C156.459 80.9433 157.943 80.0707 159.629 79.4914C161.312 78.905 163.099 78.6118 164.991 78.6118C166.499 78.6118 167.889 78.7863 169.166 79.1284C170.44 79.4739 171.638 79.9521 172.755 80.5663L172.909 85.4526H172.518L170.521 82.2696C170.248 81.767 169.955 81.3132 169.641 80.9014C169.323 80.493 168.929 80.1824 168.454 79.966C168.053 79.781 167.658 79.6414 167.267 79.5472C166.883 79.4564 166.405 79.4076 165.829 79.4076C164.282 79.4076 162.875 79.8229 161.612 80.6501C160.355 81.4703 159.35 82.828 158.596 84.7267C157.842 86.6184 157.464 89.2081 157.464 92.5029C157.464 95.7697 157.821 98.3525 158.54 100.251C159.255 102.143 160.229 103.49 161.458 104.3C162.694 105.11 164.083 105.514 165.619 105.514C166.475 105.514 167.155 105.459 167.658 105.347C168.161 105.228 168.664 105.047 169.166 104.802C169.669 104.59 170.049 104.279 170.311 103.867C170.58 103.459 170.821 103.012 171.037 102.527L172.797 98.6317H173.188L173.062 104.328C171.952 104.907 170.706 105.382 169.32 105.752C167.941 106.122 166.429 106.31 164.782 106.31Z" fill="white"/>
<path d="M179.667 106.198C178.131 106.198 176.836 105.759 175.785 104.886C174.741 104.014 174.221 102.75 174.221 101.103C174.221 99.8567 174.853 98.7119 176.12 97.6683C177.394 96.6178 179.402 95.8255 182.138 95.295C182.564 95.2112 183.046 95.124 183.577 95.0297C184.107 94.939 184.659 94.8412 185.238 94.7365V91.5814C185.238 89.7874 185.019 88.5239 184.582 87.798C184.142 87.065 183.465 86.6951 182.543 86.6951C181.901 86.6951 181.391 86.901 181.021 87.3094C180.648 87.7212 180.41 88.4262 180.309 89.4314L180.225 89.8782C180.17 91.016 179.89 91.8466 179.388 92.3772C178.885 92.9077 178.26 93.1729 177.516 93.1729C176.825 93.1729 176.253 92.9635 175.799 92.5447C175.352 92.1189 175.129 91.5465 175.129 90.8275C175.129 89.7385 175.506 88.8276 176.26 88.0912C177.021 87.3477 178.026 86.7893 179.276 86.4159C180.522 86.0459 181.877 85.8574 183.339 85.8574C185.692 85.8574 187.515 86.4368 188.799 87.5886C190.091 88.7438 190.74 90.6181 190.74 93.2148V102.01C190.74 103.211 191.299 103.811 192.416 103.811H193.282L193.645 104.132C193.142 104.767 192.59 105.256 191.997 105.598C191.4 105.94 190.559 106.115 189.469 106.115C188.297 106.115 187.368 105.842 186.691 105.305C186.02 104.757 185.577 104.031 185.364 103.127C184.561 103.975 183.744 104.701 182.906 105.305C182.076 105.898 180.997 106.198 179.667 106.198ZM182.097 103.769C182.627 103.769 183.123 103.644 183.591 103.392C184.055 103.141 184.603 102.75 185.238 102.22V95.5323C184.977 95.5812 184.711 95.63 184.443 95.6859C184.181 95.7417 183.877 95.7976 183.535 95.8534C182.313 96.171 181.336 96.705 180.602 97.4589C179.876 98.2128 179.513 99.2285 179.513 100.502C179.513 101.591 179.765 102.412 180.267 102.959C180.77 103.5 181.377 103.769 182.097 103.769Z" fill="white"/>
<path d="M192.523 114.756V114.352L192.998 114.198C193.983 113.926 194.478 113.291 194.478 112.285V90.632C194.478 90.0457 194.374 89.6094 194.171 89.3197C193.976 89.0335 193.613 88.8311 193.082 88.7194L192.523 88.6077V88.2028L199.296 85.8993L199.687 86.2902L200.05 87.5327C200.923 87.0022 201.897 86.5939 202.968 86.3042C204.047 86.0075 205.154 85.8574 206.292 85.8574C208.582 85.8574 210.397 86.73 211.738 88.4681C213.078 90.1993 213.749 92.6843 213.749 95.9232C213.749 99.1063 213.008 101.616 211.528 103.448C210.055 105.284 207.981 106.198 205.3 106.198C203.206 106.198 201.439 105.891 200.008 105.277V112.16C200.008 113.221 200.486 113.884 201.446 114.156L202.2 114.352V114.756H192.523ZM203.387 105.04C204.717 105.04 205.775 104.352 206.557 102.973C207.339 101.598 207.73 99.3017 207.73 96.0907C207.73 92.8797 207.357 90.632 206.613 89.3476C205.866 88.0563 204.791 87.4071 203.387 87.4071C202.41 87.4071 201.324 87.7282 200.134 88.3704V104.397C201.139 104.827 202.221 105.04 203.387 105.04Z" fill="white"/>
<path d="M219.149 83.7912C218.245 83.7912 217.48 83.5085 216.859 82.9396C216.234 82.3637 215.923 81.6377 215.923 80.7617C215.923 79.8612 216.234 79.1283 216.859 78.5698C217.48 78.0114 218.245 77.7322 219.149 77.7322C220.05 77.7322 220.804 78.0114 221.411 78.5698C222.025 79.1283 222.333 79.8612 222.333 80.7617C222.333 81.6377 222.025 82.3637 221.411 82.9396C220.804 83.5085 220.05 83.7912 219.149 83.7912ZM214.457 105.598V105.193L215.016 105.04C215.546 104.883 215.909 104.645 216.105 104.328C216.3 104.014 216.398 103.588 216.398 103.057V90.5901C216.398 90.0317 216.3 89.6129 216.105 89.3337C215.909 89.0544 215.546 88.866 215.016 88.7613L214.457 88.6356V88.2447L221.732 85.8993L222.137 86.2902L222.011 91.9444V103.085C222.011 103.616 222.109 104.045 222.305 104.37C222.507 104.687 222.863 104.924 223.366 105.082L223.771 105.193V105.598H214.457Z" fill="white"/>
<path d="M231.931 106.199C230.228 106.199 228.905 105.773 227.965 104.928C227.023 104.073 226.555 102.719 226.555 100.865V87.2536H223.804V86.8487L224.768 86.6952C225.585 86.5102 226.293 86.2449 226.89 85.8994C227.484 85.5574 228.077 85.0897 228.664 84.5033L231.931 80.8875H232.322L232.21 86.4578H236.665V87.2536H232.169V101.577C232.169 102.509 232.371 103.211 232.783 103.686C233.191 104.16 233.719 104.398 234.361 104.398C234.909 104.398 235.398 104.265 235.827 103.993C236.253 103.713 236.679 103.333 237.098 102.848L237.503 103.253C236.972 104.157 236.239 104.872 235.31 105.403C234.378 105.933 233.251 106.199 231.931 106.199Z" fill="white"/>
<path d="M243.385 106.198C241.849 106.198 240.554 105.759 239.503 104.886C238.459 104.014 237.939 102.75 237.939 101.103C237.939 99.8567 238.571 98.7119 239.838 97.6683C241.112 96.6178 243.12 95.8255 245.856 95.295C246.282 95.2112 246.764 95.124 247.295 95.0297C247.825 94.939 248.377 94.8412 248.956 94.7365V91.5814C248.956 89.7874 248.737 88.5239 248.3 87.798C247.86 87.065 247.183 86.6951 246.261 86.6951C245.619 86.6951 245.109 86.901 244.739 87.3094C244.366 87.7212 244.128 88.4262 244.027 89.4314L243.943 89.8782C243.888 91.016 243.608 91.8466 243.106 92.3772C242.603 92.9077 241.978 93.1729 241.234 93.1729C240.543 93.1729 239.971 92.9635 239.517 92.5447C239.07 92.1189 238.847 91.5465 238.847 90.8275C238.847 89.7385 239.224 88.8276 239.978 88.0912C240.739 87.3477 241.744 86.7893 242.994 86.4159C244.24 86.0459 245.595 85.8574 247.057 85.8574C249.41 85.8574 251.233 86.4368 252.517 87.5886C253.809 88.7438 254.458 90.6181 254.458 93.2148V102.01C254.458 103.211 255.017 103.811 256.134 103.811H257L257.363 104.132C256.86 104.767 256.308 105.256 255.715 105.598C255.118 105.94 254.277 106.115 253.188 106.115C252.015 106.115 251.086 105.842 250.409 105.305C249.738 104.757 249.295 104.031 249.082 103.127C248.279 103.975 247.462 104.701 246.624 105.305C245.794 105.898 244.715 106.198 243.385 106.198ZM245.815 103.769C246.345 103.769 246.841 103.644 247.309 103.392C247.773 103.141 248.321 102.75 248.956 102.22V95.5323C248.695 95.5812 248.429 95.63 248.161 95.6859C247.899 95.7417 247.595 95.7976 247.253 95.8534C246.031 96.171 245.054 96.705 244.32 97.4589C243.594 98.2128 243.231 99.2285 243.231 100.502C243.231 101.591 243.483 102.412 243.985 102.959C244.488 103.5 245.095 103.769 245.815 103.769Z" fill="white"/>
<path d="M257.163 105.598V105.193L257.638 105.04C258.588 104.726 259.062 104.063 259.062 103.057V81.753C259.062 81.2225 258.954 80.8177 258.741 80.5384C258.535 80.2592 258.169 80.0568 257.638 79.9242L257.121 79.8125V79.4076L264.397 77.6904L264.885 78.0534L264.718 83.6238V97.2357C264.718 98.2234 264.721 99.2007 264.732 100.167C264.749 101.138 264.76 102.101 264.76 103.057C264.76 103.588 264.864 104.021 265.081 104.356C265.294 104.684 265.653 104.925 266.156 105.082L266.673 105.193V105.598H257.163Z" fill="white"/>
</g>
<path d="M24.4107 130.13H25.8307L30.3907 142.55L34.9907 130.13H36.3907L31.0107 144.29H29.6907L24.4107 130.13ZM44.9924 142.55C44.5258 143.257 43.9458 143.764 43.2524 144.07C42.5724 144.377 41.8191 144.53 40.9924 144.53C40.2858 144.53 39.6458 144.41 39.0724 144.17C38.4991 143.93 38.0058 143.597 37.5924 143.17C37.1791 142.73 36.8591 142.217 36.6324 141.63C36.4191 141.03 36.3124 140.37 36.3124 139.65C36.3124 138.957 36.4258 138.317 36.6524 137.73C36.8791 137.144 37.1991 136.637 37.6124 136.21C38.0258 135.77 38.5124 135.43 39.0724 135.19C39.6324 134.937 40.2524 134.81 40.9324 134.81C41.6391 134.81 42.2591 134.937 42.7924 135.19C43.3391 135.43 43.7924 135.757 44.1524 136.17C44.5258 136.57 44.8058 137.03 44.9924 137.55C45.1791 138.07 45.2724 138.597 45.2724 139.13V139.97H37.5124C37.5124 140.224 37.5591 140.55 37.6524 140.95C37.7591 141.337 37.9458 141.717 38.2124 142.09C38.4791 142.464 38.8324 142.784 39.2724 143.05C39.7258 143.317 40.3058 143.45 41.0124 143.45C41.6258 143.45 42.2191 143.304 42.7924 143.01C43.3658 142.717 43.8058 142.317 44.1124 141.81L44.9924 142.55ZM44.0724 138.89C44.0724 138.477 43.9858 138.09 43.8124 137.73C43.6524 137.37 43.4258 137.057 43.1324 136.79C42.8524 136.51 42.5124 136.29 42.1124 136.13C41.7258 135.97 41.3124 135.89 40.8724 135.89C40.2191 135.89 39.6724 136.024 39.2324 136.29C38.8058 136.557 38.4658 136.864 38.2124 137.21C37.9591 137.557 37.7791 137.897 37.6724 138.23C37.5658 138.55 37.5124 138.77 37.5124 138.89H44.0724ZM47.9457 137.65C47.9457 137.477 47.939 137.27 47.9257 137.03C47.9124 136.777 47.899 136.524 47.8857 136.27C47.8857 136.017 47.879 135.784 47.8657 135.57C47.8524 135.344 47.8457 135.17 47.8457 135.05H49.0457C49.059 135.397 49.0657 135.73 49.0657 136.05C49.079 136.37 49.099 136.577 49.1257 136.67H49.1857C49.4257 136.164 49.8257 135.73 50.3857 135.37C50.9457 134.997 51.599 134.81 52.3457 134.81C53.0657 134.81 53.6524 134.924 54.1057 135.15C54.559 135.377 54.9124 135.677 55.1657 136.05C55.4324 136.41 55.6124 136.83 55.7057 137.31C55.8124 137.79 55.8657 138.284 55.8657 138.79V144.29H54.6657V138.85C54.6657 138.477 54.6324 138.117 54.5657 137.77C54.499 137.41 54.379 137.09 54.2057 136.81C54.0457 136.53 53.8124 136.31 53.5057 136.15C53.2124 135.977 52.8257 135.89 52.3457 135.89C51.9057 135.89 51.4857 135.97 51.0857 136.13C50.699 136.277 50.359 136.51 50.0657 136.83C49.7857 137.137 49.559 137.53 49.3857 138.01C49.2257 138.477 49.1457 139.03 49.1457 139.67V144.29H47.9457V137.65ZM63.579 136.13H60.939V142.15C60.939 142.564 61.0523 142.884 61.279 143.11C61.5057 143.337 61.819 143.45 62.219 143.45C62.4457 143.45 62.6723 143.424 62.899 143.37C63.139 143.304 63.3657 143.224 63.579 143.13L63.679 144.21C63.4523 144.29 63.1923 144.364 62.899 144.43C62.6057 144.497 62.3457 144.53 62.119 144.53C61.6923 144.53 61.3257 144.464 61.019 144.33C60.7123 144.21 60.4657 144.044 60.279 143.83C60.0923 143.617 59.9523 143.37 59.859 143.09C59.779 142.797 59.739 142.484 59.739 142.15V136.13H57.739V135.05H59.739V132.39H60.939V135.05H63.579V136.13ZM73.5391 141.69C73.5391 141.864 73.5458 142.077 73.5591 142.33C73.5725 142.57 73.5791 142.817 73.5791 143.07C73.5925 143.324 73.6058 143.564 73.6191 143.79C73.6325 144.004 73.6391 144.17 73.6391 144.29H72.4391C72.4258 143.944 72.4125 143.61 72.3991 143.29C72.3991 142.97 72.3858 142.764 72.3591 142.67H72.2991C72.0591 143.177 71.6591 143.617 71.0991 143.99C70.5391 144.35 69.8858 144.53 69.1391 144.53C68.4191 144.53 67.8258 144.417 67.3591 144.19C66.9058 143.964 66.5458 143.67 66.2791 143.31C66.0258 142.937 65.8525 142.51 65.7591 142.03C65.6658 141.55 65.6191 141.057 65.6191 140.55V135.05H66.8191V140.49C66.8191 140.864 66.8525 141.23 66.9191 141.59C66.9858 141.937 67.0991 142.25 67.2591 142.53C67.4325 142.81 67.6658 143.037 67.9591 143.21C68.2658 143.37 68.6591 143.45 69.1391 143.45C69.5791 143.45 69.9925 143.377 70.3791 143.23C70.7791 143.07 71.1191 142.837 71.3991 142.53C71.6925 142.21 71.9191 141.817 72.0791 141.35C72.2525 140.87 72.3391 140.31 72.3391 139.67V135.05H73.5391V141.69ZM76.8324 137.65C76.8324 137.477 76.8258 137.27 76.8124 137.03C76.7991 136.777 76.7858 136.524 76.7724 136.27C76.7724 136.017 76.7658 135.784 76.7524 135.57C76.7391 135.344 76.7324 135.17 76.7324 135.05H77.9324C77.9458 135.397 77.9524 135.73 77.9524 136.05C77.9658 136.37 77.9858 136.577 78.0124 136.67C78.3191 136.124 78.7124 135.677 79.1924 135.33C79.6724 134.984 80.2591 134.81 80.9524 134.81C81.0724 134.81 81.1858 134.824 81.2924 134.85C81.4124 134.864 81.5324 134.884 81.6524 134.91L81.5124 136.09C81.3524 136.037 81.1991 136.01 81.0524 136.01C80.5324 136.01 80.0791 136.097 79.6924 136.27C79.3191 136.43 79.0058 136.657 78.7524 136.95C78.5124 137.244 78.3324 137.59 78.2124 137.99C78.0924 138.377 78.0324 138.797 78.0324 139.25V144.29H76.8324V137.65ZM91.301 142.55C90.8343 143.257 90.2543 143.764 89.561 144.07C88.881 144.377 88.1277 144.53 87.301 144.53C86.5943 144.53 85.9543 144.41 85.381 144.17C84.8077 143.93 84.3143 143.597 83.901 143.17C83.4877 142.73 83.1677 142.217 82.941 141.63C82.7277 141.03 82.621 140.37 82.621 139.65C82.621 138.957 82.7343 138.317 82.961 137.73C83.1877 137.144 83.5077 136.637 83.921 136.21C84.3343 135.77 84.821 135.43 85.381 135.19C85.941 134.937 86.561 134.81 87.241 134.81C87.9477 134.81 88.5677 134.937 89.101 135.19C89.6477 135.43 90.101 135.757 90.461 136.17C90.8343 136.57 91.1143 137.03 91.301 137.55C91.4877 138.07 91.581 138.597 91.581 139.13V139.97H83.821C83.821 140.224 83.8677 140.55 83.961 140.95C84.0677 141.337 84.2543 141.717 84.521 142.09C84.7877 142.464 85.141 142.784 85.581 143.05C86.0343 143.317 86.6143 143.45 87.321 143.45C87.9343 143.45 88.5277 143.304 89.101 143.01C89.6743 142.717 90.1143 142.317 90.421 141.81L91.301 142.55ZM90.381 138.89C90.381 138.477 90.2943 138.09 90.121 137.73C89.961 137.37 89.7343 137.057 89.441 136.79C89.161 136.51 88.821 136.29 88.421 136.13C88.0343 135.97 87.621 135.89 87.181 135.89C86.5277 135.89 85.981 136.024 85.541 136.29C85.1143 136.557 84.7743 136.864 84.521 137.21C84.2677 137.557 84.0877 137.897 83.981 138.23C83.8743 138.55 83.821 138.77 83.821 138.89H90.381ZM94.2743 141.93C94.5276 142.424 94.901 142.804 95.3943 143.07C95.8876 143.324 96.4076 143.45 96.9543 143.45C97.2076 143.45 97.461 143.41 97.7143 143.33C97.9676 143.25 98.1943 143.137 98.3943 142.99C98.5943 142.844 98.7543 142.67 98.8743 142.47C99.0076 142.257 99.0743 142.017 99.0743 141.75C99.0743 141.324 98.9343 141.004 98.6543 140.79C98.3876 140.577 98.0543 140.41 97.6543 140.29C97.2543 140.17 96.8143 140.07 96.3343 139.99C95.8543 139.897 95.4143 139.764 95.0143 139.59C94.6143 139.404 94.2743 139.15 93.9943 138.83C93.7276 138.51 93.5943 138.057 93.5943 137.47C93.5943 137.017 93.6876 136.624 93.8743 136.29C94.061 135.957 94.301 135.684 94.5943 135.47C94.901 135.244 95.241 135.077 95.6143 134.97C95.9876 134.864 96.3676 134.81 96.7543 134.81C97.5143 134.81 98.1676 134.95 98.7143 135.23C99.2743 135.51 99.7076 135.95 100.014 136.55L98.9343 137.19C98.7076 136.764 98.421 136.444 98.0743 136.23C97.741 136.004 97.301 135.89 96.7543 135.89C96.541 135.89 96.3143 135.924 96.0743 135.99C95.8476 136.057 95.641 136.15 95.4543 136.27C95.2676 136.39 95.1076 136.544 94.9743 136.73C94.8543 136.917 94.7943 137.13 94.7943 137.37C94.7943 137.784 94.9276 138.09 95.1943 138.29C95.4743 138.49 95.8143 138.65 96.2143 138.77C96.6143 138.877 97.0543 138.97 97.5343 139.05C98.0143 139.13 98.4543 139.264 98.8543 139.45C99.2543 139.624 99.5876 139.884 99.8543 140.23C100.134 140.564 100.274 141.044 100.274 141.67C100.274 142.15 100.181 142.57 99.9943 142.93C99.821 143.277 99.5743 143.57 99.2543 143.81C98.9476 144.05 98.5943 144.23 98.1943 144.35C97.7943 144.47 97.3743 144.53 96.9343 144.53C96.1343 144.53 95.401 144.377 94.7343 144.07C94.081 143.764 93.5743 143.29 93.2143 142.65L94.2743 141.93ZM116.105 140.17L118.145 136.49H119.505L116.945 141.01L120.165 144.39H118.385L116.265 142.11C115.692 142.884 115.059 143.504 114.365 143.97C113.685 144.424 112.852 144.65 111.865 144.65C111.265 144.65 110.699 144.55 110.165 144.35C109.645 144.164 109.192 143.89 108.805 143.53C108.419 143.17 108.112 142.737 107.885 142.23C107.659 141.724 107.545 141.157 107.545 140.53C107.545 139.984 107.639 139.504 107.825 139.09C108.012 138.677 108.252 138.31 108.545 137.99C108.852 137.67 109.199 137.384 109.585 137.13C109.972 136.864 110.372 136.604 110.785 136.35C110.585 136.11 110.379 135.864 110.165 135.61C109.965 135.344 109.785 135.07 109.625 134.79C109.465 134.51 109.332 134.224 109.225 133.93C109.119 133.624 109.065 133.31 109.065 132.99C109.065 132.484 109.159 132.03 109.345 131.63C109.545 131.23 109.805 130.897 110.125 130.63C110.459 130.35 110.839 130.137 111.265 129.99C111.705 129.844 112.159 129.77 112.625 129.77C113.039 129.77 113.439 129.844 113.825 129.99C114.212 130.137 114.552 130.344 114.845 130.61C115.152 130.864 115.392 131.177 115.565 131.55C115.739 131.91 115.825 132.317 115.825 132.77C115.825 133.277 115.732 133.717 115.545 134.09C115.372 134.464 115.132 134.797 114.825 135.09C114.532 135.384 114.199 135.644 113.825 135.87C113.452 136.097 113.065 136.317 112.665 136.53L116.105 140.17ZM112.525 130.97C111.925 130.97 111.419 131.157 111.005 131.53C110.592 131.89 110.385 132.37 110.385 132.97C110.385 133.21 110.432 133.457 110.525 133.71C110.632 133.964 110.759 134.21 110.905 134.45C111.065 134.69 111.232 134.917 111.405 135.13C111.592 135.344 111.759 135.537 111.905 135.71C112.185 135.564 112.479 135.404 112.785 135.23C113.092 135.057 113.372 134.857 113.625 134.63C113.879 134.404 114.085 134.15 114.245 133.87C114.419 133.577 114.505 133.244 114.505 132.87C114.505 132.31 114.319 131.857 113.945 131.51C113.572 131.15 113.099 130.97 112.525 130.97ZM111.545 137.19C111.225 137.377 110.905 137.577 110.585 137.79C110.279 138.004 109.992 138.244 109.725 138.51C109.472 138.764 109.265 139.057 109.105 139.39C108.945 139.71 108.865 140.077 108.865 140.49C108.865 140.944 108.945 141.35 109.105 141.71C109.279 142.07 109.505 142.384 109.785 142.65C110.079 142.904 110.419 143.104 110.805 143.25C111.205 143.384 111.625 143.45 112.065 143.45C112.439 143.45 112.785 143.39 113.105 143.27C113.439 143.15 113.745 142.99 114.025 142.79C114.305 142.59 114.565 142.364 114.805 142.11C115.045 141.844 115.265 141.564 115.465 141.27L111.545 137.19ZM127.443 130.13H129.423L134.583 142.01L139.743 130.13H141.623V144.29H140.303V131.81H140.263L134.863 144.29H134.283L128.803 131.81H128.763V144.29H127.443V130.13ZM152.196 140.41C152.196 140.864 152.196 141.27 152.196 141.63C152.209 141.99 152.223 142.324 152.236 142.63C152.249 142.937 152.263 143.224 152.276 143.49C152.303 143.757 152.336 144.024 152.376 144.29H151.256C151.176 143.837 151.136 143.337 151.136 142.79H151.096C150.749 143.39 150.316 143.83 149.796 144.11C149.289 144.39 148.643 144.53 147.856 144.53C147.456 144.53 147.063 144.477 146.676 144.37C146.289 144.277 145.943 144.124 145.636 143.91C145.329 143.684 145.076 143.397 144.876 143.05C144.689 142.704 144.596 142.284 144.596 141.79C144.596 141.084 144.776 140.524 145.136 140.11C145.496 139.697 145.936 139.39 146.456 139.19C146.989 138.977 147.549 138.844 148.136 138.79C148.736 138.724 149.263 138.69 149.716 138.69H151.116V138.13C151.116 137.33 150.869 136.757 150.376 136.41C149.883 136.064 149.263 135.89 148.516 135.89C147.449 135.89 146.509 136.237 145.696 136.93L144.996 136.11C145.436 135.684 145.983 135.364 146.636 135.15C147.289 134.924 147.916 134.81 148.516 134.81C149.636 134.81 150.529 135.077 151.196 135.61C151.863 136.13 152.196 136.977 152.196 138.15V140.41ZM149.796 139.65C149.289 139.65 148.796 139.684 148.316 139.75C147.849 139.817 147.423 139.93 147.036 140.09C146.663 140.25 146.363 140.464 146.136 140.73C145.909 140.997 145.796 141.33 145.796 141.73C145.796 142.01 145.856 142.264 145.976 142.49C146.109 142.704 146.276 142.884 146.476 143.03C146.676 143.164 146.896 143.27 147.136 143.35C147.389 143.417 147.643 143.45 147.896 143.45C148.536 143.45 149.063 143.357 149.476 143.17C149.889 142.984 150.216 142.744 150.456 142.45C150.709 142.144 150.883 141.804 150.976 141.43C151.069 141.044 151.116 140.657 151.116 140.27V139.65H149.796ZM155.387 137.65C155.387 137.477 155.38 137.27 155.367 137.03C155.354 136.777 155.34 136.524 155.327 136.27C155.327 136.017 155.32 135.784 155.307 135.57C155.294 135.344 155.287 135.17 155.287 135.05H156.487C156.5 135.397 156.507 135.73 156.507 136.05C156.52 136.37 156.54 136.577 156.567 136.67H156.627C156.867 136.164 157.267 135.73 157.827 135.37C158.387 134.997 159.04 134.81 159.787 134.81C160.507 134.81 161.094 134.924 161.547 135.15C162 135.377 162.354 135.677 162.607 136.05C162.874 136.41 163.054 136.83 163.147 137.31C163.254 137.79 163.307 138.284 163.307 138.79V144.29H162.107V138.85C162.107 138.477 162.074 138.117 162.007 137.77C161.94 137.41 161.82 137.09 161.647 136.81C161.487 136.53 161.254 136.31 160.947 136.15C160.654 135.977 160.267 135.89 159.787 135.89C159.347 135.89 158.927 135.97 158.527 136.13C158.14 136.277 157.8 136.51 157.507 136.83C157.227 137.137 157 137.53 156.827 138.01C156.667 138.477 156.587 139.03 156.587 139.67V144.29H155.387V137.65ZM173.68 140.41C173.68 140.864 173.68 141.27 173.68 141.63C173.694 141.99 173.707 142.324 173.72 142.63C173.734 142.937 173.747 143.224 173.76 143.49C173.787 143.757 173.82 144.024 173.86 144.29H172.74C172.66 143.837 172.62 143.337 172.62 142.79H172.58C172.234 143.39 171.8 143.83 171.28 144.11C170.774 144.39 170.127 144.53 169.34 144.53C168.94 144.53 168.547 144.477 168.16 144.37C167.774 144.277 167.427 144.124 167.12 143.91C166.814 143.684 166.56 143.397 166.36 143.05C166.174 142.704 166.08 142.284 166.08 141.79C166.08 141.084 166.26 140.524 166.62 140.11C166.98 139.697 167.42 139.39 167.94 139.19C168.474 138.977 169.034 138.844 169.62 138.79C170.22 138.724 170.747 138.69 171.2 138.69H172.6V138.13C172.6 137.33 172.354 136.757 171.86 136.41C171.367 136.064 170.747 135.89 170 135.89C168.934 135.89 167.994 136.237 167.18 136.93L166.48 136.11C166.92 135.684 167.467 135.364 168.12 135.15C168.774 134.924 169.4 134.81 170 134.81C171.12 134.81 172.014 135.077 172.68 135.61C173.347 136.13 173.68 136.977 173.68 138.15V140.41ZM171.28 139.65C170.774 139.65 170.28 139.684 169.8 139.75C169.334 139.817 168.907 139.93 168.52 140.09C168.147 140.25 167.847 140.464 167.62 140.73C167.394 140.997 167.28 141.33 167.28 141.73C167.28 142.01 167.34 142.264 167.46 142.49C167.594 142.704 167.76 142.884 167.96 143.03C168.16 143.164 168.38 143.27 168.62 143.35C168.874 143.417 169.127 143.45 169.38 143.45C170.02 143.45 170.547 143.357 170.96 143.17C171.374 142.984 171.7 142.744 171.94 142.45C172.194 142.144 172.367 141.804 172.46 141.43C172.554 141.044 172.6 140.657 172.6 140.27V139.65H171.28ZM186.151 143.69C186.151 144.837 185.985 145.764 185.651 146.47C185.318 147.177 184.898 147.724 184.391 148.11C183.898 148.497 183.365 148.757 182.791 148.89C182.218 149.024 181.698 149.09 181.231 149.09C180.765 149.09 180.305 149.044 179.851 148.95C179.411 148.87 178.991 148.744 178.591 148.57C178.191 148.41 177.825 148.21 177.491 147.97C177.171 147.73 176.891 147.457 176.651 147.15L177.591 146.27C178.018 146.87 178.551 147.31 179.191 147.59C179.831 147.87 180.511 148.01 181.231 148.01C181.845 148.01 182.358 147.93 182.771 147.77C183.198 147.61 183.545 147.397 183.811 147.13C184.091 146.877 184.305 146.59 184.451 146.27C184.611 145.964 184.725 145.65 184.791 145.33C184.871 145.024 184.918 144.73 184.931 144.45C184.945 144.17 184.951 143.944 184.951 143.77V142.49H184.911C184.565 143.05 184.091 143.49 183.491 143.81C182.905 144.13 182.211 144.29 181.411 144.29C180.731 144.29 180.091 144.17 179.491 143.93C178.891 143.677 178.365 143.337 177.911 142.91C177.471 142.47 177.118 141.964 176.851 141.39C176.598 140.817 176.471 140.204 176.471 139.55C176.471 138.897 176.598 138.284 176.851 137.71C177.118 137.137 177.471 136.637 177.911 136.21C178.365 135.784 178.891 135.444 179.491 135.19C180.091 134.937 180.731 134.81 181.411 134.81C182.211 134.81 182.905 134.97 183.491 135.29C184.091 135.61 184.565 136.05 184.911 136.61H184.951V135.05H186.151V143.69ZM184.991 139.55C184.991 139.044 184.891 138.57 184.691 138.13C184.505 137.677 184.245 137.29 183.911 136.97C183.591 136.637 183.205 136.377 182.751 136.19C182.311 135.99 181.838 135.89 181.331 135.89C180.825 135.89 180.345 135.99 179.891 136.19C179.451 136.377 179.065 136.637 178.731 136.97C178.411 137.29 178.151 137.677 177.951 138.13C177.765 138.57 177.671 139.044 177.671 139.55C177.671 140.057 177.765 140.537 177.951 140.99C178.151 141.43 178.411 141.817 178.731 142.15C179.065 142.47 179.451 142.73 179.891 142.93C180.345 143.117 180.825 143.21 181.331 143.21C181.838 143.21 182.311 143.117 182.751 142.93C183.205 142.73 183.591 142.47 183.911 142.15C184.245 141.817 184.505 141.43 184.691 140.99C184.891 140.537 184.991 140.057 184.991 139.55ZM197.258 142.55C196.791 143.257 196.211 143.764 195.518 144.07C194.838 144.377 194.085 144.53 193.258 144.53C192.551 144.53 191.911 144.41 191.338 144.17C190.765 143.93 190.271 143.597 189.858 143.17C189.445 142.73 189.125 142.217 188.898 141.63C188.685 141.03 188.578 140.37 188.578 139.65C188.578 138.957 188.691 138.317 188.918 137.73C189.145 137.144 189.465 136.637 189.878 136.21C190.291 135.77 190.778 135.43 191.338 135.19C191.898 134.937 192.518 134.81 193.198 134.81C193.905 134.81 194.525 134.937 195.058 135.19C195.605 135.43 196.058 135.757 196.418 136.17C196.791 136.57 197.071 137.03 197.258 137.55C197.445 138.07 197.538 138.597 197.538 139.13V139.97H189.778C189.778 140.224 189.825 140.55 189.918 140.95C190.025 141.337 190.211 141.717 190.478 142.09C190.745 142.464 191.098 142.784 191.538 143.05C191.991 143.317 192.571 143.45 193.278 143.45C193.891 143.45 194.485 143.304 195.058 143.01C195.631 142.717 196.071 142.317 196.378 141.81L197.258 142.55ZM196.338 138.89C196.338 138.477 196.251 138.09 196.078 137.73C195.918 137.37 195.691 137.057 195.398 136.79C195.118 136.51 194.778 136.29 194.378 136.13C193.991 135.97 193.578 135.89 193.138 135.89C192.485 135.89 191.938 136.024 191.498 136.29C191.071 136.557 190.731 136.864 190.478 137.21C190.225 137.557 190.045 137.897 189.938 138.23C189.831 138.55 189.778 138.77 189.778 138.89H196.338ZM200.211 137.65C200.211 137.477 200.205 137.27 200.191 137.03C200.178 136.777 200.165 136.524 200.151 136.27C200.151 136.017 200.145 135.784 200.131 135.57C200.118 135.344 200.111 135.17 200.111 135.05H201.311C201.325 135.397 201.331 135.73 201.331 136.05C201.345 136.37 201.365 136.577 201.391 136.67H201.451C201.691 136.164 202.091 135.73 202.651 135.37C203.211 134.997 203.865 134.81 204.611 134.81C205.225 134.81 205.785 134.97 206.291 135.29C206.798 135.597 207.165 136.104 207.391 136.81C207.685 136.117 208.118 135.61 208.691 135.29C209.278 134.97 209.891 134.81 210.531 134.81C211.251 134.81 211.838 134.924 212.291 135.15C212.745 135.377 213.098 135.677 213.351 136.05C213.618 136.41 213.798 136.83 213.891 137.31C213.998 137.79 214.051 138.284 214.051 138.79V144.29H212.851V138.85C212.851 138.477 212.818 138.117 212.751 137.77C212.685 137.41 212.565 137.09 212.391 136.81C212.231 136.53 211.998 136.31 211.691 136.15C211.398 135.977 211.011 135.89 210.531 135.89C209.971 135.89 209.511 135.997 209.151 136.21C208.791 136.41 208.505 136.67 208.291 136.99C208.091 137.31 207.945 137.657 207.851 138.03C207.771 138.404 207.731 138.757 207.731 139.09V144.29H206.531V138.73C206.531 137.877 206.371 137.19 206.051 136.67C205.745 136.15 205.265 135.89 204.611 135.89C204.171 135.89 203.751 135.97 203.351 136.13C202.965 136.277 202.625 136.51 202.331 136.83C202.051 137.137 201.825 137.53 201.651 138.01C201.491 138.477 201.411 139.03 201.411 139.67V144.29H200.211V137.65ZM225.403 142.55C224.936 143.257 224.356 143.764 223.663 144.07C222.983 144.377 222.229 144.53 221.403 144.53C220.696 144.53 220.056 144.41 219.483 144.17C218.909 143.93 218.416 143.597 218.003 143.17C217.589 142.73 217.269 142.217 217.043 141.63C216.829 141.03 216.723 140.37 216.723 139.65C216.723 138.957 216.836 138.317 217.063 137.73C217.289 137.144 217.609 136.637 218.023 136.21C218.436 135.77 218.923 135.43 219.483 135.19C220.043 134.937 220.663 134.81 221.343 134.81C222.049 134.81 222.669 134.937 223.203 135.19C223.749 135.43 224.203 135.757 224.563 136.17C224.936 136.57 225.216 137.03 225.403 137.55C225.589 138.07 225.683 138.597 225.683 139.13V139.97H217.923C217.923 140.224 217.969 140.55 218.063 140.95C218.169 141.337 218.356 141.717 218.623 142.09C218.889 142.464 219.243 142.784 219.683 143.05C220.136 143.317 220.716 143.45 221.423 143.45C222.036 143.45 222.629 143.304 223.203 143.01C223.776 142.717 224.216 142.317 224.523 141.81L225.403 142.55ZM224.483 138.89C224.483 138.477 224.396 138.09 224.223 137.73C224.063 137.37 223.836 137.057 223.543 136.79C223.263 136.51 222.923 136.29 222.523 136.13C222.136 135.97 221.723 135.89 221.283 135.89C220.629 135.89 220.083 136.024 219.643 136.29C219.216 136.557 218.876 136.864 218.623 137.21C218.369 137.557 218.189 137.897 218.083 138.23C217.976 138.55 217.923 138.77 217.923 138.89H224.483ZM228.356 137.65C228.356 137.477 228.349 137.27 228.336 137.03C228.323 136.777 228.309 136.524 228.296 136.27C228.296 136.017 228.289 135.784 228.276 135.57C228.263 135.344 228.256 135.17 228.256 135.05H229.456C229.469 135.397 229.476 135.73 229.476 136.05C229.489 136.37 229.509 136.577 229.536 136.67H229.596C229.836 136.164 230.236 135.73 230.796 135.37C231.356 134.997 232.009 134.81 232.756 134.81C233.476 134.81 234.063 134.924 234.516 135.15C234.969 135.377 235.323 135.677 235.576 136.05C235.843 136.41 236.023 136.83 236.116 137.31C236.223 137.79 236.276 138.284 236.276 138.79V144.29H235.076V138.85C235.076 138.477 235.043 138.117 234.976 137.77C234.909 137.41 234.789 137.09 234.616 136.81C234.456 136.53 234.223 136.31 233.916 136.15C233.623 135.977 233.236 135.89 232.756 135.89C232.316 135.89 231.896 135.97 231.496 136.13C231.109 136.277 230.769 136.51 230.476 136.83C230.196 137.137 229.969 137.53 229.796 138.01C229.636 138.477 229.556 139.03 229.556 139.67V144.29H228.356V137.65ZM243.989 136.13H241.349V142.15C241.349 142.564 241.462 142.884 241.689 143.11C241.916 143.337 242.229 143.45 242.629 143.45C242.856 143.45 243.082 143.424 243.309 143.37C243.549 143.304 243.776 143.224 243.989 143.13L244.089 144.21C243.862 144.29 243.602 144.364 243.309 144.43C243.016 144.497 242.756 144.53 242.529 144.53C242.102 144.53 241.736 144.464 241.429 144.33C241.122 144.21 240.876 144.044 240.689 143.83C240.502 143.617 240.362 143.37 240.269 143.09C240.189 142.797 240.149 142.484 240.149 142.15V136.13H238.149V135.05H240.149V132.39H241.349V135.05H243.989V136.13Z" fill="white"/>
</svg>
