<svg width="391" height="391" viewBox="0 0 391 391" fill="none" xmlns="http://www.w3.org/2000/svg">
<path d="M299.359 0H91.6406C41.0289 0 0 41.0289 0 91.6406V299.359C0 349.971 41.0289 391 91.6406 391H299.359C349.971 391 391 349.971 391 299.359V91.6406C391 41.0289 349.971 0 299.359 0Z" fill="white"/>
<mask id="mask0_160_804" style="mask-type:luminance" maskUnits="userSpaceOnUse" x="73" y="54" width="234" height="289">
<path d="M73.3125 54.9844H306.568V342.125H73.3125V54.9844Z" fill="white"/>
</mask>
<g mask="url(#mask0_160_804)">
<path d="M209.576 242.565C209.545 242.675 209.513 242.785 209.482 242.895C209.844 242.942 210.221 243.005 210.583 243.068C210.598 242.989 210.614 242.895 210.63 242.817C210.284 242.738 209.938 242.66 209.576 242.565ZM196.758 273.601C196.743 273.617 196.9 273.617 196.947 273.539C197.466 272.817 198.016 272.126 198.457 271.356C201.02 266.757 203.301 262.047 204.543 256.898C204.748 256.051 204.984 255.156 204.937 254.308C204.779 251.718 204.496 249.143 204.244 246.568C204.213 246.27 204.103 245.988 203.961 245.423C202.939 250.462 202.451 255.266 200.973 259.896C199.495 264.464 198.142 269.08 196.758 273.601ZM176.564 276.034C176.643 276.128 176.706 276.238 176.784 276.333C177.02 276.207 177.303 276.128 177.523 275.971C181.298 273.193 184.853 270.147 187.935 266.631C190.215 264.009 192.26 261.168 194.352 258.389C195.091 257.416 195.72 256.333 196.286 255.25C197.245 253.413 198.095 251.529 199.007 249.677C199.778 248.091 200.58 246.537 201.366 244.952C200.218 246.019 199.243 247.196 198.378 248.437C196.459 251.2 194.729 254.104 192.669 256.757C189.193 261.231 185.544 265.564 181.927 269.912C180.197 272 178.357 273.994 176.564 276.034ZM208.459 243.994C208.57 244.402 208.57 244.591 208.664 244.701C210.52 246.851 212.36 249.018 214.263 251.121C214.876 251.827 215.726 252.314 216.355 253.02C219.894 256.992 223.448 260.964 226.892 265.03C229.912 268.593 233.026 272.079 235.605 275.987C236.187 276.882 237.005 277.605 237.729 278.405C237.886 278.044 237.854 277.824 237.76 277.62C236.329 274.684 234.945 271.749 233.466 268.845C230.95 263.931 228.134 259.268 223.589 255.831C219.721 252.91 216.04 249.756 212.249 246.725C211.102 245.815 209.859 245.014 208.459 243.994ZM155.977 271.608C156.59 271.451 156.92 271.388 157.219 271.278C162.708 269.331 167.993 266.961 173.025 264.056C175.117 262.832 177.083 261.388 179.206 260.226C183.248 257.981 186.598 254.952 189.602 251.466C190.483 250.446 191.442 249.473 192.464 248.578C194.367 246.914 196.349 245.313 198.362 243.633C196.617 244.214 160.522 268.028 155.977 271.608ZM205.345 242.534C205.204 242.612 205.062 242.707 204.905 242.801C205.629 244.277 206.289 245.784 207.06 247.228C209.026 250.917 210.174 254.92 211.385 258.86C214.011 267.448 216.402 276.113 218.887 284.747C219.138 285.626 219.437 286.474 219.705 287.337C219.846 287.321 219.988 287.306 220.129 287.29C220.16 285.658 220.318 284.01 220.176 282.392C219.894 279.049 219.689 275.657 219.028 272.377C218.163 267.981 217.141 263.585 215.726 259.331C214.892 256.804 213.288 254.481 211.857 252.173C210.095 249.363 208.16 246.662 206.305 243.916C205.99 243.46 205.676 242.989 205.345 242.534ZM214.326 244.387C214.294 244.512 214.278 244.638 214.247 244.763C215.191 245.234 216.103 245.768 217.078 246.192C220.947 247.824 224.722 249.614 228.166 252.079C230.746 253.931 233.45 255.611 236.14 257.306C237.587 258.217 239.112 259.017 240.591 259.865C245.152 262.518 249.682 265.171 254.258 267.793C254.809 268.107 255.359 268.64 256.35 268.389C254.887 266.694 253.55 265.108 252.166 263.585C248.817 259.881 244.649 257.118 240.78 254.041C240.355 253.711 239.883 253.428 239.395 253.256C236.281 252.11 233.167 250.996 230.053 249.881C226.939 248.766 223.826 247.62 220.696 246.521C218.588 245.784 216.449 245.093 214.326 244.387ZM214.955 241.388C214.955 241.545 214.939 241.702 214.939 241.859C215.584 241.969 216.213 242.079 216.842 242.188C221.624 243.005 226.42 243.79 231.201 244.638C234.284 245.187 237.335 245.831 240.418 246.443C242.903 246.945 245.403 247.4 247.889 247.965C250.137 248.484 252.339 249.159 254.589 249.661C257.372 250.274 260.156 250.807 262.955 251.325C264.465 251.608 266.006 251.796 267.249 251.969C266.101 251.372 264.717 250.572 263.286 249.897C256.9 246.882 250.295 244.496 243.39 242.958C241.708 242.581 240.087 242.031 238.405 241.655C237.099 241.372 235.747 241.058 234.394 241.074C229.849 241.074 225.288 241.215 220.727 241.294C218.808 241.341 216.874 241.356 214.955 241.388ZM188.596 245.36C188.548 245.281 188.501 245.203 188.454 245.124C185.733 245.94 183.044 246.788 180.307 247.526C177.052 248.421 173.765 249.159 170.524 250.069C166.892 251.105 163.305 252.33 159.657 253.334C153.854 254.92 148.019 256.396 142.183 257.903C139.667 258.546 137.135 259.064 134.618 259.708C133.187 260.085 131.788 260.556 130.356 260.996C130.372 261.121 130.403 261.262 130.419 261.388C132.763 261.31 135.122 261.294 137.449 261.121C141.523 260.823 145.565 260.352 149.623 260.085C153.979 259.802 158.147 258.766 162.299 257.542C163.541 257.181 164.926 257.024 165.964 256.349C170.21 253.601 174.881 251.702 179.426 249.551C182.462 248.107 185.544 246.757 188.596 245.36ZM206.352 265.093C206.226 265.124 206.1 265.14 205.975 265.155C205.959 265.674 205.975 266.192 205.896 266.694C205.219 271.011 204.543 275.328 203.804 279.645C202.64 286.521 201.445 293.381 200.249 300.257C199.935 302.063 199.526 303.852 199.29 305.658C198.504 311.78 196.806 317.699 195.437 323.68C194.367 328.279 192.984 332.8 191.788 337.368C191.3 339.237 191.851 339.88 193.974 339.99C194.084 339.755 194.226 339.503 194.32 339.237C195.39 335.987 196.459 332.721 197.544 329.472C200.375 320.963 202.074 312.204 203.332 303.365C203.993 298.75 204.37 294.088 204.921 289.457C205.408 285.312 206.415 281.23 206.43 277.008C206.446 274.559 207.091 272.094 207.453 269.645C207.5 269.362 207.531 269.049 207.453 268.782C207.107 267.542 206.714 266.333 206.352 265.093ZM293.31 191.639C293.247 191.514 293.184 191.373 293.121 191.247C292.948 191.231 292.775 191.153 292.618 191.184C287.742 192.346 282.851 193.461 277.991 194.732C274.908 195.533 271.826 196.459 268.838 197.574C265.598 198.783 262.279 199.771 259.369 201.859C256.145 204.152 252.544 205.909 249.257 208.091C243.532 211.906 237.792 215.706 232.271 219.787C226.404 224.119 220.412 228.233 214.058 231.828C212.69 232.613 210.976 234.025 210.284 234.967C210.787 234.747 211.18 234.606 211.526 234.402C215.914 231.843 220.302 229.269 224.706 226.71C228.119 224.716 231.532 222.707 234.992 220.776C238.767 218.688 242.573 216.647 246.378 214.622C250.562 212.408 254.714 210.164 258.945 208.044C262.955 206.035 267.029 204.151 271.086 202.22C275.946 199.897 280.806 197.589 285.666 195.281C288.214 194.073 290.762 192.849 293.31 191.639ZM289.567 225.627C289.551 225.517 289.551 225.423 289.535 225.313C288.906 225.265 288.277 225.171 287.648 225.171C282.379 225.171 277.094 225.046 271.826 225.218C265.975 225.423 260.124 225.894 254.274 226.255C253.928 226.27 253.566 226.318 253.22 226.396C251.553 226.757 249.886 227.165 248.218 227.526C242.085 228.876 235.888 229.865 230.116 232.534C228.67 233.209 227.159 233.727 225.634 234.229C220.648 235.909 215.647 237.558 210.661 239.206C210.331 239.332 210.016 239.52 209.686 239.677C211.054 239.865 212.36 240.022 213.618 239.85C216.37 239.441 219.091 238.861 221.812 238.358C230.431 236.757 239.018 235.093 247.637 233.57C252.638 232.676 257.718 232.079 262.704 231.152C270.851 229.645 278.966 227.966 287.097 226.333C287.931 226.176 288.749 225.878 289.567 225.627ZM82.4815 197.605C82.4344 197.699 82.3715 197.778 82.3244 197.872C82.4814 198.045 82.6073 198.233 82.7802 198.359C85.1708 200.211 87.5302 202.079 89.9367 203.885C95.4883 208.06 101.417 211.639 107.661 214.685C114 217.762 120.479 220.509 127.101 222.895C128.39 223.366 129.633 223.915 130.923 224.355C135.326 225.894 139.73 227.401 144.134 228.892C145.754 229.441 147.373 229.975 149.041 230.399C150.346 230.729 151.699 230.901 153.051 231.105C158.021 231.859 163.007 232.629 167.993 233.335C172.506 233.963 177.02 234.528 181.55 235.124C184.145 235.469 186.74 235.846 189.334 236.207C185.953 234.638 182.556 233.084 179.018 232C174.158 230.509 169.188 229.457 164.296 228.076C158.996 226.6 153.728 225.014 148.474 223.366C144.59 222.126 140.768 220.698 136.915 219.379C133.612 218.233 130.23 217.307 127.007 215.972C121.014 213.46 115.148 210.666 109.171 208.091C105.585 206.553 101.921 205.187 98.2724 203.79C94.9067 202.518 91.4934 201.325 88.1436 200.023C86.2247 199.285 84.3692 198.406 82.4815 197.605ZM294.82 129.599C294.725 129.505 294.631 129.427 294.537 129.332C293.262 130.196 292.004 131.059 290.73 131.923C286.877 134.481 282.882 136.821 279.218 139.63C272.911 144.465 267.375 150.164 261.792 155.8C260.801 156.789 259.59 157.605 258.756 158.704C255.595 162.833 252.591 167.071 249.445 171.232C246.127 175.596 242.588 179.818 239.395 184.277C235.983 189.034 232.79 193.932 229.66 198.877C227.411 202.424 225.492 206.176 223.243 209.724C219.406 215.753 215.411 221.687 211.495 227.668C211.149 228.201 210.835 228.751 210.52 229.284C211.448 228.594 212.124 227.715 212.785 226.836C213.036 226.522 213.256 226.176 213.524 225.862C214.247 225.014 215.065 224.229 215.726 223.35C218.069 220.164 220.397 216.977 222.693 213.758C224.47 211.263 226.546 208.971 227.946 206.223C228.087 205.972 228.276 205.721 228.465 205.501C229.078 204.811 229.771 204.183 230.336 203.445C231.862 201.435 233.262 199.316 234.866 197.354C239.679 191.435 244.712 185.69 249.964 180.164C252.858 177.119 255.564 173.9 258.331 170.745C262.169 166.349 265.959 161.922 269.829 157.558C272.723 154.293 275.726 151.106 278.636 147.841C281.656 144.434 284.581 140.965 287.601 137.543C289.975 134.858 292.413 132.252 294.82 129.599ZM279.265 106.271C279.186 106.224 279.107 106.193 279.013 106.161C278.054 106.946 277.11 107.747 276.135 108.532C272.675 111.294 269.152 113.995 265.74 116.852C261.194 120.667 256.947 124.78 253.598 129.725C252.15 131.86 250.468 133.932 249.43 136.271C246.976 141.719 244.79 147.292 242.62 152.849C240.355 158.642 237.618 164.199 234.473 169.568C232.192 173.445 230.006 177.37 227.93 181.357C226.153 184.763 224.549 188.264 222.913 191.749C221.938 193.822 220.963 195.925 220.145 198.076C218.352 202.832 216.638 207.636 214.908 212.408C214.735 212.879 214.593 213.335 214.42 213.79C215.694 212 216.764 210.133 217.755 208.201C220.648 202.565 223.416 196.883 226.373 191.294C228.921 186.491 231.611 181.765 234.363 177.071C237.87 171.075 241.456 165.094 245.089 159.16C247.118 155.831 249.32 152.629 251.427 149.348C253.566 146.035 255.705 142.708 257.828 139.363C261.461 133.633 265.063 127.888 268.743 122.189C271.48 117.982 274.326 113.854 277.11 109.678C277.865 108.563 278.557 107.402 279.265 106.271ZM188.391 232.205C188.108 231.922 187.982 231.749 187.809 231.639C185.041 230.053 182.32 228.405 179.505 226.93C175.809 224.983 172.286 222.723 168.669 220.635C164.265 218.107 160.05 215.282 155.898 212.361C151.935 209.599 148.191 206.522 144.322 203.633C141.476 201.514 138.598 199.458 135.719 197.385C133.391 195.69 131.033 194.01 128.721 192.283C126.047 190.258 123.436 188.123 120.747 186.129C117.57 183.775 114.33 181.514 111.106 179.237C109.423 178.029 107.74 176.852 106.042 175.674C104.39 174.544 102.676 173.508 101.103 172.283C98.2876 170.133 95.5671 167.872 92.799 165.674C92.0438 165.078 91.2576 164.513 90.4872 163.948C90.3925 164.042 90.2984 164.136 90.2196 164.246C91.0847 165.345 91.8868 166.491 92.8148 167.526C96.7468 171.954 100.71 176.349 104.673 180.745C104.972 181.075 105.381 181.31 105.743 181.593C107.064 182.66 108.574 183.508 109.454 185.046C109.785 185.611 110.178 186.145 110.618 186.6C113.292 189.363 115.919 192.189 118.718 194.826C121.911 197.809 125.245 200.65 128.595 203.476C129.979 204.638 131.441 205.894 133.093 206.553C136.128 207.777 138.897 209.473 141.79 210.949C145.848 213.021 149.953 215.015 154.074 216.961C159.83 219.693 165.602 222.409 171.421 225.03C176.816 227.464 182.257 229.787 187.668 232.157C187.809 232.22 187.998 232.173 188.391 232.205ZM234.976 74.7488C234.898 74.7329 234.819 74.717 234.74 74.6859C232.302 79.0028 229.739 83.2573 227.474 87.6683C224.36 93.7123 222.048 100.117 219.752 106.507C217.943 111.593 216.984 116.883 215.71 122.095C215.301 123.744 215.018 125.455 214.892 127.15C214.578 131.279 214.389 135.408 214.168 139.536C213.807 145.847 213.508 152.174 213.099 158.485C212.801 163.021 212.391 167.542 211.982 172.079C211.778 174.371 211.448 176.663 211.227 178.955C210.976 181.593 210.724 184.245 210.551 186.883C210.347 189.834 210.331 192.801 210.032 195.737C209.45 201.498 208.711 207.244 208.066 213.005C207.626 216.883 207.217 220.76 206.793 224.637C206.667 225.737 206.556 226.82 206.43 227.919C206.777 227.73 206.871 227.511 206.903 227.291C207.421 223.727 207.956 220.164 208.428 216.6C209.041 211.969 209.985 207.385 210.236 202.707C210.331 200.823 210.614 198.94 210.96 197.087C212.564 188.469 213.744 179.803 214.483 171.075C214.924 165.957 215.537 160.855 216.669 155.831C217.188 153.587 217.503 151.294 217.912 149.018C218.415 146.302 218.793 143.524 219.469 140.839C220.444 136.946 221.718 133.131 222.74 129.238C223.951 124.623 225.099 119.976 226.137 115.329C227.364 109.85 228.449 104.34 229.597 98.846C230.147 96.1927 230.635 93.5241 231.233 90.8708C231.956 87.7312 232.806 84.6228 233.545 81.4832C234.064 79.2386 234.504 76.9934 234.976 74.7488ZM120.621 105.251C120.511 105.298 120.401 105.329 120.306 105.376C120.999 107.747 121.785 110.086 122.367 112.472C123.767 118.234 125.37 123.916 127.289 129.505C128.437 132.849 129.696 136.177 131.08 139.442C133.046 144.057 135.138 148.61 137.214 153.179C137.418 153.665 137.764 154.089 138.094 154.497C142.136 159.301 146.288 163.995 150.189 168.892C153.491 173.068 156.464 177.495 159.641 181.765C161.938 184.842 164.28 187.872 166.671 190.87C169.109 193.916 171.751 196.788 174.095 199.913C178.546 205.8 182.839 211.828 187.211 217.793C189.948 221.53 192.732 225.25 195.5 228.986C194.509 227.087 193.345 225.313 192.118 223.57C188.832 218.955 185.45 214.387 182.509 209.536C182.21 209.018 181.974 208.468 181.66 207.981C177.334 201.341 172.994 194.685 168.653 188.06C167.426 186.176 166.089 184.355 164.91 182.44C162.456 178.406 160.05 174.324 157.659 170.227C155.788 167.024 153.979 163.759 152.139 160.541C151.007 158.547 149.859 156.569 148.726 154.56C148.003 153.273 147.326 151.954 146.619 150.666C145.36 148.406 144.102 146.114 142.813 143.869C141.02 140.729 139.148 137.653 137.386 134.497C135.42 130.997 133.565 127.417 131.599 123.901C129.963 120.965 128.249 118.061 126.534 115.157C124.584 111.844 122.587 108.548 120.621 105.251ZM215.332 193.225C215.411 193.241 215.505 193.257 215.6 193.272C216.654 190.792 217.707 188.312 218.761 185.815C220.082 182.676 221.419 179.536 222.677 176.381C225.492 169.348 228.402 162.362 230.981 155.266C233.199 149.16 235.007 142.912 237.76 137.009C239.222 133.869 241 130.871 242.525 127.747C244.318 124.089 246.08 120.4 247.7 116.663C249.241 113.1 250.609 109.458 252.025 105.831C252.874 103.634 253.724 101.436 254.526 99.2224C255.217 97.2759 255.831 95.3136 256.476 93.3512C256.712 92.6291 256.947 91.907 257.183 91.1696C256.114 92.1269 255.264 93.179 254.431 94.2304C250.94 98.5632 247.306 102.786 244.019 107.245C241.062 111.247 238.531 115.533 235.747 119.631C233.985 122.205 232.601 124.906 231.784 127.904C230.447 132.754 229.015 137.574 227.694 142.409C226.027 148.579 224.391 154.748 222.803 160.949C222.252 163.115 221.765 165.329 221.435 167.542C220.617 172.817 219.453 177.998 217.975 183.115C217.015 186.459 216.197 189.85 215.332 193.225ZM172.538 70.7771C172.443 70.7771 172.349 70.793 172.27 70.793C171.925 73.1005 171.484 75.408 171.263 77.7314C170.587 85.1097 170.147 92.4721 170.477 99.8822C170.619 102.896 170.336 105.926 170.556 108.94C170.887 113.697 171.374 118.469 171.987 123.21C172.364 126.224 172.664 129.222 173.749 132.158C176.422 139.489 178.609 146.978 180.637 154.513C182.116 159.992 183.846 165.408 185.513 170.824C186.567 174.277 187.778 177.684 188.769 181.153C190.247 186.271 191.568 191.42 193.015 196.553C193.865 199.567 194.934 202.518 195.705 205.564C197.23 211.639 198.598 217.746 200.077 223.837C200.297 224.732 200.753 225.595 201.099 226.459C201.319 226.208 201.335 226.035 201.287 225.878C201.193 225.47 201.083 225.061 200.942 224.685C199.636 221.294 199.117 217.715 198.52 214.167C197.419 207.589 196.538 200.98 194.446 194.591C193.282 191.09 192.338 187.511 191.348 183.947C190.971 182.644 190.672 181.326 190.388 180.007C190.137 178.908 189.948 177.793 189.728 176.695C189.083 173.445 188.407 170.211 187.841 166.961C186.929 161.906 186.142 156.836 185.245 151.781C184.506 147.715 183.578 143.681 182.902 139.615C182.241 135.659 181.817 131.656 181.25 127.684C180.748 124.121 180.181 120.573 179.662 117.009C179.3 114.56 178.939 112.111 178.609 109.662C178.137 105.988 177.759 102.3 177.209 98.6261C176.69 95.1254 175.982 91.6559 175.416 88.1711C174.535 82.8022 173.717 77.4492 172.868 72.0802C172.805 71.6404 172.648 71.2011 172.538 70.7771ZM99.4203 127.778C99.3574 127.825 99.2786 127.888 99.2156 127.935C99.9866 129.379 100.741 130.824 101.528 132.252C102.833 134.638 104.154 137.009 105.459 139.395C107.551 143.178 109.501 147.04 111.735 150.729C113.937 154.371 116.312 157.919 118.781 161.388C121.109 164.67 123.641 167.809 126.094 170.996C126.267 171.232 126.471 171.451 126.66 171.671C128.485 173.853 130.325 176.02 132.118 178.233C133.706 180.18 135.31 182.064 137.339 183.633C140.8 186.318 144.071 189.238 147.342 192.142C150.535 194.968 153.57 197.982 156.763 200.792C161.859 205.297 167.033 209.724 172.192 214.151C175.07 216.616 177.948 219.064 180.905 221.42C182.95 223.036 185.104 224.496 187.243 225.988C188.816 227.103 190.436 228.154 192.056 229.222C191.804 228.594 191.411 228.186 190.986 227.778C188.753 225.674 186.441 223.633 184.27 221.467C182.006 219.206 179.883 216.82 177.696 214.497C174.33 210.917 170.918 207.385 167.631 203.743C164.139 199.866 160.805 195.878 157.36 191.954C156.322 190.76 155.174 189.63 154.089 188.453C151.951 186.114 149.812 183.759 147.672 181.404C144.149 177.558 140.611 173.759 137.119 169.882C134.87 167.37 132.763 164.748 130.513 162.22C125.213 156.255 119.756 150.415 114.566 144.356C110.099 139.144 105.601 133.979 100.741 129.112C100.301 128.657 99.8608 128.217 99.4203 127.778ZM197.513 226.113C197.623 226.082 197.733 226.035 197.828 226.004C197.135 224.7 196.443 223.413 195.752 222.126C194.588 219.944 193.408 217.762 192.795 215.329C192.512 214.198 192.37 213.005 192.04 211.875C190.546 206.788 189.005 201.702 187.463 196.616C186.362 193.053 185.23 189.52 184.113 185.972C182.54 180.902 179.883 176.271 178.703 171.012C177.885 167.307 176.014 163.853 174.598 160.29C173.465 157.432 172.301 154.607 171.185 151.734C169.959 148.594 168.905 145.392 167.583 142.299C165.208 136.758 162.724 131.279 160.254 125.769C156.527 117.48 153.318 108.972 149.969 100.51C147.846 95.1413 145.581 89.8194 143.347 84.4817C143.143 83.9483 142.797 83.4926 142.514 82.9904C142.435 83.5714 142.561 84.0736 142.655 84.5757C143.599 89.1443 144.527 93.7123 145.439 98.2809C146.556 103.775 147.594 109.301 148.789 114.78C149.89 119.788 151.132 124.764 152.359 129.741C152.8 131.467 153.397 133.131 153.885 134.842C154.797 137.998 155.709 141.169 156.59 144.356C156.968 145.721 157.297 147.072 158.068 148.312C158.918 149.646 159.704 151.059 160.412 152.488C163.667 158.987 166.892 165.517 170.116 172.032C171.893 175.643 173.654 179.269 175.416 182.88C178.64 189.52 181.817 196.208 185.104 202.817C187.29 207.212 189.618 211.545 191.93 215.878C193.754 219.316 195.657 222.707 197.513 226.113ZM202.656 219.536C202.2 220.321 202.247 221.09 202.845 221.859C202.766 221.09 202.672 220.305 202.593 219.536C202.672 217.526 202.829 215.533 202.782 213.539C202.719 210.651 202.436 207.762 202.341 204.874C202.231 201.451 202.2 198.029 202.168 194.607C202.152 192.016 202.121 189.41 202.247 186.836C202.404 183.351 202.672 179.881 202.971 176.412C203.411 171.53 203.899 166.663 204.417 161.797C204.921 157.15 205.204 152.503 204.874 147.825C204.653 145.015 204.48 142.19 204.433 139.363C204.386 136.491 204.528 133.602 204.559 130.714C204.622 125.706 204.685 120.682 204.716 115.675C204.748 112.017 204.748 108.359 204.811 104.701C204.827 103.477 205.094 102.237 205.094 101.012C205.125 96.5385 205.078 92.0487 205.109 87.5742C205.125 85.1567 205.314 82.7552 205.314 80.3377C205.329 76.6794 205.251 73.0064 205.235 69.3487C205.219 68.1709 205.282 66.9783 205.298 65.8004C205.141 65.7851 204.984 65.7693 204.827 65.7534C204.638 66.9624 204.465 68.1709 204.26 69.3799C203.71 72.4566 203.253 75.5491 202.593 78.6106C201.508 83.6343 200.281 88.6263 199.668 93.7441C199.321 96.6167 199.039 99.5052 198.677 102.378C198.095 107.182 197.387 111.97 196.868 116.789C196.286 121.954 195.846 127.134 195.374 132.299C195.232 133.806 194.997 135.361 195.138 136.852C195.736 143.791 196.302 150.729 196.601 157.699C196.868 164.529 197.592 171.357 198.236 178.17C198.803 183.979 199.589 189.771 200.218 195.595C200.674 199.944 201.036 204.293 201.476 208.641C201.838 212.283 202.262 215.91 202.656 219.536ZM215.647 228.139C214.121 228.578 213.193 229.74 212.344 230.98C213.445 230.038 214.546 229.08 215.631 228.123C215.773 227.95 215.914 227.746 216.087 227.589C217.849 226.113 219.642 224.637 221.403 223.162C223.243 221.592 225.068 219.991 226.939 218.452C229.582 216.271 232.271 214.151 234.945 211.985C236.895 210.431 238.767 208.814 240.764 207.322C242.604 205.957 244.586 204.748 246.489 203.429C249.083 201.608 251.663 199.724 254.274 197.888C256.633 196.208 259.039 194.575 261.398 192.88C264.119 190.917 266.809 188.892 269.561 186.946C272.738 184.685 275.993 182.519 279.155 180.242C281.891 178.28 284.55 176.224 287.239 174.214C290.416 171.828 293.593 169.458 296.754 167.071C297.052 166.852 297.289 166.553 297.556 166.287C297.178 166.161 296.958 166.208 296.77 166.287C294.127 167.354 291.548 168.547 288.859 169.442C284.534 170.886 280.145 172.111 276.182 174.45C272.754 176.444 269.073 177.982 265.834 180.321C263.191 182.236 260.486 184.057 257.766 185.847C256.79 186.491 255.815 187.119 254.981 187.966C251.679 191.341 248.376 194.732 244.963 198.029C239.254 203.523 233.608 209.081 228.244 214.92C225.54 217.887 222.599 220.65 219.768 223.492C218.478 224.794 217.157 226.066 215.867 227.369C215.71 227.542 215.726 227.872 215.647 228.139ZM187.542 242C187.432 241.874 187.321 241.639 187.211 241.639C184.554 241.435 181.912 241.152 179.269 241.09C176.312 241.011 173.355 241.152 170.399 241.121C166.561 241.105 162.708 241.027 158.871 240.917C155.316 240.807 151.762 240.666 148.223 240.446C145.266 240.273 142.325 239.912 139.368 239.724C136.113 239.52 132.857 239.52 129.617 239.285C124.994 238.955 120.369 238.484 115.745 238.076C112.757 237.809 109.753 237.668 106.797 237.212C103.698 236.725 100.663 235.956 97.596 235.313C97.2496 235.234 96.888 235.203 96.5422 235.156C96.5104 235.281 96.4793 235.407 96.4475 235.532C97.1714 235.846 97.8789 236.239 98.634 236.49C102.455 237.746 106.262 238.971 110.099 240.195C113.827 241.356 117.554 242.518 121.297 243.633C128.28 245.721 135.452 246.443 142.718 246.192C146.445 246.05 150.157 245.611 153.885 245.532C158.572 245.423 163.227 245.062 167.851 244.387C169.786 244.088 171.72 243.806 173.654 243.555C175.762 243.272 177.87 243.021 179.993 242.785C182.509 242.487 185.041 242.22 187.557 241.921C187.967 241.874 188.375 241.812 188.784 241.749C188.737 241.623 188.674 241.498 188.627 241.356C188.265 241.576 187.904 241.78 187.542 242ZM214.515 195.705C215.096 195.219 215.096 195.219 215.175 194.293C214.939 194.811 214.735 195.266 214.53 195.721C212.926 201.969 211.149 208.186 210.394 214.622C210.661 214.292 210.866 213.947 210.945 213.57C211.164 212.597 211.322 211.608 211.526 210.619C212.124 207.919 212.738 205.203 213.351 202.503C213.823 200.493 214.326 198.484 214.766 196.474C214.814 196.255 214.593 195.956 214.515 195.705ZM121.738 201.922C120.086 200.415 118.686 199.175 117.334 197.888C115.022 195.674 112.474 193.775 109.958 191.812C106.86 189.395 104.406 186.349 101.905 183.335C100.238 181.342 98.587 179.332 96.935 177.323C95.63 175.737 94.3404 174.12 93.0036 172.55C90.3925 169.505 87.8608 166.381 85.1238 163.445C82.6232 160.761 79.9021 158.296 77.2915 155.721C76.804 155.25 76.0177 154.764 76.3476 153.995C76.757 153.116 77.6373 153.681 78.2666 153.791C80.2485 154.089 82.2456 154.466 84.2116 154.874C85.1238 155.062 86.0206 155.423 86.9169 155.706C87.9237 156.02 88.9458 156.349 89.9367 156.71C91.0059 157.071 92.0438 157.48 93.0977 157.888C97.0138 159.411 100.946 160.902 104.846 162.487C106.576 163.194 108.228 164.12 109.926 164.921C112.773 166.255 115.62 167.574 118.45 168.924C119.08 169.238 119.63 169.678 120.228 170.054C120.952 170.51 121.675 170.949 122.398 171.404C122.477 171.31 122.555 171.2 122.634 171.106C121.848 170.164 121.014 169.269 120.291 168.296C117.9 165.062 115.494 161.828 113.198 158.532C111.861 156.6 110.65 154.56 109.501 152.503C107.63 149.097 105.869 145.611 104.013 142.19C102.22 138.861 100.348 135.565 98.5241 132.252C97.3284 130.07 96.2905 127.809 94.922 125.738C93.6799 123.838 92.1385 122.111 90.6442 120.384C90.0937 119.772 89.7479 119.176 89.7791 118.296C90.833 117.951 91.6822 118.202 92.5473 118.877C93.6641 119.741 94.8279 120.62 96.0858 121.216C100.474 123.32 104.768 125.565 108.857 128.186C111.452 129.835 113.921 131.687 116.532 133.304C119.992 135.423 122.823 138.265 125.858 140.902C126.912 141.829 128.013 142.723 129.35 143.853C129.24 143.241 129.193 142.88 129.098 142.551C126.723 135.047 124.27 127.59 121.99 120.07C120.463 115.047 119.158 109.96 117.79 104.89C117.287 103.069 116.909 101.232 116.453 99.3953C116.123 98.0451 115.478 96.8837 114.503 95.8634C113.701 94.9996 112.993 94.0422 112.332 93.0531C112.128 92.7391 112.113 92.1269 112.285 91.7818C112.553 91.2478 113.119 91.436 113.512 91.7029C114.991 92.692 116.532 93.6024 117.853 94.7485C120.259 96.8519 122.666 98.9872 124.852 101.295C127.242 103.822 129.397 106.585 131.662 109.238C132.087 109.725 132.542 110.196 132.936 110.714C135.122 113.571 137.292 116.459 139.51 119.317C140.737 120.902 141.964 122.503 143.331 123.979C145.565 126.381 147.169 129.207 148.868 131.985C149.481 132.99 150.189 133.932 151.038 134.842C150.771 133.79 150.519 132.739 150.236 131.687C148.994 127.134 147.735 122.566 146.477 118.014C145.706 115.157 144.842 112.331 144.165 109.442C143.473 106.522 142.939 103.556 142.388 100.588C141.838 97.6999 141.318 94.8114 140.831 91.907C140.406 89.4113 139.903 86.9309 139.667 84.4187C139.368 81.091 138.173 77.9825 137.371 74.78C137.166 73.9638 136.6 73.2416 136.207 72.5036C136.805 71.8603 137.261 71.7974 137.874 72.2055C143.3 75.8949 148.081 80.3059 151.872 85.5966C154.844 89.7095 157.219 94.2622 159.814 98.6261C161.072 100.761 162.314 102.928 163.431 105.156C164.91 108.093 166.278 111.106 167.835 114.403C168.228 111.923 167.851 109.788 167.694 107.653C167.536 105.486 167.222 103.351 167.41 101.154C167.583 99.2853 167.269 97.4018 167.332 95.5335C167.473 91.1067 167.694 86.6951 167.93 82.2841C168.118 78.7517 168.354 75.2199 168.59 71.6874C168.637 70.9812 168.826 70.2902 168.889 69.5839C169.046 68.0138 169.172 66.4443 169.282 64.859C169.36 63.8228 169.376 62.7708 169.423 61.7187C169.471 60.3218 169.77 58.9247 168.983 57.5903C168.779 57.245 168.826 56.7269 168.763 56.2873C169.549 56.0048 169.943 56.3501 170.257 56.8054C170.887 57.7316 171.563 58.6421 172.082 59.6311C175.117 65.2671 177.759 71.0753 180.071 77.0252C181.66 81.091 183.374 85.1097 184.853 89.2225C187.227 95.8946 189.854 102.488 191.348 109.458C191.977 112.315 192.905 115.125 193.943 117.967C194.194 116.255 194.478 114.56 194.714 112.865C195.484 107.182 196.239 101.499 196.994 95.8317C197.308 93.3671 197.419 90.8708 197.875 88.4534C198.866 83.1003 200.014 77.7943 201.115 72.4725C201.571 70.2749 201.995 68.0768 202.499 65.9104C202.939 64.0739 203.458 62.2527 203.93 60.4317C204.26 59.066 204.559 57.7002 204.905 56.3344C205.031 55.8635 205.298 55.4239 205.676 54.9844C207.657 61.0754 208.617 67.3546 210.064 73.5245C211.542 79.7249 212.675 85.9888 213.319 92.3469C213.996 98.7049 214.703 105.078 215.631 111.483C216.48 109.191 217.345 106.899 218.194 104.607C219.075 102.221 219.925 99.8192 220.822 97.4488C221.702 95.1254 222.583 92.802 223.558 90.5257C224.565 88.1864 225.634 85.8789 226.735 83.5872C227.805 81.3579 228.937 79.1598 230.053 76.9464C231.185 74.67 232.255 72.3625 233.513 70.1491C234.693 68.0926 235.18 65.5964 237.131 63.6499C237.792 65.3141 237.949 66.6954 237.949 68.1867C237.964 72.1273 238.216 76.0672 238.31 80.0237C238.357 82.6763 238.326 85.3296 238.294 87.9823C238.216 92.9902 238.168 98.0139 237.996 103.038C237.917 105.439 237.618 107.857 237.367 110.259C237.319 110.714 237.052 111.138 236.895 111.593C237.036 111.64 237.178 111.687 237.319 111.734C238.625 110.023 239.946 108.312 241.251 106.601C242.573 104.858 243.862 103.1 245.199 101.373C246.567 99.5993 247.967 97.841 249.335 96.0675C250.72 94.2933 252.04 92.488 253.44 90.7138C254.793 89.0032 256.114 87.2602 257.608 85.6748C259.118 84.0736 259.951 81.876 262.169 80.557C262.169 81.1221 262.216 81.452 262.169 81.766C261.839 83.8695 261.635 85.9888 261.115 88.0453C259.732 93.4771 260.156 99.066 259.401 104.56C258.835 108.595 258.19 112.598 256.822 116.491C255.894 119.16 255.186 121.891 254.274 125.016C255.296 123.964 256.035 123.225 256.759 122.472C261.257 117.841 266.038 113.54 271.149 109.584C274.374 107.072 277.409 104.325 280.523 101.688C281.199 101.122 281.891 100.557 282.615 100.054C282.804 99.9133 283.181 99.9604 283.401 100.07C283.543 100.133 283.574 100.478 283.59 100.698C283.606 100.855 283.496 101.028 283.449 101.201C282.143 105.926 280.916 110.682 279.517 115.376C278.793 117.81 277.755 120.149 276.89 122.535C275.695 125.816 274.61 129.144 273.32 132.378C271.732 136.318 269.985 140.196 268.303 144.104C267.878 145.046 267.469 146.004 267.296 147.119C267.642 146.836 267.988 146.554 268.334 146.255C272.313 142.896 276.308 139.567 280.256 136.161C283.417 133.429 287.097 131.515 290.542 129.222C292.932 127.621 295.354 126.051 297.729 124.435C298.106 124.183 298.374 123.744 298.799 123.273C299.003 123.602 299.333 123.901 299.27 124.105C299.081 124.89 298.83 125.675 298.5 126.412C295.213 133.618 291.375 140.557 287.412 147.402C286.027 149.803 284.313 152.017 282.772 154.324C281.215 156.679 279.706 159.081 278.117 161.42C276.89 163.21 275.601 164.968 274.279 166.726C273.336 167.997 272.282 169.206 271.307 170.478C269.498 172.895 267.642 175.25 265.377 177.291C265.11 177.527 264.953 177.919 264.827 178.311C266.541 176.553 268.838 175.863 270.914 174.795C274.074 173.194 277.22 171.546 280.46 170.086C282.395 169.222 284.471 168.688 286.484 167.982C289.094 167.056 291.721 166.161 294.316 165.141C296.077 164.466 297.745 163.524 299.522 162.848C301.818 161.985 303.988 160.949 305.42 158.846C305.829 158.233 306.332 157.935 307.276 158.249C307.118 158.72 307.071 159.27 306.788 159.631C303.234 164.34 299.727 169.081 296.014 173.664C294.458 175.58 292.429 177.087 290.62 178.798C288.355 180.949 286.169 183.194 283.81 185.25C280.806 187.825 277.661 190.226 274.405 192.849C275.003 192.754 275.49 192.707 275.962 192.613C279.249 191.938 282.552 191.247 285.855 190.587C290.022 189.756 294.206 188.892 298.39 188.186C301.063 187.747 303.454 186.632 305.892 185.564C306.159 185.438 306.395 185.234 306.678 185.187C306.882 185.14 307.228 185.234 307.307 185.376C307.417 185.595 307.449 185.988 307.323 186.161C306.977 186.632 306.6 187.134 306.112 187.448C301.818 190.179 297.729 193.163 293.876 196.506C285.996 203.351 277.629 209.599 268.869 215.266C265.928 217.165 262.893 218.907 259.92 220.76C258.741 221.483 257.624 222.314 256.554 223.303C256.932 223.272 257.325 223.272 257.703 223.209C258.52 223.068 259.338 222.691 260.124 222.738C265.645 223.084 271.118 221.969 276.623 222.314C277.629 222.377 278.605 222.691 279.611 222.723C283.386 222.864 287.176 222.989 290.95 223.036C293.262 223.052 295.559 222.911 297.871 222.911C298.216 222.911 298.579 223.209 298.893 223.366C298.846 223.602 298.861 223.774 298.799 223.821C294.772 226.585 290.211 228.217 285.682 229.881C281.561 231.404 277.315 232.472 273.084 233.617C270.41 234.339 267.878 235.579 265.236 236.411C262.358 237.306 259.448 238.06 256.507 238.735C253.849 239.363 251.159 239.771 248.486 240.289C247.983 240.383 247.511 240.572 246.662 240.823C248.36 241.419 249.713 241.827 251.018 242.361C256.381 244.559 261.76 246.725 267.076 249.033C269.844 250.242 272.486 251.702 275.176 253.052C276.292 253.617 277.378 254.198 278.51 254.716C279.107 254.983 279.123 255.329 278.903 255.799C278.73 255.846 278.589 255.941 278.51 255.909C275.836 254.999 273.273 255.831 270.678 256.349C268.13 256.851 265.535 257.181 262.971 257.573C262.625 257.62 262.263 257.557 261.902 257.526C257.97 257.228 254.022 256.914 249.713 256.568C250.783 257.808 251.71 258.766 252.497 259.818C254.746 262.801 256.932 265.815 259.149 268.813C260.329 270.43 261.493 272.063 262.657 273.695C262.767 273.821 262.94 273.978 262.94 274.135C262.94 274.386 262.893 274.7 262.751 274.888C262.673 274.998 262.248 274.998 262.122 274.873C260.989 273.758 259.464 273.758 258.064 273.366C256.019 272.769 253.991 272.094 251.978 271.388C248.974 270.32 245.97 269.253 242.997 268.091C241.235 267.401 239.537 266.553 237.807 265.768C236.754 265.297 235.684 264.826 234.205 264.166C234.567 264.967 234.772 265.359 234.945 265.768C235.904 268.044 236.879 270.32 237.807 272.612C239.128 275.83 240.371 279.08 241.692 282.314C242.006 283.13 242.478 283.884 242.856 284.684C243.186 285.391 243.375 286.113 242.997 286.96C241.235 287.007 240.009 285.83 238.735 284.998C235.763 283.083 232.9 280.979 230.069 278.845C229 278.029 228.134 276.945 227.175 275.971C225.54 274.292 223.904 272.612 221.969 270.634C221.985 271.608 221.954 272.22 222.001 272.832C222.362 278.452 222.362 284.057 221.466 289.63C221.356 290.273 221.356 290.932 221.356 291.576C221.356 292.157 221.183 292.722 220.585 292.785C220.223 292.816 219.721 292.502 219.484 292.188C218.179 290.571 216.842 288.97 215.726 287.227C214.121 284.684 212.675 282.031 211.18 279.425C210.693 278.562 210.252 277.667 209.466 276.819C209.356 277.542 209.246 278.28 209.12 279.002C208.396 282.973 208.16 286.976 207.988 290.995C207.799 295.108 207.248 299.221 206.824 303.334C206.226 309.048 204.764 314.59 203.175 320.116C202.609 322.031 202.294 324.025 201.791 325.971C201.256 328.028 200.753 330.1 200.014 332.093C199.007 334.857 197.796 337.541 196.711 340.273C196.097 341.811 194.903 342.204 193.424 342.125C191.159 341.999 189.634 340.932 188.989 338.97C188.847 338.499 188.832 337.918 188.957 337.447C189.76 334.292 190.687 331.183 191.442 328.028C192.748 322.628 193.959 317.212 195.201 311.796C195.767 309.315 196.38 306.835 196.884 304.354C197.56 300.933 198.173 297.494 198.787 294.056C199.92 287.651 201.052 281.246 202.153 274.826C202.483 272.911 202.719 270.98 202.751 268.939C201.964 269.975 201.13 270.98 200.407 272.063C198.394 275.061 196.333 278.029 194.462 281.105C193.094 283.366 191.521 285.532 190.624 288.059C190.546 288.295 190.215 288.656 190.09 288.625C189.807 288.546 189.445 288.311 189.366 288.044C189.162 287.447 188.989 286.788 188.989 286.16C188.942 283.036 188.863 279.896 188.989 276.772C189.083 274.716 189.492 272.675 189.775 270.618C189.885 269.818 190.042 269.033 190.231 267.918C189.712 268.279 189.445 268.389 189.272 268.578C187.086 271.247 184.066 273.005 181.738 275.532C181.188 276.113 180.37 276.427 179.725 276.914C178.797 277.636 177.917 278.437 176.973 279.143C176.233 279.708 175.447 280.21 174.708 280.76C173.891 281.356 173.104 281.984 172.286 282.565C170.069 284.119 167.851 285.658 165.602 287.149C165.35 287.321 164.674 287.29 164.517 287.102C164.28 286.819 164.171 286.191 164.328 285.877C166.278 282.235 168.275 278.625 170.273 275.014C170.477 274.653 170.745 274.323 170.934 273.962C171.972 271.89 173.198 269.959 174.645 268.138C175.353 267.228 175.904 266.176 176.312 264.936C175.368 265.516 174.425 266.082 173.497 266.71C170.682 268.593 167.473 269.723 164.469 271.231C161.182 272.879 157.675 274.009 154.184 275.03C150.787 276.019 147.484 277.306 144.071 278.248C143.269 278.468 142.561 278.562 141.948 277.652C146.808 272.456 150.739 266.364 156.59 261.812C155.898 261.922 155.174 261.969 154.498 262.141C150.126 263.272 145.659 263.742 141.193 264.103C136.679 264.449 132.102 264.276 127.557 264.355C125.433 264.402 123.31 264.496 121.187 264.574C120.008 264.621 118.844 264.747 117.68 264.747C117.381 264.763 117.083 264.496 116.799 264.355C116.941 264.041 117.02 263.633 117.271 263.476C117.743 263.146 118.356 263.005 118.844 262.691C121.769 260.886 124.647 259.033 127.572 257.212C131.001 255.093 134.43 252.989 137.89 250.917C138.393 250.603 138.991 250.509 139.541 250.305C140.029 250.117 140.516 249.928 140.973 249.426C140.548 249.347 140.123 249.237 139.699 249.206C137.056 249.002 134.398 248.876 131.756 248.625C129.24 248.374 126.692 248.154 124.207 247.62C121.439 247.023 118.749 246.082 116.029 245.266C114.487 244.81 112.962 244.355 111.467 243.79C106.718 241.984 101.968 240.211 97.2655 238.296C95.2525 237.479 93.3494 236.38 91.3993 235.407C91.2893 235.36 91.1476 235.328 91.0847 235.234C89.9838 233.696 88.1748 233.115 86.7281 232.063C86.4134 231.843 86.2564 231.419 85.9418 230.964C86.3823 230.838 86.6969 230.634 86.9798 230.681C90.5654 231.184 94.1827 231.09 97.7689 230.98C103.132 230.807 108.526 230.509 113.858 229.849C117.491 229.394 121.124 229.284 124.773 229.112C127.415 228.97 130.089 229.112 132.747 229.127C133.36 229.143 133.974 229.112 134.603 228.923C131.41 227.903 128.5 226.27 125.135 225.752C123.169 225.47 121.203 224.763 119.425 223.868C114.047 221.153 108.463 218.876 103.069 216.224C98.854 214.151 94.9379 211.404 90.9747 208.845C88.9928 207.573 87.1527 206.066 85.3284 204.591C83.63 203.209 82.0727 201.702 80.3896 200.321C78.2507 198.547 76.0648 196.851 73.91 195.125C73.6901 194.936 73.5324 194.669 73.3125 194.387C73.863 193.602 74.7122 193.633 75.3885 193.681C77.9837 193.885 80.5943 194.057 83.1578 194.528C88.2065 195.438 93.2236 196.584 98.2724 197.511C102.912 198.374 107.598 199.018 112.254 199.881C114.928 200.384 117.554 201.121 120.196 201.749C120.574 201.828 120.983 201.843 121.738 201.922Z" fill="#FF751F"/>
</g>
</svg>
