<svg width="89" height="109" viewBox="0 0 89 109" fill="none" xmlns="http://www.w3.org/2000/svg">
<mask id="mask0_13_3081" style="mask-type:luminance" maskUnits="userSpaceOnUse" x="0" y="0" width="89" height="109">
<path d="M0 0H88.4001V109H0V0Z" fill="white"/>
</mask>
<g mask="url(#mask0_13_3081)">
<path d="M51.6417 71.2067C51.6298 71.2484 51.6179 71.2901 51.6059 71.3318C51.743 71.3497 51.8861 71.3735 52.0232 71.3974C52.0291 71.3676 52.0351 71.3318 52.0411 71.302C51.9099 71.2722 51.7788 71.2424 51.6417 71.2067ZM46.7839 82.988C46.778 82.994 46.8376 82.994 46.8554 82.9642C47.0521 82.6901 47.2607 82.4279 47.4276 82.1359C48.3992 80.3898 49.2635 78.6021 49.7344 76.6474C49.8118 76.3256 49.9012 75.986 49.8834 75.6642C49.8238 74.6809 49.7165 73.7036 49.6211 72.7263C49.6092 72.613 49.5675 72.5058 49.5138 72.2912C49.1264 74.2042 48.9416 76.0277 48.3813 77.7856C47.821 79.5198 47.3084 81.2718 46.7839 82.988ZM39.1306 83.9117C39.1604 83.9475 39.1843 83.9892 39.2141 84.0249C39.3035 83.9773 39.4108 83.9475 39.4942 83.8879C40.9247 82.8331 42.2718 81.677 43.4401 80.3421C44.3043 79.347 45.0792 78.2683 45.872 77.2136C46.1521 76.8441 46.3905 76.4329 46.6051 76.0217C46.9687 75.3245 47.2906 74.6094 47.6363 73.9062C47.9283 73.3043 48.2323 72.7143 48.5303 72.1125C48.0952 72.5177 47.7257 72.9646 47.3978 73.4354C46.6707 74.4842 46.015 75.5867 45.2342 76.5938C43.9169 78.2922 42.5341 79.9369 41.1632 81.5876C40.5075 82.3802 39.8101 83.137 39.1306 83.9117ZM51.2185 71.749C51.2602 71.9039 51.2602 71.9754 51.296 72.0171C51.9993 72.8335 52.6967 73.6559 53.4179 74.4544C53.6504 74.7226 53.9723 74.9073 54.2107 75.1755C55.5518 76.6832 56.8989 78.1909 58.2042 79.7343C59.3486 81.087 60.5288 82.41 61.5063 83.8938C61.7269 84.2335 62.0368 84.5076 62.311 84.8116C62.3706 84.6745 62.3587 84.5911 62.3229 84.5136C61.7805 83.3992 61.256 82.2849 60.6957 81.1824C59.742 79.3172 58.6751 77.5473 56.9525 76.2422C55.4862 75.1338 54.0915 73.936 52.655 72.7859C52.2199 72.4402 51.749 72.1363 51.2185 71.749ZM31.3284 82.2312C31.5608 82.1716 31.686 82.1478 31.7992 82.1061C33.8794 81.3671 35.8822 80.4673 37.7895 79.3648C38.5823 78.9 39.3273 78.3518 40.132 77.9108C41.6638 77.0586 42.9334 75.9085 44.0719 74.5855C44.4057 74.1982 44.7693 73.8287 45.1567 73.489C45.8779 72.8574 46.6289 72.2495 47.3919 71.6119C46.7303 71.8324 33.0509 80.8725 31.3284 82.2312ZM50.0383 71.1947C49.9847 71.2245 49.931 71.2603 49.8714 71.2961C50.1456 71.8562 50.396 72.4283 50.688 72.9766C51.4331 74.377 51.8682 75.8966 52.3272 77.3923C53.3226 80.652 54.2286 83.9415 55.1703 87.2191C55.2657 87.5528 55.3789 87.8746 55.4803 88.2023C55.5339 88.1964 55.5876 88.1904 55.6412 88.1845C55.6531 87.5647 55.7127 86.939 55.6591 86.3252C55.5518 85.0559 55.4743 83.7687 55.224 82.5232C54.8961 80.8546 54.5087 79.1861 53.9723 77.5711C53.6564 76.6117 53.0484 75.7297 52.506 74.8537C51.8384 73.787 51.1053 72.762 50.4019 71.7192C50.2827 71.5463 50.1635 71.3676 50.0383 71.1947ZM53.4418 71.8979C53.4299 71.9456 53.4239 71.9933 53.412 72.041C53.7696 72.2197 54.1153 72.4223 54.4849 72.5832C55.9511 73.203 57.3817 73.8824 58.687 74.818C59.6645 75.5211 60.6897 76.1588 61.709 76.8024C62.2573 77.148 62.8355 77.4519 63.3958 77.7737C65.1243 78.7808 66.841 79.7879 68.5755 80.7831C68.7841 80.9023 68.9927 81.1049 69.3682 81.0096C68.8139 80.366 68.3073 79.7641 67.7827 79.1861C66.5131 77.7797 64.9336 76.7309 63.4673 75.5629C63.3064 75.4377 63.1276 75.3304 62.9428 75.2649C61.7626 74.8299 60.5825 74.4068 59.4023 73.9837C58.2221 73.5606 57.0419 73.1255 55.8558 72.7084C55.0571 72.4283 54.2464 72.1661 53.4418 71.8979ZM53.6802 70.7597C53.6802 70.8193 53.6742 70.8789 53.6742 70.9385C53.9186 70.9802 54.157 71.0219 54.3955 71.0636C56.2074 71.3735 58.0254 71.6715 59.8374 71.9933C61.0056 72.2019 62.162 72.4462 63.3302 72.6786C64.272 72.8693 65.2197 73.0421 66.1615 73.2566C67.0138 73.4533 67.8483 73.7095 68.7006 73.9002C69.7556 74.1326 70.8107 74.3353 71.8716 74.5319C72.4438 74.6392 73.028 74.7107 73.4988 74.7762C73.0637 74.5498 72.5392 74.2459 71.9968 73.9896C69.5768 72.8455 67.0734 71.9397 64.4568 71.3556C63.819 71.2126 63.2051 71.0041 62.5673 70.861C62.0726 70.7538 61.56 70.6346 61.0474 70.6405C59.3248 70.6405 57.5962 70.6942 55.8677 70.724C55.1405 70.7419 54.4074 70.7478 53.6802 70.7597ZM43.6904 72.2674C43.6725 72.2376 43.6547 72.2078 43.6368 72.178C42.6056 72.4879 41.5864 72.8097 40.5492 73.0898C39.3154 73.4295 38.0697 73.7095 36.8418 74.0552C35.4649 74.4485 34.1059 74.9133 32.7231 75.2947C30.5237 75.8966 28.3123 76.4567 26.101 77.0288C25.1473 77.2731 24.1877 77.4698 23.234 77.7141C22.6916 77.8572 22.1611 78.0359 21.6187 78.2028C21.6247 78.2505 21.6366 78.3041 21.6425 78.3518C22.5307 78.322 23.4247 78.316 24.3069 78.2505C25.8507 78.1372 27.3825 77.9585 28.9203 77.8572C30.5714 77.7499 32.1509 77.3566 33.7245 76.8918C34.1953 76.7547 34.7199 76.6951 35.1133 76.4389C36.7226 75.396 38.4929 74.6749 40.2154 73.8585C41.3658 73.3103 42.5341 72.7978 43.6904 72.2674ZM50.4198 79.7581C50.3721 79.7701 50.3244 79.776 50.2768 79.782C50.2708 79.9786 50.2768 80.1753 50.247 80.366C49.9907 82.0048 49.7344 83.6435 49.4542 85.2823C49.0131 87.8925 48.5601 90.4967 48.1071 93.1068C47.9879 93.7921 47.833 94.4714 47.7435 95.1568C47.4455 97.4809 46.8018 99.7275 46.2832 101.998C45.8779 103.744 45.3534 105.46 44.9004 107.194C44.7156 107.904 44.9242 108.148 45.7289 108.19C45.7706 108.1 45.8243 108.005 45.86 107.904C46.2653 106.67 46.6707 105.43 47.0819 104.197C48.1548 100.967 48.7986 97.6417 49.2754 94.2867C49.5257 92.5347 49.6688 90.7648 49.8774 89.0068C50.0622 87.4336 50.4437 85.8842 50.4496 84.2812C50.4556 83.3515 50.7 82.416 50.837 81.4863C50.8549 81.3791 50.8668 81.2599 50.837 81.1586C50.7059 80.6878 50.5569 80.2289 50.4198 79.7581ZM83.3754 51.875C83.3515 51.8273 83.3277 51.7737 83.3038 51.726C83.2383 51.72 83.1727 51.6902 83.1131 51.7022C81.2654 52.1431 79.4116 52.5662 77.5699 53.0489C76.4016 53.3529 75.2333 53.7044 74.1008 54.1276C72.873 54.5864 71.6153 54.9618 70.5126 55.7544C69.2907 56.6245 67.9258 57.2919 66.68 58.1202C64.5104 59.5683 62.3348 61.0105 60.2427 62.5598C58.0194 64.2046 55.7485 65.7659 53.3405 67.1306C52.8219 67.4285 52.1722 67.9649 51.9099 68.3224C52.1007 68.239 52.2497 68.1853 52.3808 68.1079C54.0438 67.1365 55.7068 66.1592 57.3757 65.1879C58.6691 64.431 59.9626 63.6683 61.2739 62.9353C62.7044 62.1427 64.1468 61.368 65.5893 60.5993C67.1748 59.759 68.7483 58.9068 70.3517 58.1024C71.8716 57.3396 73.4154 56.6245 74.9532 55.8915C76.795 55.0095 78.6368 54.1335 80.4786 53.2575C81.4442 52.7986 82.4098 52.3338 83.3754 51.875ZM81.9568 64.7767C81.9508 64.735 81.9508 64.6992 81.9449 64.6575C81.7064 64.6396 81.468 64.6039 81.2296 64.6039C79.2328 64.6039 77.2301 64.5562 75.2333 64.6217C73.016 64.6992 70.7987 64.878 68.5814 65.015C68.4503 65.021 68.3132 65.0389 68.1821 65.0687C67.5503 65.2057 66.9184 65.3607 66.2866 65.4977C63.962 66.0102 61.6136 66.3857 59.4261 67.3987C58.8778 67.655 58.3055 67.8516 57.7274 68.0423C55.8379 68.68 53.9425 69.3057 52.053 69.9314C51.9278 69.9791 51.8086 70.0506 51.6834 70.1102C52.202 70.1817 52.6967 70.2413 53.1736 70.1757C54.2166 70.0208 55.2478 69.8003 56.279 69.6096C59.5453 69.0018 62.7998 68.3701 66.0661 67.792C67.9615 67.4524 69.8868 67.2259 71.7763 66.8743C74.8638 66.3022 77.9394 65.6646 81.021 65.0448C81.3369 64.9852 81.6468 64.872 81.9568 64.7767ZM3.47497 54.1395C3.45709 54.1752 3.43324 54.205 3.41536 54.2408C3.47497 54.3063 3.52265 54.3778 3.58822 54.4255C4.49421 55.1287 5.38829 55.8378 6.30024 56.5232C8.40429 58.1083 10.6514 59.467 13.0177 60.6231C15.4198 61.7911 17.8755 62.834 20.3849 63.7398C20.8736 63.9185 21.3445 64.1271 21.8333 64.294C23.5022 64.878 25.1712 65.4501 26.8401 66.0162C27.454 66.2248 28.068 66.4274 28.6998 66.5883C29.1945 66.7134 29.7071 66.779 30.2197 66.8564C32.1032 67.1425 33.9927 67.4345 35.8822 67.7026C37.5928 67.941 39.3035 68.1555 41.0201 68.382C42.0036 68.5131 42.9871 68.6561 43.9706 68.7932C42.689 68.1973 41.4016 67.6073 40.0605 67.1961C38.2187 66.63 36.3352 66.2307 34.4815 65.7063C32.4728 65.1461 30.476 64.5443 28.4852 63.9185C27.013 63.4478 25.5646 62.9055 24.1042 62.4049C22.8525 61.9699 21.571 61.6183 20.3491 61.1118C18.0782 60.1583 15.8549 59.0975 13.5899 58.1202C12.2309 57.5362 10.8421 57.0178 9.4593 56.4874C8.18376 56.0047 6.89033 55.5518 5.62074 55.0572C4.89356 54.7771 4.19023 54.4434 3.47497 54.1395ZM83.9476 28.3242C83.9118 28.2884 83.8761 28.2586 83.8403 28.2228C83.3575 28.5506 82.8807 28.8784 82.3979 29.2061C80.9375 30.1775 79.4236 31.0654 78.0348 32.1321C75.6446 33.9675 73.5465 36.1307 71.4305 38.2701C71.055 38.6455 70.5961 38.9554 70.2802 39.3725C69.0821 40.9398 67.9437 42.5488 66.7516 44.128C65.4939 45.7847 64.1528 47.3877 62.9428 49.0801C61.6494 50.8857 60.4394 52.745 59.2533 54.6222C58.4009 55.969 57.6737 57.3932 56.8214 58.74C55.367 61.0283 53.8531 63.2809 52.3689 65.5514C52.2378 65.754 52.1185 65.9626 51.9993 66.1652C52.351 65.903 52.6073 65.5693 52.8577 65.2355C52.953 65.1163 53.0365 64.9852 53.1378 64.8661C53.412 64.5443 53.7219 64.2463 53.9723 63.9126C54.8604 62.7029 55.7425 61.4931 56.6128 60.2715C57.2863 59.324 58.0731 58.4539 58.6036 57.4111C58.6572 57.3157 58.7287 57.2204 58.8003 57.137C59.0327 56.8748 59.295 56.6364 59.5096 56.3563C60.0877 55.5935 60.6182 54.789 61.2262 54.0441C63.0501 51.7975 64.9575 49.6164 66.9483 47.5188C68.045 46.3627 69.0702 45.1411 70.1192 43.9433C71.5736 42.2747 73.0101 40.5942 74.4764 38.9375C75.5731 37.698 76.7115 36.4883 77.8142 35.2488C78.9586 33.9556 80.0673 32.6386 81.2117 31.3395C82.1117 30.3205 83.0356 29.3313 83.9476 28.3242ZM78.0527 19.4688C78.0229 19.4509 77.993 19.439 77.9573 19.427C77.5937 19.725 77.2361 20.0289 76.8665 20.3269C75.5552 21.3757 74.2201 22.4007 72.9266 23.4853C71.204 24.9334 69.5947 26.4947 68.3251 28.3718C67.7768 29.1823 67.139 29.9689 66.7456 30.8568C65.8158 32.9247 64.9873 35.0402 64.1647 37.1497C63.3064 39.3487 62.2693 41.4583 61.0772 43.4963C60.2129 44.9682 59.3844 46.458 58.5976 47.9717C57.9241 49.2648 57.3161 50.5937 56.6962 51.9167C56.3267 52.7033 55.9571 53.5018 55.6472 54.3182C54.9677 56.1239 54.318 57.9474 53.6623 59.759C53.5968 59.9378 53.5431 60.1106 53.4775 60.2834C53.9603 59.6041 54.3657 58.8949 54.7412 58.1619C55.8379 56.0226 56.8869 53.8653 58.0075 51.7439C58.9731 49.9203 59.9924 48.1266 61.0354 46.3448C62.3646 44.0684 63.7236 41.7979 65.1005 39.5454C65.8694 38.282 66.7039 37.0663 67.5026 35.8208C68.3132 34.5634 69.1238 33.3001 69.9285 32.0308C71.3054 29.8557 72.6703 27.6746 74.0651 25.5114C75.1022 23.9143 76.1811 22.3471 77.2361 20.7619C77.5222 20.3388 77.7844 19.8978 78.0527 19.4688ZM43.6129 67.2736C43.5056 67.1663 43.458 67.1008 43.3924 67.0591C42.3433 66.4572 41.3122 65.8315 40.2452 65.2713C38.8445 64.5323 37.5094 63.6742 36.1385 62.8816C34.4695 61.9222 32.8721 60.8496 31.2985 59.7411C29.7965 58.6923 28.3779 57.5243 26.9116 56.4278C25.8328 55.6233 24.742 54.8427 23.6512 54.056C22.7691 53.4124 21.875 52.7748 20.9988 52.1193C19.9855 51.3506 18.9961 50.5401 17.9768 49.7833C16.7728 48.8894 15.545 48.0313 14.3231 47.1672C13.6853 46.7083 13.0475 46.2614 12.4038 45.8144C11.7779 45.3854 11.1282 44.9921 10.5322 44.5273C9.46526 43.7108 8.4341 42.8527 7.38505 42.0184C7.09895 41.792 6.80092 41.5774 6.50886 41.3629C6.47309 41.3987 6.43733 41.4344 6.40753 41.4761C6.73536 41.8933 7.03934 42.3283 7.39101 42.7216C8.88113 44.4021 10.3832 46.0707 11.8852 47.7393C11.9985 47.8644 12.1534 47.9538 12.2905 48.0611C12.7912 48.4663 13.3634 48.7881 13.6972 49.3721C13.8224 49.5866 13.9714 49.7892 14.1383 49.9621C15.1516 51.0109 16.147 52.0835 17.2079 53.0847C18.4179 54.2169 19.6815 55.2956 20.9511 56.3682C21.4757 56.8092 22.03 57.2859 22.6558 57.5362C23.8062 58.001 24.8553 58.6446 25.952 59.2048C27.4898 59.9914 29.0455 60.7482 30.6071 61.4872C32.7887 62.5241 34.9762 63.555 37.1816 64.5502C39.226 65.4739 41.2883 66.3559 43.3387 67.2557C43.3924 67.2795 43.4639 67.2617 43.6129 67.2736ZM61.2679 7.50265C61.2381 7.49669 61.2083 7.49073 61.1785 7.47882C60.2546 9.1176 59.2831 10.7325 58.4248 12.4071C57.2446 14.7014 56.3684 17.1327 55.4981 19.5581C54.8127 21.4889 54.4491 23.4972 53.9663 25.4756C53.8113 26.1014 53.704 26.7509 53.6564 27.3945C53.5371 28.9618 53.4656 30.5291 53.3822 32.0963C53.2451 34.4919 53.1318 36.8935 52.9769 39.2891C52.8636 41.0113 52.7086 42.7276 52.5537 44.4498C52.4762 45.3198 52.351 46.1899 52.2676 47.0599C52.1722 48.0611 52.0768 49.0682 52.0113 50.0693C51.9338 51.1897 51.9278 52.316 51.8146 53.4303C51.594 55.6174 51.3139 57.7984 51.0695 59.9855C50.9026 61.4574 50.7476 62.9293 50.5867 64.4012C50.539 64.8184 50.4973 65.2296 50.4496 65.6467C50.5807 65.5752 50.6165 65.4918 50.6284 65.4083C50.8251 64.0556 51.0278 62.7029 51.2066 61.3501C51.4391 59.5922 51.7967 57.8521 51.8921 56.0762C51.9278 55.3611 52.0351 54.646 52.1662 53.9428C52.7742 50.6712 53.2212 47.3817 53.5014 44.0684C53.6683 42.1257 53.9007 40.1889 54.3299 38.282C54.5266 37.4298 54.6458 36.5598 54.8008 35.6957C54.9915 34.6648 55.1346 33.61 55.3909 32.591C55.7604 31.1131 56.2432 29.665 56.6306 28.1871C57.0896 26.4351 57.5247 24.6712 57.9181 22.9072C58.383 20.8275 58.7943 18.7358 59.2294 16.65C59.438 15.6429 59.6228 14.6299 59.8493 13.6228C60.1235 12.4309 60.4454 11.251 60.7255 10.0592C60.9222 9.20699 61.0891 8.35482 61.2679 7.50265ZM17.9292 19.0814C17.8874 19.0993 17.8457 19.1112 17.81 19.1291C18.0722 20.0289 18.3702 20.9168 18.5908 21.8226C19.1213 24.0097 19.7292 26.1669 20.4564 28.2884C20.8915 29.5577 21.3684 30.8211 21.8929 32.0606C22.638 33.8126 23.4307 35.5408 24.2175 37.2749C24.295 37.4596 24.4261 37.6205 24.5513 37.7755C26.0831 39.599 27.6567 41.3808 29.1349 43.2401C30.3866 44.8252 31.5131 46.5057 32.7171 48.1266C33.5874 49.2946 34.4755 50.4448 35.3815 51.583C36.3054 52.7391 37.3067 53.8296 38.1948 55.0155C39.8817 57.2502 41.5089 59.5385 43.1659 61.803C44.203 63.2213 45.258 64.6337 46.3071 66.0519C45.9316 65.3309 45.4905 64.6575 45.0256 63.996C43.7798 62.244 42.4983 60.5099 41.3837 58.6685C41.2705 58.4718 41.181 58.2633 41.0618 58.0785C39.4227 55.5578 37.7776 53.0311 36.1325 50.5163C35.6676 49.8012 35.1609 49.1099 34.7139 48.3829C33.7841 46.8514 32.8721 45.302 31.9661 43.7466C31.2568 42.5309 30.5714 41.2914 29.874 40.0698C29.4448 39.3129 29.0097 38.5621 28.5806 37.7993C28.3064 37.3106 28.0501 36.8101 27.7819 36.3214C27.305 35.4633 26.8282 34.5932 26.3394 33.7411C25.6599 32.5492 24.9506 31.3812 24.283 30.1834C23.538 28.8545 22.8347 27.4958 22.0896 26.161C21.4697 25.0466 20.82 23.9441 20.1703 22.8417C19.4312 21.5843 18.6742 20.3328 17.9292 19.0814ZM53.8232 52.4769C53.8531 52.4828 53.8888 52.4888 53.9246 52.4947C54.3239 51.5532 54.7233 50.6116 55.1226 49.6641C55.6233 48.4723 56.13 47.2804 56.6068 46.0826C57.6737 43.4129 58.7764 40.761 59.7539 38.0675C60.5944 35.7493 61.2798 33.3776 62.3229 31.1369C62.8772 29.9451 63.5508 28.8068 64.1289 27.621C64.8084 26.2325 65.476 24.8321 66.0899 23.4138C66.6741 22.061 67.1926 20.6785 67.7291 19.3019C68.0509 18.4676 68.3728 17.6333 68.6768 16.7931C68.9391 16.0541 69.1715 15.3092 69.4159 14.5643C69.5053 14.2902 69.5947 14.0161 69.6841 13.736C69.2788 14.0995 68.9569 14.4988 68.641 14.898C67.3178 16.5428 65.9409 18.1458 64.6952 19.8382C63.5746 21.3578 62.615 22.9847 61.56 24.5401C60.8924 25.5174 60.3679 26.5423 60.0579 27.6806C59.5513 29.522 59.0089 31.3514 58.5082 33.1869C57.8764 35.5288 57.2565 37.8708 56.6545 40.2247C56.4459 41.0471 56.2611 41.8873 56.1359 42.7276C55.826 44.7299 55.3849 46.6964 54.8246 48.6391C54.461 49.9084 54.1511 51.1956 53.8232 52.4769ZM37.6047 5.99497C37.569 5.99497 37.5332 6.00093 37.5034 6.00093C37.3723 6.87693 37.2054 7.75294 37.1219 8.6349C36.8656 11.4357 36.6988 14.2306 36.8239 17.0434C36.8776 18.1875 36.7703 19.3377 36.8537 20.4818C36.9789 22.2875 37.1637 24.0991 37.3961 25.8988C37.5392 27.0429 37.6524 28.1811 38.0637 29.2955C39.077 32.0785 39.9055 34.921 40.6744 37.7814C41.2347 39.8612 41.8903 41.9171 42.5222 43.9731C42.9215 45.2841 43.3805 46.5772 43.756 47.8942C44.3163 49.8369 44.8169 51.7915 45.3653 53.7402C45.6872 54.8844 46.0925 56.0047 46.3846 57.1608C46.9627 59.467 47.4813 61.7851 48.0416 64.0973C48.125 64.437 48.2979 64.7648 48.429 65.0925C48.5125 64.9972 48.5184 64.9316 48.5005 64.872C48.4648 64.7171 48.423 64.5621 48.3694 64.4191C47.8747 63.1319 47.678 61.7732 47.4515 60.4264C47.0342 57.9295 46.7005 55.4207 45.9077 52.9953C45.4666 51.6664 45.109 50.3077 44.7335 48.955C44.5904 48.4603 44.4772 47.9598 44.3699 47.4592C44.2745 47.042 44.203 46.6189 44.1196 46.2018C43.8752 44.9682 43.6189 43.7406 43.4043 42.5071C43.0586 40.5882 42.7606 38.6634 42.4208 36.7445C42.1407 35.2011 41.789 33.6696 41.5327 32.1261C41.2824 30.6244 41.1214 29.1048 40.9069 27.5971C40.7161 26.2444 40.5015 24.8976 40.3049 23.5449C40.1678 22.6152 40.0307 21.6856 39.9055 20.7559C39.7267 19.3615 39.5836 17.9611 39.375 16.5666C39.1783 15.2377 38.9101 13.9207 38.6955 12.5978C38.3617 10.5597 38.0518 8.52764 37.7299 6.48958C37.7061 6.32273 37.6465 6.15587 37.6047 5.99497ZM9.89442 27.6329C9.87058 27.6508 9.84077 27.6746 9.81693 27.6925C10.109 28.2407 10.3951 28.789 10.6931 29.3313C11.1878 30.2371 11.6885 31.1369 12.1832 32.0427C12.976 33.4789 13.7151 34.9448 14.5615 36.3453C15.396 37.7278 16.296 39.0746 17.2318 40.3916C18.1139 41.637 19.0736 42.8289 20.0034 44.0386C20.069 44.128 20.1465 44.2114 20.218 44.2948C20.9094 45.1232 21.6068 45.9456 22.2863 46.7858C22.8883 47.5247 23.4963 48.2398 24.2652 48.8358C25.5765 49.8548 26.8163 50.9632 28.056 52.0657C29.266 53.1383 30.4164 54.2825 31.6264 55.3492C33.5576 57.0595 35.5186 58.74 37.4736 60.4205C38.5644 61.3561 39.6552 62.2857 40.7757 63.1796C41.5506 63.7934 42.3672 64.3476 43.1778 64.9137C43.7739 65.3368 44.3878 65.7361 45.0017 66.1413C44.9064 65.903 44.7573 65.748 44.5964 65.5931C43.75 64.7945 42.8738 64.0199 42.0513 63.1975C41.193 62.3394 40.3883 61.4336 39.5598 60.5516C38.2842 59.1929 36.9908 57.8521 35.7451 56.4695C34.4218 54.9976 33.1582 53.484 31.8529 51.9942C31.4595 51.5413 31.0244 51.1122 30.6131 50.6653C29.8025 49.7773 28.9918 48.8834 28.1812 47.9896C26.8461 46.5296 25.5049 45.0874 24.1817 43.6155C23.3294 42.662 22.5307 41.6668 21.6783 40.7074C19.6696 38.4429 17.6013 36.2261 15.6344 33.9258C13.9416 31.9474 12.2369 29.9868 10.3951 28.1394C10.2282 27.9666 10.0613 27.7997 9.89442 27.6329ZM47.07 64.9614C47.1117 64.9495 47.1535 64.9316 47.1892 64.9197C46.927 64.4251 46.6647 63.9364 46.4024 63.4478C45.9614 62.6194 45.5143 61.7911 45.2819 60.8674C45.1746 60.4384 45.1209 59.9855 44.9958 59.5564C44.4295 57.6256 43.8454 55.6948 43.2613 53.764C42.844 52.4113 42.4149 51.0705 41.9917 49.7237C41.3956 47.7989 40.3883 46.0409 39.9413 44.0446C39.6313 42.6382 38.922 41.3272 38.3856 39.9744C37.9564 38.8898 37.5153 37.8172 37.0921 36.7266C36.6272 35.5348 36.2279 34.3191 35.7272 33.1452C34.8272 31.0416 33.8854 28.9618 32.9496 26.8701C31.537 23.7236 30.321 20.4937 29.0514 17.2817C28.2468 15.2437 27.3885 13.2235 26.5421 11.1974C26.4646 10.9948 26.3335 10.8219 26.2262 10.6312C26.1964 10.8517 26.244 11.0424 26.2798 11.2331C26.6374 12.9673 26.9891 14.7014 27.3348 16.4355C27.758 18.5212 28.1514 20.6189 28.6044 22.6987C29.0216 24.5996 29.4925 26.4887 29.9574 28.3778C30.1243 29.0333 30.3508 29.665 30.5356 30.3145C30.8813 31.5123 31.227 32.7161 31.5608 33.9258C31.7039 34.4443 31.829 34.9568 32.1211 35.4275C32.443 35.9341 32.741 36.4704 33.0092 37.0127C34.243 39.4798 35.4649 41.9588 36.6868 44.4319C37.3604 45.8025 38.0279 47.1791 38.6955 48.5497C39.9174 51.0705 41.1214 53.6091 42.3672 56.1179C43.1957 57.7865 44.0778 59.4313 44.954 61.076C45.6455 62.3811 46.3667 63.6683 47.07 64.9614ZM49.0191 62.4645C48.8462 62.7625 48.8641 63.0545 49.0906 63.3465C49.0608 63.0545 49.0251 62.7565 48.9953 62.4645C49.0251 61.7017 49.0847 60.9449 49.0668 60.1881C49.0429 59.0916 48.9356 57.9951 48.8999 56.8986C48.8582 55.5995 48.8462 54.3004 48.8343 53.0013C48.8284 52.018 48.8164 51.0288 48.8641 50.0515C48.9237 48.7285 49.0251 47.4115 49.1383 46.0945C49.3052 44.2412 49.49 42.3939 49.6867 40.5465C49.8774 38.7826 49.9847 37.0186 49.8595 35.2428C49.7761 34.1761 49.7105 33.1034 49.6926 32.0308C49.6747 30.9402 49.7284 29.8438 49.7403 28.7473C49.7642 26.8463 49.788 24.9393 49.7999 23.0383C49.8118 21.6498 49.8118 20.2613 49.8357 18.8728C49.8416 18.408 49.943 17.9372 49.943 17.4724C49.9549 15.774 49.937 14.0697 49.9489 12.3713C49.9549 11.4536 50.0264 10.5419 50.0264 9.62413C50.0324 8.23564 50.0026 6.84118 49.9966 5.45268C49.9907 5.00574 50.0145 4.55284 50.0205 4.1059C49.9608 4.09994 49.9012 4.09398 49.8416 4.08802C49.7701 4.54688 49.7045 5.00574 49.6271 5.4646C49.4184 6.63261 49.2456 7.80657 48.9953 8.96862C48.584 10.8756 48.1191 12.7706 47.8866 14.7133C47.7555 15.8038 47.6482 16.9003 47.5111 17.9909C47.2906 19.8144 47.0223 21.632 46.8256 23.4614C46.6051 25.422 46.4382 27.3886 46.2594 29.3491C46.2057 29.9212 46.1163 30.5112 46.17 31.0773C46.3965 33.7113 46.6111 36.3453 46.7243 38.9911C46.8256 41.5834 47.0998 44.1757 47.3442 46.762C47.5588 48.9669 47.8568 51.1658 48.0952 53.3767C48.2681 55.0274 48.4052 56.6781 48.5721 58.3288C48.7091 59.7113 48.8701 61.0879 49.0191 62.4645ZM53.9425 65.7301C53.3643 65.897 53.0126 66.338 52.6908 66.8088C53.108 66.4512 53.5252 66.0877 53.9365 65.7242C53.9901 65.6586 54.0438 65.5812 54.1094 65.5216C54.7769 64.9614 55.4564 64.4012 56.124 63.8411C56.8214 63.2452 57.5128 62.6373 58.2221 62.0533C59.2235 61.225 60.2427 60.4205 61.256 59.5981C61.9951 59.0082 62.7044 58.3944 63.4614 57.8282C64.1587 57.3098 64.9098 56.8509 65.631 56.3503C66.6145 55.6591 67.592 54.944 68.5814 54.2467C69.4755 53.6091 70.3875 52.9893 71.2815 52.3457C72.3127 51.6008 73.3319 50.8321 74.375 50.0932C75.579 49.235 76.8129 48.4127 78.0109 47.5486C79.0481 46.8037 80.0554 46.023 81.0746 45.2602C82.2786 44.3544 83.4827 43.4546 84.6807 42.5488C84.794 42.4654 84.8834 42.3521 84.9847 42.2508C84.8417 42.2032 84.7582 42.221 84.6867 42.2508C83.6853 42.6561 82.7078 43.109 81.6886 43.4486C80.0494 43.9969 78.3864 44.4617 76.8844 45.3496C75.585 46.1065 74.1903 46.6905 72.9624 47.5784C71.961 48.3054 70.9358 48.9967 69.9047 49.676C69.5351 49.9203 69.1656 50.1587 68.8497 50.4805C67.5979 51.7617 66.3462 53.0489 65.0528 54.3004C62.8892 56.3861 60.7493 58.4957 58.7168 60.7125C57.6916 61.8388 56.577 62.8876 55.5041 63.9662C55.0154 64.4608 54.5147 64.9435 54.0259 65.4381C53.9663 65.5037 53.9723 65.6288 53.9425 65.7301ZM43.2911 70.9921C43.2493 70.9445 43.2076 70.8551 43.1659 70.8551C42.1586 70.7776 41.1572 70.6703 40.1558 70.6465C39.0353 70.6167 37.9147 70.6703 36.7941 70.6584C35.3398 70.6525 33.8794 70.6227 32.4251 70.5809C31.078 70.5392 29.7309 70.4856 28.3898 70.4022C27.2693 70.3366 26.1546 70.1996 25.0341 70.1281C23.8002 70.0506 22.5664 70.0506 21.3386 69.9612C19.5862 69.836 17.8338 69.6573 16.0814 69.5023C14.9489 69.401 13.8105 69.3474 12.6899 69.1746C11.5157 68.9898 10.3653 68.6978 9.203 68.4535C9.07187 68.4237 8.93478 68.4118 8.80365 68.3939C8.79173 68.4416 8.77981 68.4893 8.76789 68.5369C9.04207 68.6561 9.31029 68.8051 9.59639 68.9005C11.0448 69.3772 12.4872 69.842 13.9416 70.3068C15.3542 70.7478 16.7669 71.1888 18.1855 71.6119C20.8319 72.4045 23.5499 72.6786 26.3037 72.5832C27.7163 72.5296 29.123 72.3628 30.5356 72.333C32.3118 72.2912 34.0761 72.1542 35.8285 71.8979C36.5617 71.7847 37.2948 71.6774 38.0279 71.5821C38.8266 71.4748 39.6254 71.3795 40.43 71.2901C41.3837 71.1769 42.3433 71.0756 43.297 70.9623C43.452 70.9445 43.607 70.9206 43.7619 70.8968C43.7441 70.8491 43.7202 70.8014 43.7023 70.7478C43.5652 70.8312 43.4282 70.9087 43.2911 70.9921ZM53.5133 53.4184C53.7338 53.2337 53.7338 53.2337 53.7636 52.8821C53.6742 53.0787 53.5968 53.2516 53.5193 53.4244C52.9113 55.7961 52.2378 58.156 51.9517 60.5993C52.053 60.4741 52.1305 60.343 52.1603 60.2C52.2437 59.8305 52.3033 59.4551 52.3808 59.0797C52.6073 58.0547 52.8398 57.0237 53.0722 55.9987C53.251 55.236 53.4418 54.4732 53.6087 53.7104C53.6266 53.627 53.5431 53.5138 53.5133 53.4184ZM18.3524 55.7783C17.7265 55.2062 17.196 54.7354 16.6834 54.2467C15.8072 53.4065 14.8416 52.6854 13.8879 51.9405C12.7137 51.0228 11.7839 49.8667 10.8362 48.7225C10.2044 47.9657 9.57851 47.2029 8.95266 46.4402C8.45794 45.8383 7.96918 45.2245 7.46254 44.6286C6.47309 43.4725 5.51346 42.2866 4.47633 41.1722C3.52861 40.1532 2.49745 39.2176 1.508 38.2403C1.32323 38.0615 1.02521 37.8768 1.15038 37.5848C1.30535 37.2511 1.63914 37.4656 1.87756 37.5073C2.62858 37.6205 3.38556 37.7635 4.13062 37.9185C4.47633 37.99 4.81608 38.1271 5.15583 38.2343C5.5373 38.3535 5.92473 38.4787 6.30024 38.6157C6.70555 38.7528 7.09895 38.9077 7.4983 39.0627C8.98246 39.6407 10.4726 40.2068 11.9508 40.8087C12.6064 41.0769 13.2323 41.4285 13.876 41.7324C14.9549 42.2389 16.0337 42.7395 17.1066 43.252C17.345 43.3712 17.5536 43.538 17.7801 43.681C18.0543 43.8539 18.3285 44.0207 18.6027 44.1935C18.6325 44.1578 18.6623 44.1161 18.6921 44.0803C18.3941 43.7228 18.0782 43.3831 17.804 43.0136C16.898 41.786 15.986 40.5584 15.1158 39.307C14.6092 38.574 14.1502 37.7993 13.7151 37.0186C13.0058 35.7255 12.3382 34.4025 11.6349 33.1034C10.9554 31.8401 10.2461 30.5887 9.55467 29.3313C9.10167 28.5029 8.70828 27.6448 8.18972 26.8582C7.71884 26.1371 7.13471 25.4816 6.56846 24.8261C6.35985 24.5937 6.22871 24.3672 6.24064 24.0335C6.63999 23.9024 6.96186 23.9978 7.28968 24.254C7.71288 24.5818 8.15395 24.9155 8.63079 25.1419C10.2938 25.9405 11.921 26.7926 13.4707 27.7878C14.4542 28.4135 15.39 29.1167 16.3794 29.7305C17.6907 30.535 18.7636 31.6136 19.914 32.6148C20.3134 32.9664 20.7306 33.3061 21.2372 33.7351C21.1955 33.5027 21.1776 33.3657 21.1419 33.2405C20.2418 30.392 19.312 27.5614 18.4477 24.7069C17.8696 22.8 17.3748 20.8692 16.8563 18.9443C16.6655 18.2531 16.5225 17.5558 16.3496 16.8586C16.2245 16.3461 15.9801 15.9051 15.6105 15.5178C15.3065 15.19 15.0383 14.8265 14.788 14.4511C14.7105 14.3319 14.7045 14.0995 14.7701 13.9684C14.8714 13.7658 15.086 13.8373 15.235 13.9386C15.7953 14.314 16.3794 14.6597 16.8801 15.0947C17.7921 15.8932 18.704 16.7037 19.5325 17.5797C20.4385 18.5391 21.2551 19.5879 22.1134 20.595C22.2744 20.7798 22.4472 20.9586 22.5962 21.1552C23.4247 22.2398 24.2473 23.3363 25.0877 24.4209C25.5526 25.0227 26.0176 25.6306 26.5361 26.1908C27.3825 27.1025 27.9905 28.1752 28.6342 29.23C28.8667 29.6113 29.1349 29.9689 29.4568 30.3145C29.3554 29.9153 29.2601 29.516 29.1528 29.1167C28.6819 27.3886 28.2051 25.6544 27.7282 23.9263C27.4361 22.8417 27.1083 21.769 26.852 20.6725C26.5898 19.5641 26.3871 18.4378 26.1785 17.3115C25.9699 16.215 25.7732 15.1185 25.5884 14.0161C25.4275 13.0686 25.2367 12.127 25.1473 11.1735C25.0341 9.91018 24.5811 8.73025 24.2771 7.51457C24.1996 7.20469 23.985 6.93057 23.836 6.65048C24.0625 6.40616 24.2354 6.38232 24.4678 6.53726C26.5242 7.93767 28.3362 9.61221 29.7727 11.6205C30.8992 13.1818 31.7992 14.91 32.7827 16.5666C33.2596 17.3771 33.7304 18.1994 34.1536 19.0457C34.7139 20.16 35.2325 21.3042 35.8226 22.5556C35.9716 21.6141 35.8285 20.8036 35.7689 19.9932C35.7093 19.1708 35.5901 18.3603 35.6616 17.5261C35.7272 16.8169 35.608 16.1018 35.6318 15.3927C35.6855 13.7122 35.7689 12.0376 35.8583 10.3631C35.9299 9.02225 36.0193 7.68143 36.1087 6.34061C36.1265 6.07244 36.1981 5.81024 36.2219 5.54207C36.2815 4.94615 36.3292 4.35023 36.3709 3.74835C36.4007 3.35504 36.4067 2.95577 36.4246 2.5565C36.4425 2.02613 36.5557 1.49576 36.2577 0.989231C36.1802 0.858127 36.1981 0.661473 36.1742 0.494615C36.4723 0.387349 36.6213 0.518452 36.7405 0.691269C36.9789 1.04286 37.2352 1.3885 37.4319 1.76393C38.5823 3.90329 39.5836 6.1082 40.4598 8.36674C41.0618 9.91018 41.7115 11.4357 42.2718 12.997C43.1718 15.5297 44.1673 18.0326 44.7335 20.6785C44.9719 21.7631 45.3236 22.8298 45.717 23.9084C45.8123 23.2588 45.9196 22.6152 46.009 21.9716C46.3011 19.8144 46.5872 17.6572 46.8733 15.5059C46.9925 14.5703 47.0342 13.6228 47.2071 12.705C47.5826 10.673 48.0177 8.65874 48.435 6.63857C48.6078 5.80428 48.7688 4.96999 48.9595 4.14761C49.1264 3.45039 49.3231 2.75912 49.5019 2.06785C49.6271 1.5494 49.7403 1.03094 49.8714 0.512493C49.9191 0.333716 50.0205 0.166858 50.1635 0C50.9145 2.31218 51.2781 4.69586 51.8265 7.03783C52.3868 9.39172 52.8159 11.7695 53.0603 14.1829C53.3166 16.5964 53.5848 19.0159 53.9365 21.4472C54.2584 20.5772 54.5862 19.7071 54.9081 18.8371C55.2418 17.9313 55.5637 17.0195 55.9035 16.1197C56.2373 15.2377 56.571 14.3558 56.9406 13.4917C57.3221 12.6037 57.7274 11.7277 58.1446 10.8577C58.5499 10.0115 58.9791 9.17719 59.4023 8.33694C59.8314 7.47286 60.2367 6.59685 60.7136 5.7566C61.1606 4.97595 61.3454 4.02843 62.0845 3.28949C62.3348 3.92116 62.3944 4.44557 62.3944 5.0117C62.4004 6.50746 62.4958 8.00323 62.5315 9.50495C62.5494 10.5121 62.5375 11.5192 62.5256 12.5263C62.4958 14.4273 62.4779 16.3342 62.4123 18.2412C62.3825 19.1529 62.2693 20.0706 62.1739 20.9824C62.156 21.1552 62.0547 21.3161 61.9951 21.4889C62.0487 21.5068 62.1024 21.5247 62.156 21.5426C62.6507 20.893 63.1514 20.2435 63.6461 19.5939C64.1468 18.9324 64.6356 18.265 65.1422 17.6095C65.6608 16.9361 66.1913 16.2687 66.7098 15.5953C67.2344 14.9219 67.735 14.2366 68.2655 13.5632C68.7781 12.9136 69.2788 12.2521 69.8451 11.6503C70.4173 11.0424 70.7332 10.2081 71.5736 9.70756C71.5736 9.92209 71.5915 10.0472 71.5736 10.1664C71.4484 10.965 71.3709 11.7695 71.1742 12.5501C70.6497 14.612 70.8107 16.7335 70.5246 18.8192C70.31 20.3507 70.0656 21.8703 69.547 23.3482C69.1954 24.3613 68.9271 25.3982 68.5814 26.5841C68.9689 26.1848 69.249 25.9047 69.5232 25.6187C71.2279 23.8607 73.0399 22.2279 74.977 20.7262C76.1989 19.7727 77.3493 18.7298 78.5295 17.7287C78.7858 17.5141 79.0481 17.2996 79.3222 17.1089C79.3938 17.0553 79.5368 17.0732 79.6203 17.1149C79.6739 17.1387 79.6858 17.2698 79.6918 17.3532C79.6977 17.4128 79.656 17.4784 79.6381 17.5439C79.1434 19.3377 78.6785 21.1433 78.148 22.9251C77.8738 23.8488 77.4804 24.7367 77.1526 25.6425C76.6996 26.888 76.2884 28.1513 75.7996 29.3789C75.1976 30.8747 74.536 32.3466 73.8982 33.8305C73.7373 34.188 73.5823 34.5515 73.5167 34.9746C73.6479 34.8674 73.779 34.7601 73.9101 34.6469C75.4181 33.3716 76.9321 32.1083 78.4282 30.8151C79.6262 29.7782 81.021 29.0512 82.3263 28.1811C83.2323 27.5733 84.1502 26.9774 85.0503 26.3636C85.1933 26.2682 85.2947 26.1014 85.4556 25.9226C85.5331 26.0477 85.6582 26.161 85.6344 26.2384C85.5629 26.5364 85.4675 26.8343 85.3423 27.1144C84.0966 29.8497 82.6422 32.4837 81.1402 35.0819C80.6157 35.9937 79.966 36.8339 79.3818 37.7099C78.7918 38.6038 78.2196 39.5156 77.6175 40.4035C77.1526 41.0828 76.6639 41.7503 76.1632 42.4177C75.8055 42.9004 75.4062 43.3593 75.0366 43.8419C74.3512 44.7597 73.6479 45.6535 72.7895 46.4282C72.6882 46.5176 72.6286 46.6666 72.5809 46.8156C73.2306 46.1482 74.1008 45.886 74.8876 45.4807C76.0857 44.8729 77.2778 44.2472 78.5057 43.693C79.2388 43.3652 80.0256 43.1626 80.7885 42.8944C81.778 42.5428 82.7734 42.2032 83.7568 41.8158C84.4244 41.5596 85.0562 41.202 85.7298 40.9458C86.6 40.618 87.4225 40.2247 87.965 39.4262C88.1199 39.1938 88.3107 39.0805 88.6683 39.1997C88.6087 39.3785 88.5908 39.5871 88.4835 39.7241C87.1364 41.5119 85.8073 43.3116 84.4006 45.0517C83.8105 45.7787 83.0416 46.3508 82.3561 47.0003C81.4978 47.8167 80.6693 48.6689 79.7752 49.4496C78.6368 50.4269 77.4447 51.3386 76.2109 52.3338C76.4374 52.2981 76.6221 52.2802 76.8009 52.2444C78.0467 51.9882 79.2984 51.726 80.5501 51.4757C82.1296 51.1599 83.7151 50.8321 85.3006 50.5639C86.3139 50.3971 87.2199 49.974 88.1438 49.5688C88.2451 49.5211 88.3345 49.4436 88.4418 49.4257C88.5193 49.4079 88.6504 49.4436 88.6802 49.4972C88.7219 49.5807 88.7339 49.7297 88.6862 49.7952C88.555 49.974 88.412 50.1647 88.2272 50.2839C86.6 51.3208 85.0503 52.453 83.59 53.7223C80.6037 56.3205 77.4328 58.6923 74.1128 60.8436C72.9982 61.5647 71.8478 62.2261 70.7212 62.9293C70.2742 63.2034 69.851 63.5193 69.4457 63.8947C69.5888 63.8828 69.7378 63.8828 69.8808 63.859C70.1908 63.8053 70.5007 63.6623 70.7987 63.6802C72.8909 63.8113 74.9651 63.3882 77.0513 63.5193C77.4328 63.5431 77.8023 63.6623 78.1838 63.6742C79.6143 63.7279 81.0508 63.7755 82.4813 63.7934C83.3575 63.7994 84.2277 63.7457 85.1039 63.7457C85.235 63.7457 85.3721 63.859 85.4913 63.9185C85.4735 64.0079 85.4794 64.0735 85.4556 64.0914C83.9297 65.1402 82.2012 65.7599 80.4845 66.3916C78.9229 66.9697 77.3136 67.3749 75.7102 67.8099C74.6969 68.084 73.7373 68.5548 72.7359 68.8707C71.6451 69.2103 70.5424 69.4964 69.4278 69.7526C68.4205 69.991 67.4013 70.1459 66.388 70.3426C66.1972 70.3783 66.0184 70.4498 65.6966 70.5452C66.3403 70.7716 66.8529 70.9266 67.3476 71.1292C69.3801 71.9635 71.4186 72.7859 73.4333 73.6619C74.4823 74.1207 75.4837 74.6749 76.5029 75.1874C76.9261 75.402 77.3374 75.6224 77.7665 75.8191C77.993 75.9204 77.999 76.0515 77.9156 76.2303C77.85 76.2482 77.7964 76.2839 77.7665 76.272C76.7533 75.9264 75.7817 76.2422 74.7982 76.4389C73.8326 76.6296 72.8491 76.7547 71.8776 76.9037C71.7465 76.9216 71.6094 76.8977 71.4723 76.8858C69.9821 76.7726 68.4861 76.6534 66.8529 76.5223C67.2582 76.9931 67.6099 77.3566 67.9079 77.7558C68.7602 78.8881 69.5888 80.0323 70.4292 81.1705C70.8762 81.7843 71.3173 82.404 71.7584 83.0238C71.8001 83.0715 71.8657 83.1311 71.8657 83.1907C71.8657 83.286 71.8478 83.4052 71.7941 83.4767C71.7643 83.5184 71.6034 83.5184 71.5557 83.4707C71.1266 83.0476 70.5484 83.0476 70.0179 82.8987C69.243 82.6722 68.4741 82.416 67.7112 82.1478C66.5727 81.7426 65.4343 81.3373 64.3078 80.8964C63.6402 80.6341 62.9964 80.3123 62.3408 80.0144C61.9414 79.8356 61.5361 79.6568 60.9758 79.4065C61.1129 79.7105 61.1904 79.8594 61.256 80.0144C61.6196 80.8785 61.9891 81.7426 62.3408 82.6126C62.8415 83.8342 63.3124 85.0678 63.813 86.2954C63.9322 86.6053 64.1111 86.8913 64.2541 87.1952C64.3793 87.4634 64.4508 87.7375 64.3078 88.0593C63.6402 88.0772 63.1753 87.6303 62.6925 87.3144C61.5659 86.5874 60.4811 85.7889 59.4082 84.9784C59.0029 84.6685 58.6751 84.2573 58.3115 83.8879C57.6916 83.2502 57.0717 82.6126 56.3386 81.8617C56.3445 82.2312 56.3326 82.4636 56.3505 82.696C56.4876 84.8294 56.4876 86.9569 56.1478 89.0724C56.1061 89.3167 56.1061 89.567 56.1061 89.8113C56.1061 90.0318 56.0406 90.2464 55.8141 90.2702C55.677 90.2821 55.4862 90.1629 55.3968 90.0437C54.9021 89.4299 54.3955 88.8221 53.9723 88.1606C53.3643 87.1952 52.8159 86.1881 52.2497 85.1989C52.0649 84.8711 51.898 84.5315 51.6 84.2097C51.5583 84.4838 51.5165 84.7639 51.4689 85.038C51.1947 86.5457 51.1053 88.0653 51.0397 89.5908C50.9682 91.1522 50.7596 92.7135 50.5986 94.2748C50.3721 96.4439 49.8178 98.5475 49.2158 100.645C49.0012 101.372 48.882 102.129 48.6913 102.868C48.4886 103.649 48.2979 104.435 48.0177 105.192C47.6363 106.241 47.1773 107.26 46.766 108.297C46.5336 108.881 46.0806 109.03 45.5203 109C44.662 108.952 44.0838 108.547 43.8394 107.802C43.7858 107.623 43.7798 107.403 43.8275 107.224C44.1315 106.026 44.4832 104.846 44.7693 103.649C45.264 101.599 45.7229 99.5427 46.1938 97.4868C46.4084 96.5452 46.6409 95.6037 46.8316 94.6621C47.0879 93.363 47.3204 92.058 47.5528 90.7529C47.982 88.3215 48.4111 85.8902 48.8284 83.4529C48.9535 82.7258 49.0429 81.9929 49.0549 81.2181C48.7568 81.6115 48.4409 81.9929 48.1667 82.404C47.4038 83.5422 46.623 84.6685 45.9137 85.8365C45.3951 86.6947 44.7991 87.517 44.4593 88.4765C44.4295 88.5659 44.3043 88.7029 44.2567 88.691C44.1494 88.6612 44.0123 88.5718 43.9825 88.4705C43.905 88.2441 43.8394 87.9938 43.8394 87.7554C43.8215 86.5695 43.7917 85.3777 43.8394 84.1918C43.8752 83.4111 44.0302 82.6364 44.1375 81.8558C44.1792 81.5519 44.2388 81.2539 44.3103 80.8308C44.1136 80.9679 44.0123 81.0096 43.9467 81.0811C43.1182 82.0942 41.9738 82.7616 41.0916 83.721C40.883 83.9415 40.5731 84.0607 40.3287 84.2454C39.977 84.5196 39.6432 84.8235 39.2856 85.0916C39.0055 85.3062 38.7074 85.4969 38.4273 85.7054C38.1174 85.9319 37.8193 86.1703 37.5094 86.3907C36.669 86.9807 35.8285 87.5647 34.9762 88.1308C34.8808 88.1964 34.6245 88.1845 34.5649 88.113C34.4755 88.0057 34.4338 87.7673 34.4934 87.6481C35.2325 86.2656 35.9895 84.895 36.7464 83.5244C36.8239 83.3873 36.9253 83.2622 36.9968 83.1251C37.3902 82.3385 37.8551 81.6055 38.4035 80.9142C38.6717 80.5686 38.8803 80.1693 39.0353 79.6985C38.6776 79.919 38.32 80.1336 37.9683 80.3719C36.9014 81.087 35.6855 81.5161 34.547 82.0882C33.3013 82.7139 31.9721 83.143 30.6489 83.5303C29.3614 83.9058 28.1097 84.3944 26.8163 84.752C26.5123 84.8354 26.244 84.8711 26.0116 84.5255C27.8534 82.553 29.3435 80.2408 31.5608 78.5127C31.2985 78.5544 31.0244 78.5723 30.7681 78.6378C29.111 79.0669 27.4183 79.2457 25.7255 79.3827C24.0148 79.5138 22.2803 79.4483 20.5577 79.4781C19.7531 79.4959 18.9484 79.5317 18.1437 79.5615C17.6967 79.5794 17.2556 79.627 16.8146 79.627C16.7013 79.633 16.5881 79.5317 16.4808 79.4781C16.5344 79.3589 16.5642 79.2039 16.6596 79.1443C16.8384 79.0192 17.0709 78.9656 17.2556 78.8464C18.3643 78.1611 19.455 77.4579 20.5637 76.7666C21.8631 75.9621 23.1625 75.1636 24.4738 74.377C24.6645 74.2578 24.891 74.222 25.0996 74.1446C25.2844 74.0731 25.4692 74.0015 25.642 73.8108C25.4811 73.7811 25.3202 73.7393 25.1592 73.7274C24.1579 73.6499 23.1506 73.6023 22.1492 73.5069C21.1955 73.4116 20.2299 73.3281 19.2882 73.1255C18.2391 72.8991 17.2199 72.5415 16.1887 72.2317C15.6046 72.0588 15.0264 71.886 14.4602 71.6715C12.6601 70.9862 10.86 70.3128 9.07783 69.5858C8.31489 69.2759 7.59367 68.8587 6.85457 68.4893C6.81284 68.4714 6.7592 68.4595 6.73536 68.4237C6.31812 67.8397 5.63267 67.6192 5.0843 67.22C4.96509 67.1365 4.90549 66.9756 4.78628 66.8028C4.95317 66.7551 5.07238 66.6777 5.17967 66.6955C6.53866 66.8862 7.90958 66.8505 9.26857 66.8088C11.3011 66.7432 13.3455 66.63 15.3662 66.3797C16.743 66.2069 18.1199 66.1652 19.5027 66.0996C20.5041 66.046 21.5174 66.0996 22.5247 66.1056C22.7572 66.1115 22.9896 66.0996 23.228 66.0281C22.0181 65.6408 20.9154 65.021 19.6398 64.8243C18.8948 64.7171 18.1497 64.4489 17.4762 64.1092C15.4377 63.0783 13.3217 62.2142 11.2773 61.2071C9.67984 60.4205 8.19568 59.3776 6.69363 58.4063C5.94261 57.9236 5.24523 57.3515 4.55382 56.7913C3.91008 56.2669 3.31999 55.6948 2.68222 55.1704C1.87159 54.497 1.04309 53.8534 0.226499 53.1979C0.143053 53.1264 0.0834461 53.0251 0 52.9178C0.208616 52.6199 0.530483 52.6318 0.786785 52.6497C1.77027 52.7271 2.75971 52.7927 3.73127 52.9715C5.64459 53.3171 7.54598 53.7521 9.4593 54.1037C11.2176 54.4315 12.9939 54.6758 14.7582 55.0036C15.7715 55.1943 16.7669 55.4743 17.7682 55.7127C17.9113 55.7425 18.0663 55.7485 18.3524 55.7783Z" fill="#FF751F"/>
</g>
</svg>
